<?xml version="1.0" encoding="utf-8" standalone="no"?>
<!DOCTYPE svg PUBLIC "-//W3C//DTD SVG 1.1//EN"
  "http://www.w3.org/Graphics/SVG/1.1/DTD/svg11.dtd">
<svg xmlns:xlink="http://www.w3.org/1999/xlink" width="360pt" height="201.6pt" viewBox="0 0 360 201.6" xmlns="http://www.w3.org/2000/svg" version="1.1">
 <metadata>
  <rdf:RDF xmlns:dc="http://purl.org/dc/elements/1.1/" xmlns:cc="http://creativecommons.org/ns#" xmlns:rdf="http://www.w3.org/1999/02/22-rdf-syntax-ns#">
   <cc:Work>
    <dc:type rdf:resource="http://purl.org/dc/dcmitype/StillImage"/>
    <dc:date>2025-10-15T12:15:51.842201</dc:date>
    <dc:format>image/svg+xml</dc:format>
    <dc:creator>
     <cc:Agent>
      <dc:title>Matplotlib v3.9.2, https://matplotlib.org/</dc:title>
     </cc:Agent>
    </dc:creator>
   </cc:Work>
  </rdf:RDF>
 </metadata>
 <defs>
  <style type="text/css">*{stroke-linejoin: round; stroke-linecap: butt}</style>
 </defs>
 <g id="figure_1">
  <g id="patch_1">
   <path d="M 0 201.6 
L 360 201.6 
L 360 0 
L 0 0 
z
" style="fill: #ffffff"/>
  </g>
  <g id="axes_1">
   <g id="patch_2">
    <path d="M 69.370122 151.926786 
L 340.56 151.926786 
L 340.56 19.44 
L 69.370122 19.44 
z
" style="fill: #ffffff"/>
   </g>
   <g id="matplotlib.axis_1">
    <g id="text_1">
     <!-- path -->
     <g transform="translate(177.550068 176.346747) scale(0.3 -0.3)">
      <defs>
       <path id="LMRoman17-Regular-70" d="M 3053 1401 
C 3053 2207 2496 2816 1837 2816 
C 1453 2816 1139 2606 960 2355 
L 960 2816 
L 198 2752 
L 198 2585 
C 576 2585 634 2547 634 2240 
L 634 -815 
C 634 -1057 608 -1088 198 -1088 
L 198 -1255 
C 352 -1242 634 -1242 800 -1242 
C 966 -1242 1254 -1242 1408 -1255 
L 1408 -1088 
C 998 -1088 973 -1063 973 -815 
L 973 382 
C 1158 109 1427 -64 1766 -64 
C 2406 -64 3053 505 3053 1389 
L 3053 1401 
z
M 2643 1382 
C 2643 642 2234 38 1728 38 
C 1498 38 1248 148 1056 454 
C 973 596 973 635 973 739 
L 973 2025 
C 973 2116 973 2252 1222 2489 
C 1254 2508 1472 2700 1792 2700 
C 2259 2700 2643 2118 2643 1388 
L 2643 1382 
z
" transform="scale(0.015625)"/>
       <path id="LMRoman17-Regular-61" d="M 2874 569 
L 2874 928 
L 2758 928 
L 2758 563 
C 2758 172 2586 121 2502 121 
C 2240 121 2240 454 2240 736 
L 2240 1657 
C 2240 2080 2240 2304 1971 2553 
C 1734 2764 1459 2828 1242 2828 
C 736 2828 371 2432 371 2009 
C 371 1772 563 1760 602 1760 
C 685 1760 832 1811 832 1990 
C 832 2150 710 2220 602 2220 
C 576 2220 544 2214 525 2208 
C 659 2611 1005 2726 1229 2726 
C 1549 2726 1901 2444 1901 1907 
L 1901 1625 
C 1523 1612 1069 1561 710 1369 
C 307 1145 192 825 192 582 
C 192 89 768 -52 1107 -52 
C 1459 -52 1786 147 1926 512 
C 1939 230 2118 -26 2400 -26 
C 2534 -26 2874 64 2874 569 
z
M 1901 889 
C 1901 332 1504 51 1152 51 
C 832 51 582 288 582 582 
C 582 774 666 1113 1037 1318 
C 1344 1491 1696 1516 1901 1529 
L 1901 889 
z
" transform="scale(0.015625)"/>
       <path id="LMRoman17-Regular-74" d="M 1965 784 
L 1965 1151 
L 1850 1151 
L 1850 790 
C 1850 347 1677 51 1408 51 
C 1222 51 966 179 966 765 
L 966 2585 
L 1862 2585 
L 1862 2752 
L 966 2752 
L 966 3968 
L 851 3968 
C 838 3291 614 2700 70 2687 
L 70 2585 
L 627 2585 
L 627 778 
C 627 655 627 -64 1370 -64 
C 1747 -64 1965 308 1965 784 
z
" transform="scale(0.015625)"/>
       <path id="LMRoman17-Regular-68" d="M 3091 0 
L 3091 166 
C 2682 166 2656 192 2656 443 
L 2656 1954 
C 2656 2282 2592 2816 1837 2816 
C 1312 2816 1056 2392 979 2179 
L 973 2179 
L 973 4416 
L 211 4352 
L 211 4185 
C 589 4185 646 4148 646 3847 
L 646 443 
C 646 198 621 166 211 166 
L 211 0 
C 365 12 646 12 813 12 
C 979 12 1267 12 1421 0 
L 1421 166 
C 1011 166 986 192 986 443 
L 986 1678 
C 986 2269 1344 2713 1792 2713 
C 2266 2713 2317 2289 2317 1980 
L 2317 443 
C 2317 198 2291 166 1882 166 
L 1882 0 
C 2035 12 2317 12 2483 12 
C 2650 12 2938 12 3091 0 
z
" transform="scale(0.015625)"/>
      </defs>
      <use xlink:href="#LMRoman17-Regular-70" transform="scale(0.996264)"/>
      <use xlink:href="#LMRoman17-Regular-61" transform="translate(50.897088 0) scale(0.996264)"/>
      <use xlink:href="#LMRoman17-Regular-74" transform="translate(96.588036 0) scale(0.996264)"/>
      <use xlink:href="#LMRoman17-Regular-68" transform="translate(131.869564 0) scale(0.996264)"/>
     </g>
    </g>
   </g>
   <g id="matplotlib.axis_2">
    <g id="ytick_1">
     <g id="line2d_1">
      <defs>
       <path id="m29da453c34" d="M 0 0 
L -3.5 0 
" style="stroke: #000000; stroke-width: 0.8"/>
      </defs>
      <g>
       <use xlink:href="#m29da453c34" x="69.370122" y="145.915869" style="stroke: #000000; stroke-width: 0.8"/>
      </g>
     </g>
     <g id="text_2">
      <!-- $|v_-\rangle$ -->
      <g transform="translate(20.479589 154.882245) scale(0.24 -0.24)">
       <defs>
        <path id="LMMathSymbols10-Regular-6a" d="M 1018 -1389 
L 1018 4589 
C 1018 4678 1018 4800 890 4800 
C 762 4800 762 4678 762 4589 
L 762 -1389 
C 762 -1479 762 -1600 890 -1600 
C 1018 -1600 1018 -1479 1018 -1389 
z
" transform="scale(0.015625)"/>
        <path id="LMMathItalic12-Regular-76" d="M 2925 2388 
C 2925 2790 2720 2816 2669 2816 
C 2515 2816 2374 2662 2374 2534 
C 2374 2458 2419 2413 2445 2388 
C 2509 2330 2675 2158 2675 1826 
C 2675 1557 2291 63 1523 63 
C 1133 63 1056 389 1056 625 
C 1056 944 1203 1391 1376 1851 
C 1478 2113 1504 2177 1504 2305 
C 1504 2573 1312 2816 998 2816 
C 410 2816 173 1890 173 1838 
C 173 1813 198 1781 243 1781 
C 301 1781 307 1807 333 1896 
C 486 2445 736 2688 979 2688 
C 1037 2688 1146 2688 1146 2477 
C 1146 2311 1075 2126 979 1883 
C 672 1066 672 868 672 715 
C 672 574 691 312 890 133 
C 1120 -64 1440 -64 1498 -64 
C 2560 -64 2925 2024 2925 2388 
z
" transform="scale(0.015625)"/>
        <path id="LMMathSymbols10-Regular-0" d="M 4442 1600 
C 4442 1728 4320 1728 4230 1728 
L 742 1728 
C 653 1728 531 1728 531 1600 
C 531 1472 653 1472 742 1472 
L 4230 1472 
C 4320 1472 4442 1472 4442 1600 
z
" transform="scale(0.015625)"/>
        <path id="LMMathSymbols10-Regular-69" d="M 1779 1600 
C 1779 1600 1779 1638 1747 1715 
L 627 4659 
C 595 4736 576 4800 486 4800 
C 416 4800 358 4742 358 4672 
C 358 4672 358 4633 390 4557 
L 1517 1600 
L 390 -1357 
C 358 -1434 358 -1472 358 -1472 
C 358 -1543 416 -1600 486 -1600 
C 570 -1600 595 -1543 621 -1472 
L 1747 1484 
C 1779 1561 1779 1600 1779 1600 
z
" transform="scale(0.015625)"/>
       </defs>
       <use xlink:href="#LMMathSymbols10-Regular-6a" transform="scale(0.996264)"/>
       <use xlink:href="#LMMathItalic12-Regular-76" transform="translate(27.674085 0) scale(0.996264)"/>
       <use xlink:href="#LMMathSymbols10-Regular-0" transform="translate(74.834665 -14.943915) scale(0.757155)"/>
       <use xlink:href="#LMMathSymbols10-Regular-69" transform="translate(134.222845 0) scale(0.996264)"/>
      </g>
     </g>
    </g>
    <g id="ytick_2">
     <g id="line2d_2">
      <g>
       <use xlink:href="#m29da453c34" x="69.370122" y="27.427348" style="stroke: #000000; stroke-width: 0.8"/>
      </g>
     </g>
     <g id="text_3">
      <!-- $|v_+\rangle$ -->
      <g transform="translate(19.44 36.393724) scale(0.24 -0.24)">
       <defs>
        <path id="CMR10-2b" d="M 2618 1472 
L 4403 1472 
C 4493 1472 4614 1472 4614 1600 
C 4614 1728 4493 1728 4403 1728 
L 2618 1728 
L 2618 3501 
C 2618 3590 2618 3712 2490 3712 
C 2362 3712 2362 3590 2362 3501 
L 2362 1728 
L 570 1728 
C 480 1728 358 1728 358 1600 
C 358 1472 480 1472 570 1472 
L 2362 1472 
L 2362 -308 
C 2362 -397 2362 -519 2490 -519 
C 2618 -519 2618 -397 2618 -308 
L 2618 1472 
z
" transform="scale(0.015625)"/>
       </defs>
       <use xlink:href="#LMMathSymbols10-Regular-6a" transform="scale(0.996264)"/>
       <use xlink:href="#LMMathItalic12-Regular-76" transform="translate(27.674085 0) scale(0.996264)"/>
       <use xlink:href="#CMR10-2b" transform="translate(75.781083 -14.943915) scale(0.788955)"/>
       <use xlink:href="#LMMathSymbols10-Regular-69" transform="translate(138.554456 0) scale(0.996264)"/>
      </g>
     </g>
    </g>
    <g id="text_4">
     <!-- $w$ -->
     <g transform="translate(43.626747 96.143192) rotate(-90) scale(0.3 -0.3)">
      <defs>
       <path id="LMMathItalic12-Regular-77" d="M 3936 798 
C 4083 1168 4320 2011 4320 2388 
C 4320 2777 4122 2816 4064 2816 
C 3910 2816 3770 2662 3770 2534 
C 3770 2458 3814 2413 3846 2388 
C 3904 2330 4070 2158 4070 1826 
C 4070 1609 3891 1008 3757 708 
C 3578 319 3341 63 3008 63 
C 2650 63 2534 331 2534 625 
C 2534 810 2592 1034 2618 1142 
L 2886 2215 
C 2918 2343 2976 2566 2976 2592 
C 2976 2688 2899 2752 2803 2752 
C 2618 2752 2573 2592 2534 2439 
L 2176 970 
C 2150 861 2150 791 2150 651 
C 2150 497 1946 255 1939 242 
C 1869 172 1766 63 1568 63 
C 1062 63 1062 542 1062 651 
C 1062 855 1107 1136 1395 1896 
C 1472 2094 1504 2177 1504 2305 
C 1504 2573 1312 2816 998 2816 
C 410 2816 173 1890 173 1838 
C 173 1813 198 1781 243 1781 
C 301 1781 307 1807 333 1896 
C 493 2458 742 2688 979 2688 
C 1043 2688 1146 2681 1146 2477 
C 1146 2445 1146 2311 1037 2030 
C 736 1232 672 970 672 727 
C 672 57 1222 -64 1549 -64 
C 1658 -64 1946 -64 2202 389 
C 2342 6 2739 -64 2982 -64 
C 3469 -64 3757 357 3936 798 
z
" transform="scale(0.015625)"/>
      </defs>
      <use xlink:href="#LMMathItalic12-Regular-77" transform="scale(0.996264)"/>
     </g>
    </g>
   </g>
   <g id="line2d_3">
    <path d="M 81.696935 141.983653 
L 83.550591 141.540163 
L 85.404247 140.856601 
L 87.257903 139.935574 
L 89.111559 138.782019 
L 90.965215 137.403112 
L 93.436756 135.230308 
L 95.908298 132.700721 
L 98.379839 129.846654 
L 101.469266 125.878572 
L 104.558693 121.538092 
L 108.266005 115.952518 
L 113.826973 107.094479 
L 125.566794 88.212723 
L 130.509877 80.737689 
L 134.835075 74.579461 
L 139.160272 68.816302 
L 143.485469 63.457382 
L 147.810667 58.493826 
L 152.135864 53.906675 
L 156.461062 49.673867 
L 160.786259 45.775671 
L 165.111456 42.198338 
L 169.436654 38.935963 
L 173.143966 36.391829 
L 176.851278 34.086372 
L 180.55859 32.028477 
L 184.265902 30.22918 
L 187.973214 28.700581 
L 191.062641 27.642271 
L 194.152068 26.786841 
L 197.241494 26.139932 
L 200.330921 25.70604 
L 203.420348 25.488293 
L 206.509774 25.488293 
L 209.599201 25.70604 
L 212.688628 26.139932 
L 215.778055 26.786841 
L 218.867481 27.642271 
L 221.956908 28.700581 
L 225.66422 30.22918 
L 229.371532 32.028477 
L 233.078844 34.086372 
L 236.786156 36.391829 
L 240.493468 38.935963 
L 244.818666 42.198338 
L 249.143863 45.775671 
L 253.469061 49.673867 
L 257.794258 53.906675 
L 262.119456 58.493826 
L 266.444653 63.457382 
L 270.76985 68.816302 
L 275.095048 74.579461 
L 279.420245 80.737689 
L 284.363328 88.212723 
L 289.924296 97.047939 
L 302.899888 117.852188 
L 306.6072 123.313812 
L 309.696627 127.514954 
L 312.786054 131.312055 
L 315.257595 134.008202 
L 317.729137 136.363137 
L 320.200678 138.347007 
L 322.054334 139.576582 
L 323.90799 140.575781 
L 325.761646 141.338904 
L 327.615302 141.86256 
L 328.233187 141.983653 
L 328.233187 141.983653 
" clip-path="url(#p57218c3240)" style="fill: none; stroke: #dc143c; stroke-width: 3; stroke-linecap: square"/>
   </g>
   <g id="line2d_4">
    <path d="M 81.696935 28.710636 
L 83.550591 29.015055 
L 85.404247 29.546648 
L 87.257903 30.381454 
L 88.493674 31.153489 
L 89.729444 32.13546 
L 90.965215 33.361746 
L 92.200986 34.867332 
L 93.436756 36.686409 
L 94.672527 38.850834 
L 95.908298 41.388509 
L 97.144069 44.321735 
L 98.379839 47.665623 
L 100.233495 53.462899 
L 102.087151 60.175429 
L 103.940807 67.726105 
L 106.412349 78.855911 
L 110.737546 99.843519 
L 113.826973 114.439287 
L 115.680629 122.414995 
L 117.534285 129.49163 
L 119.387941 135.458421 
L 120.623712 138.738661 
L 121.859482 141.42046 
L 123.095253 143.482377 
L 124.331024 144.914542 
L 124.948909 145.394428 
L 125.566794 145.718149 
L 126.18468 145.887451 
L 126.802565 145.904659 
L 127.42045 145.772637 
L 128.038336 145.494748 
L 128.656221 145.074819 
L 129.891992 143.826176 
L 131.127762 142.064872 
L 132.363533 139.833688 
L 133.599304 137.178692 
L 135.45296 132.507035 
L 137.306616 127.155262 
L 139.778157 119.241048 
L 143.485469 106.417469 
L 149.664323 84.892541 
L 152.75375 74.910609 
L 155.225291 67.539301 
L 157.696832 60.798699 
L 160.168374 54.733973 
L 162.639915 49.364925 
L 164.493571 45.794804 
L 166.347227 42.609106 
L 168.200883 39.796575 
L 170.054539 37.342116 
L 171.908195 35.227401 
L 173.761851 33.431422 
L 175.615507 31.930996 
L 177.469163 30.701257 
L 179.322819 29.716124 
L 181.176475 28.948756 
L 183.648017 28.217431 
L 186.119558 27.761194 
L 188.5911 27.518398 
L 191.680526 27.42741 
L 196.623609 27.542301 
L 204.656118 27.748753 
L 210.217087 27.654455 
L 219.485367 27.441387 
L 222.574793 27.616838 
L 225.046335 27.95885 
L 227.517876 28.54475 
L 229.371532 29.182023 
L 231.225188 30.018969 
L 233.078844 31.082684 
L 234.9325 32.399804 
L 236.786156 33.996058 
L 238.639812 35.895804 
L 240.493468 38.121554 
L 242.347124 40.693482 
L 244.200781 43.628902 
L 246.054437 46.941698 
L 247.908093 50.641701 
L 250.379634 56.185321 
L 252.851175 62.421778 
L 255.322717 69.325396 
L 257.794258 76.843843 
L 260.883685 86.974095 
L 265.208882 102.044856 
L 270.151965 119.241048 
L 272.623506 127.155262 
L 274.477162 132.507035 
L 276.330818 137.178692 
L 277.566589 139.833688 
L 278.80236 142.064872 
L 280.03813 143.826176 
L 281.273901 145.074819 
L 281.891787 145.494748 
L 282.509672 145.772637 
L 283.127557 145.904659 
L 283.745443 145.887451 
L 284.363328 145.718149 
L 284.981213 145.394428 
L 285.599099 144.914542 
L 286.834869 143.482377 
L 288.07064 141.42046 
L 289.306411 138.738661 
L 290.542181 135.458421 
L 291.777952 131.612884 
L 293.631608 124.885137 
L 295.485264 117.182923 
L 297.956805 105.815899 
L 305.989315 67.726105 
L 307.842971 60.175429 
L 309.696627 53.462899 
L 311.550283 47.665623 
L 313.403939 42.804547 
L 314.63971 40.071471 
L 315.87548 37.723597 
L 317.111251 35.735619 
L 318.347022 34.077453 
L 319.582793 32.715875 
L 320.818563 31.616113 
L 322.054334 30.743319 
L 323.290105 30.063896 
L 325.143761 29.339985 
L 326.997417 28.891416 
L 328.233187 28.710636 
L 328.233187 28.710636 
" clip-path="url(#p57218c3240)" style="fill: none; stroke: #008080; stroke-width: 3; stroke-linecap: square"/>
   </g>
   <g id="patch_3">
    <path d="M 69.370122 151.926786 
L 69.370122 19.44 
" style="fill: none; stroke: #000000; stroke-width: 0.8; stroke-linejoin: miter; stroke-linecap: square"/>
   </g>
   <g id="patch_4">
    <path d="M 340.56 151.926786 
L 340.56 19.44 
" style="fill: none; stroke: #000000; stroke-width: 0.8; stroke-linejoin: miter; stroke-linecap: square"/>
   </g>
   <g id="patch_5">
    <path d="M 69.370122 151.926786 
L 340.56 151.926786 
" style="fill: none; stroke: #000000; stroke-width: 0.8; stroke-linejoin: miter; stroke-linecap: square"/>
   </g>
   <g id="patch_6">
    <path d="M 69.370122 19.44 
L 340.56 19.44 
" style="fill: none; stroke: #000000; stroke-width: 0.8; stroke-linejoin: miter; stroke-linecap: square"/>
   </g>
   <g id="legend_1">
    <g id="patch_7">
     <path d="M 187.4091 105.541211 
L 323.76 105.541211 
Q 328.56 105.541211 328.56 100.741211 
L 328.56 36.24 
Q 328.56 31.44 323.76 31.44 
L 187.4091 31.44 
Q 182.6091 31.44 182.6091 36.24 
L 182.6091 100.741211 
Q 182.6091 105.541211 187.4091 105.541211 
z
" style="fill: #ffffff; opacity: 0.8; stroke: #cccccc; stroke-linejoin: miter"/>
    </g>
    <g id="line2d_5">
     <path d="M 192.2091 49.44 
L 216.2091 49.44 
L 240.2091 49.44 
" style="fill: none; stroke: #dc143c; stroke-width: 3; stroke-linecap: square"/>
    </g>
    <g id="text_5">
     <!-- $\varphi=0$ -->
     <g transform="translate(259.4091 57.84) scale(0.24 -0.24)">
      <defs>
       <path id="LMMathItalic12-Regular-27" d="M 3725 1807 
C 3725 1079 2906 281 1926 281 
C 1818 281 1722 281 1722 313 
C 1722 313 1830 926 1869 1066 
C 2074 1883 2560 2471 3117 2471 
C 3533 2471 3725 2158 3725 1807 
z
M 3885 1954 
C 3885 2343 3712 2816 3174 2816 
C 2253 2816 1862 1520 1504 319 
C 768 460 461 849 461 1277 
C 461 1449 595 2132 966 2592 
C 1037 2675 1037 2701 1037 2701 
C 1037 2752 973 2752 973 2752 
C 800 2752 314 1820 314 1213 
C 314 498 877 108 1395 -7 
L 1062 -1108 
C 1030 -1206 1030 -1219 1030 -1245 
C 1030 -1402 1197 -1408 1197 -1408 
C 1261 -1408 1376 -1382 1427 -1252 
C 1446 -1193 1626 -182 1651 -52 
C 1690 -58 1754 -64 1869 -64 
C 2918 -64 3885 945 3885 1954 
z
" transform="scale(0.015625)"/>
       <path id="CMR10-3d" d="M 4397 2111 
C 4493 2111 4614 2111 4614 2239 
C 4614 2368 4493 2368 4403 2368 
L 570 2368 
C 480 2368 358 2368 358 2239 
C 358 2111 480 2111 576 2111 
L 4397 2111 
z
M 4403 832 
C 4493 832 4614 832 4614 960 
C 4614 1088 4493 1088 4397 1088 
L 576 1088 
C 480 1088 358 1088 358 960 
C 358 832 480 832 570 832 
L 4403 832 
z
" transform="scale(0.015625)"/>
       <path id="LMRoman17-Regular-30" d="M 2688 2038 
C 2688 2430 2682 3099 2413 3613 
C 2176 4063 1798 4224 1466 4224 
C 1158 4224 768 4082 525 3620 
C 269 3137 243 2539 243 2038 
C 243 1671 250 1112 448 623 
C 723 -39 1216 -128 1466 -128 
C 1760 -128 2208 -7 2470 604 
C 2662 1048 2688 1568 2688 2038 
z
M 2278 2109 
C 2278 1691 2278 1176 2202 797 
C 2067 96 1690 -26 1466 -26 
C 1056 -26 813 328 723 816 
C 653 1196 653 1749 653 2109 
C 653 2604 653 3015 736 3407 
C 858 3954 1216 4121 1466 4121 
C 1728 4121 2067 3947 2189 3420 
C 2272 3054 2278 2623 2278 2109 
z
" transform="scale(0.015625)"/>
      </defs>
      <use xlink:href="#LMMathItalic12-Regular-27" transform="scale(0.996264)"/>
      <use xlink:href="#CMR10-3d" transform="translate(92.822372 0) scale(1.038107)"/>
      <use xlink:href="#LMRoman17-Regular-30" transform="translate(202.438077 0) scale(0.996264)"/>
     </g>
    </g>
    <g id="line2d_6">
     <path d="M 192.2091 82.890605 
L 216.2091 82.890605 
L 240.2091 82.890605 
" style="fill: none; stroke: #008080; stroke-width: 3; stroke-linecap: square"/>
    </g>
    <g id="text_6">
     <!-- $\varphi\neq0$ -->
     <g transform="translate(259.4091 91.290605) scale(0.24 -0.24)">
      <defs>
       <path id="LMMathSymbols10-Regular-36" d="M 4083 4479 
C 4083 4524 4045 4608 3955 4608 
C 3891 4608 3853 4569 3814 4491 
L 934 -1163 
C 896 -1241 890 -1254 890 -1279 
C 890 -1325 928 -1408 1018 -1408 
C 1082 -1408 1120 -1370 1158 -1292 
L 4038 4362 
C 4077 4440 4083 4453 4083 4479 
z
" transform="scale(0.015625)"/>
      </defs>
      <use xlink:href="#LMMathItalic12-Regular-27" transform="scale(0.996264)"/>
      <use xlink:href="#LMMathSymbols10-Regular-36" transform="translate(91.577072 0) scale(0.996264)"/>
      <use xlink:href="#CMR10-3d" transform="translate(92.822372 0) scale(1.038107)"/>
      <use xlink:href="#LMRoman17-Regular-30" transform="translate(202.438077 0) scale(0.996264)"/>
     </g>
    </g>
   </g>
  </g>
 </g>
 <defs>
  <clipPath id="p57218c3240">
   <rect x="69.370122" y="19.44" width="271.189878" height="132.486786"/>
  </clipPath>
 </defs>
</svg>
