<?xml version="1.0" encoding="utf-8" standalone="no"?>
<!DOCTYPE svg PUBLIC "-//W3C//DTD SVG 1.1//EN"
  "http://www.w3.org/Graphics/SVG/1.1/DTD/svg11.dtd">
<svg xmlns:xlink="http://www.w3.org/1999/xlink" width="684.432549pt" height="687.891936pt" viewBox="0 0 684.432549 687.891936" xmlns="http://www.w3.org/2000/svg" version="1.1">
 <metadata>
  <rdf:RDF xmlns:dc="http://purl.org/dc/elements/1.1/" xmlns:cc="http://creativecommons.org/ns#" xmlns:rdf="http://www.w3.org/1999/02/22-rdf-syntax-ns#">
   <cc:Work>
    <dc:type rdf:resource="http://purl.org/dc/dcmitype/StillImage"/>
    <dc:date>2025-06-25T10:06:01.887998</dc:date>
    <dc:format>image/svg+xml</dc:format>
    <dc:creator>
     <cc:Agent>
      <dc:title>Matplotlib v3.9.2, https://matplotlib.org/</dc:title>
     </cc:Agent>
    </dc:creator>
   </cc:Work>
  </rdf:RDF>
 </metadata>
 <defs>
  <style type="text/css">*{stroke-linejoin: round; stroke-linecap: butt}</style>
 </defs>
 <g id="figure_1">
  <g id="patch_1">
   <path d="M 0 687.891936 
L 684.432549 687.891936 
L 684.432549 0 
L 0 0 
z
" style="fill: #ffffff"/>
  </g>
  <g id="patch_2">
   <path d="M 7.2 672.48 
L 672.48 672.48 
L 672.48 7.2 
L 7.2 7.2 
z
" style="fill: #ffffff"/>
  </g>
  <g id="pane3d_1">
   <g id="patch_3">
    <path d="M 68.603718 413.812578 
L 420.564703 297.698189 
L 424.093691 43.411941 
L 54.140484 153.02359 
" style="fill: #ffffff; opacity: 0.5; stroke: #ffffff; stroke-linejoin: miter"/>
   </g>
  </g>
  <g id="pane3d_2">
   <g id="patch_4">
    <path d="M 420.564703 297.698189 
L 638.982246 505.937596 
L 654.516577 240.349359 
L 424.093691 43.411941 
" style="fill: #ffffff; opacity: 0.5; stroke: #ffffff; stroke-linejoin: miter"/>
   </g>
  </g>
  <g id="pane3d_3">
   <g id="patch_5">
    <path d="M 68.603718 413.812578 
L 267.131394 642.865105 
L 638.982246 505.937596 
L 420.564703 297.698189 
" style="fill: #ffffff; opacity: 0.5; stroke: #ffffff; stroke-linejoin: miter"/>
   </g>
  </g>
  <g id="axis3d_1">
   <g id="line2d_1">
    <path d="M 68.603718 413.812578 
L 267.131394 642.865105 
" style="fill: none; stroke: #000000; stroke-width: 0.8; stroke-linecap: square"/>
   </g>
   <g id="xtick_1">
    <g id="line2d_2">
     <path d="M 71.549878 412.84062 
L 62.704786 415.758677 
" style="fill: none; stroke: #000000; stroke-width: 0.8; stroke-linecap: square"/>
    </g>
    <g id="text_1">
     <!-- $-\pi$ -->
     <g transform="translate(40.895188 442.411931) scale(0.24 -0.24)">
      <defs>
       <path id="LMMathSymbols10-Regular-0" d="M 4442 1600 
C 4442 1728 4320 1728 4230 1728 
L 742 1728 
C 653 1728 531 1728 531 1600 
C 531 1472 653 1472 742 1472 
L 4230 1472 
C 4320 1472 4442 1472 4442 1600 
z
" transform="scale(0.015625)"/>
       <path id="LMMathItalic12-Regular-19" d="M 3539 2611 
C 3539 2752 3418 2752 3302 2752 
L 1197 2752 
C 1050 2752 832 2752 538 2438 
C 371 2253 166 1914 166 1876 
C 166 1838 198 1825 237 1825 
C 282 1825 288 1844 320 1883 
C 653 2406 986 2406 1146 2406 
L 1510 2406 
C 1370 1927 1210 1372 685 255 
C 634 153 634 140 634 101 
C 634 -33 749 -64 806 -64 
C 992 -64 1043 101 1120 370 
C 1222 695 1222 708 1286 963 
L 1658 2406 
L 2381 2406 
C 2208 1691 2099 1225 2099 714 
C 2099 625 2099 -64 2362 -64 
C 2496 -64 2611 57 2611 165 
C 2611 197 2611 210 2566 306 
C 2394 746 2394 1295 2394 1340 
C 2394 1378 2394 1831 2528 2406 
L 3245 2406 
C 3328 2406 3539 2406 3539 2611 
z
" transform="scale(0.015625)"/>
      </defs>
      <use xlink:href="#LMMathSymbols10-Regular-0" transform="scale(0.996264)"/>
      <use xlink:href="#LMMathItalic12-Regular-19" transform="translate(77.487468 0) scale(0.996264)"/>
     </g>
    </g>
   </g>
   <g id="xtick_2">
    <g id="line2d_3">
     <path d="M 270.25618 641.714458 
L 260.87419 645.16921 
" style="fill: none; stroke: #000000; stroke-width: 0.8; stroke-linecap: square"/>
    </g>
    <g id="text_2">
     <!-- $\pi$ -->
     <g transform="translate(247.66811 672.524882) scale(0.24 -0.24)">
      <use xlink:href="#LMMathItalic12-Regular-19" transform="scale(0.996264)"/>
     </g>
    </g>
   </g>
   <g id="text_3">
    <!-- $\varphi$ -->
    <g transform="translate(125.20455 548.810491) rotate(-310.916595) scale(0.3 -0.3)">
     <defs>
      <path id="LMMathItalic12-Regular-27" d="M 3725 1807 
C 3725 1079 2906 281 1926 281 
C 1818 281 1722 281 1722 313 
C 1722 313 1830 926 1869 1066 
C 2074 1883 2560 2471 3117 2471 
C 3533 2471 3725 2158 3725 1807 
z
M 3885 1954 
C 3885 2343 3712 2816 3174 2816 
C 2253 2816 1862 1520 1504 319 
C 768 460 461 849 461 1277 
C 461 1449 595 2132 966 2592 
C 1037 2675 1037 2701 1037 2701 
C 1037 2752 973 2752 973 2752 
C 800 2752 314 1820 314 1213 
C 314 498 877 108 1395 -7 
L 1062 -1108 
C 1030 -1206 1030 -1219 1030 -1245 
C 1030 -1402 1197 -1408 1197 -1408 
C 1261 -1408 1376 -1382 1427 -1252 
C 1446 -1193 1626 -182 1651 -52 
C 1690 -58 1754 -64 1869 -64 
C 2918 -64 3885 945 3885 1954 
z
" transform="scale(0.015625)"/>
     </defs>
     <use xlink:href="#LMMathItalic12-Regular-27" transform="scale(0.996264)"/>
    </g>
   </g>
  </g>
  <g id="axis3d_2">
   <g id="line2d_4">
    <path d="M 638.982246 505.937596 
L 267.131394 642.865105 
" style="fill: none; stroke: #000000; stroke-width: 0.8; stroke-linecap: square"/>
   </g>
   <g id="xtick_3">
    <g id="line2d_5">
     <path d="M 265.404524 640.872718 
L 270.592443 646.858311 
" style="fill: none; stroke: #000000; stroke-width: 0.8; stroke-linecap: square"/>
    </g>
    <g id="text_4">
     <!-- 0 -->
     <g transform="translate(268.970895 676.041331) scale(0.24 -0.24)">
      <defs>
       <path id="LMRoman17-Regular-30" d="M 2688 2038 
C 2688 2430 2682 3099 2413 3613 
C 2176 4063 1798 4224 1466 4224 
C 1158 4224 768 4082 525 3620 
C 269 3137 243 2539 243 2038 
C 243 1671 250 1112 448 623 
C 723 -39 1216 -128 1466 -128 
C 1760 -128 2208 -7 2470 604 
C 2662 1048 2688 1568 2688 2038 
z
M 2278 2109 
C 2278 1691 2278 1176 2202 797 
C 2067 96 1690 -26 1466 -26 
C 1056 -26 813 328 723 816 
C 653 1196 653 1749 653 2109 
C 653 2604 653 3015 736 3407 
C 858 3954 1216 4121 1466 4121 
C 1728 4121 2067 3947 2189 3420 
C 2272 3054 2278 2623 2278 2109 
z
" transform="scale(0.015625)"/>
      </defs>
      <use xlink:href="#LMRoman17-Regular-30" transform="scale(0.996264)"/>
     </g>
    </g>
   </g>
   <g id="xtick_4">
    <g id="line2d_6">
     <path d="M 517.253742 548.2198 
L 522.786888 553.819227 
" style="fill: none; stroke: #000000; stroke-width: 0.8; stroke-linecap: square"/>
    </g>
    <g id="text_5">
     <!-- $1$ -->
     <g transform="translate(520.975452 582.603892) scale(0.24 -0.24)">
      <defs>
       <path id="LMRoman17-Regular-31" d="M 2458 0 
L 2458 166 
L 2266 166 
C 1715 166 1702 236 1702 467 
L 1702 4085 
C 1702 4217 1696 4224 1606 4224 
C 1357 3927 979 3833 621 3820 
C 602 3820 570 3820 563 3808 
C 557 3795 557 3782 557 3648 
C 755 3648 1088 3686 1344 3839 
L 1344 467 
C 1344 243 1331 166 781 166 
L 589 166 
L 589 0 
L 1523 12 
L 2458 0 
z
" transform="scale(0.015625)"/>
      </defs>
      <use xlink:href="#LMRoman17-Regular-31" transform="scale(0.996264)"/>
     </g>
    </g>
   </g>
   <g id="xtick_5">
    <g id="line2d_7">
     <path d="M 637.089742 504.133282 
L 642.774876 509.553492 
" style="fill: none; stroke: #000000; stroke-width: 0.8; stroke-linecap: square"/>
    </g>
    <g id="text_6">
     <!-- $1.5$ -->
     <g transform="translate(632.407048 538.148072) scale(0.24 -0.24)">
      <defs>
       <path id="LMRoman17-Regular-2e" d="M 1062 262 
C 1062 422 934 524 800 524 
C 672 524 538 422 538 262 
C 538 102 666 0 800 0 
C 928 0 1062 102 1062 262 
z
" transform="scale(0.015625)"/>
       <path id="LMRoman17-Regular-35" d="M 2669 1260 
C 2669 2028 2170 2624 1549 2624 
C 1222 2624 947 2502 730 2271 
L 730 3692 
C 794 3667 1056 3584 1325 3584 
C 1920 3584 2246 3904 2432 4119 
C 2432 4183 2432 4224 2394 4224 
C 2394 4224 2374 4224 2323 4191 
C 2099 4071 1837 3974 1517 3974 
C 1325 3993 1037 4019 723 4160 
C 653 4224 634 4224 634 4224 
C 602 4192 595 4185 595 4057 
L 595 2206 
C 595 2092 595 2061 659 2061 
C 691 2061 704 2074 736 2118 
C 941 2401 1222 2521 1542 2521 
C 1766 2521 2246 2382 2246 1304 
C 2246 1103 2246 735 2054 441 
C 1894 166 1645 25 1370 25 
C 947 25 518 334 403 832 
C 429 806 480 793 506 793 
C 589 793 749 838 749 1036 
C 749 1209 627 1280 506 1280 
C 358 1280 262 1190 262 1011 
C 262 454 704 -128 1382 -128 
C 2042 -128 2669 441 2669 1267 
L 2669 1260 
z
" transform="scale(0.015625)"/>
      </defs>
      <use xlink:href="#LMRoman17-Regular-31" transform="scale(0.996264)"/>
      <use xlink:href="#LMRoman17-Regular-2e" transform="translate(45.690948 0) scale(0.996264)"/>
      <use xlink:href="#LMRoman17-Regular-35" transform="translate(70.562965 0) scale(0.996264)"/>
     </g>
    </g>
   </g>
   <g id="text_7">
    <!-- $\eta/g$ -->
    <g transform="translate(453.664155 623.945039) rotate(-20.215339) scale(0.3 -0.3)">
     <defs>
      <path id="LMMathItalic12-Regular-11" d="M 3040 1768 
C 3072 1896 3091 1973 3091 2145 
C 3091 2528 2867 2816 2381 2816 
C 1811 2816 1510 2413 1395 2253 
C 1376 2617 1114 2816 832 2816 
C 646 2816 499 2726 378 2483 
C 262 2253 173 1864 173 1838 
C 173 1813 198 1781 243 1781 
C 294 1781 301 1787 339 1934 
C 435 2311 557 2688 813 2688 
C 960 2688 1011 2586 1011 2394 
C 1011 2253 947 2004 902 1807 
L 723 1117 
L 595 593 
C 550 427 480 127 480 95 
C 480 6 550 -64 646 -64 
C 723 -64 813 -26 864 70 
C 877 102 934 325 966 453 
L 1107 1028 
L 1318 1870 
C 1331 1909 1491 2228 1728 2432 
C 1894 2586 2112 2688 2362 2688 
C 2618 2688 2707 2496 2707 2241 
C 2707 2056 2682 1953 2650 1832 
L 1907 -1133 
C 1901 -1166 1888 -1205 1888 -1245 
C 1888 -1343 1965 -1408 2061 -1408 
C 2118 -1408 2253 -1382 2304 -1186 
L 3040 1768 
z
" transform="scale(0.015625)"/>
      <path id="URWPalladioL-Roma-2f" d="M 3322 4646 
L 2938 4646 
L 557 -762 
L 941 -762 
L 3322 4646 
z
" transform="scale(0.015625)"/>
      <path id="LMMathItalic12-Regular-67" d="M 2163 811 
C 2138 709 2125 683 2042 587 
C 1779 249 1510 128 1312 128 
C 1101 128 902 294 902 734 
C 902 1072 1094 1788 1235 2075 
C 1421 2432 1709 2688 1978 2688 
C 2400 2688 2483 2164 2483 2126 
L 2464 2037 
L 2163 811 
z
M 2259 -421 
L 2970 2432 
C 2989 2509 2989 2535 2989 2535 
C 2989 2624 2918 2694 2822 2694 
C 2669 2694 2579 2566 2560 2394 
C 2477 2579 2298 2816 1978 2816 
C 1280 2816 486 1941 486 989 
C 486 325 890 0 1299 0 
C 1638 0 1939 268 2054 396 
C 1946 -32 1946 -44 1914 -176 
C 1824 -521 1786 -678 1555 -898 
C 1293 -1155 1050 -1155 909 -1155 
C 717 -1155 557 -1142 397 -1092 
C 602 -1036 653 -860 653 -791 
C 653 -691 576 -590 435 -590 
C 282 -590 115 -716 115 -923 
C 115 -1180 378 -1280 922 -1280 
C 1747 -1280 2176 -760 2259 -421 
z
" transform="scale(0.015625)"/>
     </defs>
     <use xlink:href="#LMMathItalic12-Regular-11" transform="scale(0.996264)"/>
     <use xlink:href="#URWPalladioL-Roma-2f" transform="translate(52.949115 0) scale(0.996264)"/>
     <use xlink:href="#LMMathItalic12-Regular-67" transform="translate(114.56802 0) scale(0.996264)"/>
    </g>
   </g>
  </g>
  <g id="axis3d_3">
   <g id="line2d_8">
    <path d="M 638.982246 505.937596 
L 654.516577 240.349359 
" style="fill: none; stroke: #000000; stroke-width: 0.8; stroke-linecap: square"/>
   </g>
   <g id="xtick_6">
    <g id="line2d_9">
     <path d="M 637.089742 504.133282 
L 642.774876 509.553492 
" style="fill: none; stroke: #000000; stroke-width: 0.8; stroke-linecap: square"/>
    </g>
    <g id="text_8">
     <!-- -1 -->
     <g transform="translate(649.514067 525.44313) scale(0.24 -0.24)">
      <defs>
       <path id="LMRoman17-Regular-2d" d="M 1632 1254 
L 1632 1536 
L 26 1536 
L 26 1254 
L 1632 1254 
z
" transform="scale(0.015625)"/>
      </defs>
      <use xlink:href="#LMRoman17-Regular-2d" transform="scale(0.996264)"/>
      <use xlink:href="#LMRoman17-Regular-31" transform="translate(30.07624 0) scale(0.996264)"/>
     </g>
    </g>
   </g>
   <g id="xtick_7">
    <g id="line2d_10">
     <path d="M 649.296817 293.984063 
L 655.248836 299.193093 
" style="fill: none; stroke: #000000; stroke-width: 0.8; stroke-linecap: square"/>
    </g>
    <g id="text_9">
     <!-- 1 -->
     <g transform="translate(666.266728 315.100087) scale(0.24 -0.24)">
      <use xlink:href="#LMRoman17-Regular-31" transform="scale(0.996264)"/>
     </g>
    </g>
   </g>
   <g id="text_10">
    <!-- $\mathrm{\Delta}/g$ -->
    <g transform="translate(696.541237 411.727246) rotate(-86.652567) scale(0.3 -0.3)">
     <defs>
      <path id="LMRoman17-Regular-1" d="M 4698 32 
C 4698 32 4672 96 4666 108 
L 2598 4434 
C 2547 4544 2522 4544 2470 4544 
C 2394 4544 2387 4531 2342 4441 
L 269 108 
C 262 96 237 32 237 32 
C 237 6 243 0 358 0 
L 4576 0 
C 4691 0 4698 6 4698 32 
z
M 4083 358 
L 531 358 
L 2310 4055 
L 4083 358 
z
" transform="scale(0.015625)"/>
     </defs>
     <use xlink:href="#LMRoman17-Regular-1" transform="scale(0.996264)"/>
     <use xlink:href="#URWPalladioL-Roma-2f" transform="translate(78.167459 0) scale(0.996264)"/>
     <use xlink:href="#LMMathItalic12-Regular-67" transform="translate(139.786363 0) scale(0.996264)"/>
    </g>
   </g>
  </g>
  <g id="axes_1">
   <g id="Poly3DCollection_1">
    <path d="M 304.758202 87.392702 
L 305.829612 93.483023 
L 306.898792 99.430535 
L 307.965848 105.238475 
L 309.03088 110.910016 
L 310.093987 116.448271 
L 311.155266 121.856286 
L 312.214811 127.137053 
L 313.272712 132.293503 
L 314.329058 137.328509 
L 315.383936 142.244891 
L 316.437429 147.045415 
L 317.48962 151.732793 
L 318.540588 156.309687 
L 319.59041 160.778708 
L 320.639161 165.142418 
L 321.686915 169.403332 
L 322.733743 173.563917 
L 323.779713 177.626595 
L 324.824893 181.593744 
L 325.869348 185.467697 
L 326.913142 189.250744 
L 327.956335 192.945133 
L 328.998988 196.553072 
L 330.041159 200.076729 
L 331.082904 203.518229 
L 332.124278 206.879662 
L 333.165333 210.163077 
L 334.206122 213.370488 
L 335.246693 216.503871 
L 336.287096 219.565166 
L 337.327376 222.556276 
L 338.36758 225.47907 
L 339.407751 228.335385 
L 340.447932 231.12702 
L 341.488163 233.855742 
L 342.528485 236.523286 
L 343.568936 239.131354 
L 344.609552 241.681616 
L 345.650371 244.175709 
L 346.691427 246.61524 
L 347.732752 249.001786 
L 348.77438 251.336891 
L 349.816341 253.622071 
L 350.858665 255.858811 
L 351.901382 258.048567 
L 352.944519 260.192765 
L 353.988102 262.292802 
L 355.032158 264.350048 
L 356.076712 266.365843 
L 357.121786 268.341499 
L 358.167404 270.2783 
L 359.213589 272.177502 
L 360.26036 274.040333 
L 361.307737 275.867996 
L 362.355742 277.661664 
L 363.404391 279.422484 
L 364.453702 281.151576 
L 365.503692 282.850033 
L 366.554378 284.518923 
L 367.605775 286.159285 
L 368.657897 287.772134 
L 369.710759 289.358456 
L 370.764374 290.919214 
L 371.818754 292.455342 
L 372.873913 293.967751 
L 373.929861 295.457323 
L 374.986609 296.924917 
L 376.044168 298.371364 
L 377.102548 299.797472 
L 378.161758 301.20402 
L 379.221808 302.591764 
L 380.282705 303.961434 
L 381.344459 305.313734 
L 382.407076 306.649343 
L 383.470565 307.968914 
L 384.534932 309.273076 
L 385.600185 310.562431 
L 386.666328 311.837556 
L 387.73337 313.099005 
L 388.801315 314.347303 
L 389.87017 315.582953 
L 390.93994 316.806431 
L 392.01063 318.018188 
L 393.082246 319.21865 
L 394.154793 320.408218 
L 395.228276 321.587268 
L 396.302699 322.756148 
L 397.378069 323.915186 
L 398.454389 325.064679 
L 399.531665 326.204903 
L 400.609902 327.336107 
L 401.689104 328.458515 
L 402.769277 329.572326 
L 403.850427 330.677712 
L 404.932558 331.774821 
L 406.015677 332.863777 
L 407.099788 333.944677 
L 408.184899 335.017592 
L 409.271015 336.082568 
L 410.358142 337.139627 
L 411.446289 338.188765 
L 412.535461 339.22995 
L 413.625667 340.263129 
L 414.716915 341.288218 
L 415.809213 342.305113 
L 416.902569 343.31368 
L 417.996993 344.313762 
L 419.092496 345.305175 
L 420.189086 346.287709 
L 421.286776 347.26113 
L 422.385577 348.225177 
L 423.4855 349.179562 
L 424.586559 350.123973 
L 425.688768 351.058072 
L 426.792139 351.981493 
L 427.896689 352.893847 
L 429.002433 353.794715 
L 430.109388 354.683657 
L 431.21757 355.560202 
L 432.326999 356.423854 
L 433.437693 357.274094 
L 434.549672 358.110371 
L 435.662957 358.932112 
L 436.777571 359.738716 
L 437.893536 360.529555 
L 439.010877 361.303974 
L 440.129618 362.061293 
L 441.249786 362.800803 
L 442.371408 363.521769 
L 443.494514 364.22343 
L 444.619132 364.904995 
L 445.745294 365.565648 
L 446.873033 366.204546 
L 448.002382 366.820816 
L 449.133376 367.41356 
L 450.266053 367.981851 
L 451.400449 368.524733 
L 452.536605 369.041224 
L 453.674561 369.530312 
L 454.81436 369.990958 
L 455.956046 370.422094 
L 457.099665 370.822621 
L 458.245264 371.191415 
L 459.392892 371.52732 
L 460.542601 371.82915 
L 461.694443 372.095693 
L 462.848472 372.325703 
L 464.004745 372.517906 
L 465.163321 372.670998 
L 466.324259 372.783642 
L 467.487623 372.854473 
L 468.653476 372.882092 
L 469.821884 372.86507 
L 470.992918 372.801947 
L 472.166647 372.691227 
L 473.343145 372.531385 
L 474.522487 372.320862 
L 475.704751 372.058064 
L 476.890018 371.741364 
L 478.07837 371.369102 
L 479.269892 370.939581 
L 480.464673 370.451069 
L 481.662803 369.9018 
L 482.864374 369.28997 
L 484.069485 368.613738 
L 485.278232 367.871225 
L 486.490718 367.060516 
L 487.707048 366.179654 
L 488.92733 365.226646 
L 490.151674 364.199455 
L 491.380195 363.096007 
L 492.613011 361.914183 
L 493.850241 360.651823 
L 495.09201 359.306724 
L 496.338447 357.876636 
L 497.589681 356.359268 
L 498.845849 354.75228 
L 500.10709 353.053286 
L 501.373545 351.25985 
L 502.645361 349.369489 
L 503.92269 347.379669 
L 505.205687 345.287803 
L 506.49451 343.091254 
L 507.789323 340.787327 
L 509.090295 338.373274 
L 510.397598 335.84629 
L 511.711409 333.203512 
L 513.031912 330.442016 
L 514.359294 327.558816 
L 515.693747 324.550865 
L 517.03547 321.41505 
L 518.384665 318.14819 
L 519.741542 314.747038 
L 521.106316 311.208274 
L 522.479208 307.528508 
L 523.860444 303.704273 
L 525.250257 299.732026 
L 526.648887 295.608144 
L 528.056581 291.328925 
L 517.630868 592.379271 
L 516.649115 586.404382 
L 515.661909 580.550323 
L 514.669401 574.815339 
L 513.67174 569.197663 
L 512.669072 563.695524 
L 511.661543 558.307143 
L 510.649295 553.030734 
L 509.632471 547.86451 
L 508.61121 542.806677 
L 507.585651 537.855442 
L 506.555928 533.00901 
L 505.522177 528.265583 
L 504.484529 523.623369 
L 503.443115 519.080573 
L 502.398062 514.635405 
L 501.349497 510.286078 
L 500.297543 506.030811 
L 499.242324 501.867825 
L 498.183958 497.795351 
L 497.122564 493.811625 
L 496.058258 489.91489 
L 494.991153 486.103399 
L 493.921361 482.375415 
L 492.848992 478.72921 
L 491.774153 475.163065 
L 490.69695 471.675277 
L 489.617485 468.26415 
L 488.53586 464.928005 
L 487.452175 461.665175 
L 486.366526 458.474005 
L 485.279008 455.352857 
L 484.189713 452.300109 
L 483.098734 449.31415 
L 482.006158 446.393392 
L 480.912073 443.536257 
L 479.816562 440.741189 
L 478.719709 438.006648 
L 477.621594 435.331111 
L 476.522296 432.713076 
L 475.421892 430.151058 
L 474.320456 427.643591 
L 473.218061 425.189231 
L 472.114778 422.786552 
L 471.010676 420.43415 
L 469.905822 418.13064 
L 468.800281 415.874659 
L 467.694118 413.664866 
L 466.587392 411.499942 
L 465.480164 409.378587 
L 464.372493 407.299526 
L 463.264434 405.261505 
L 462.156041 403.263295 
L 461.047369 401.303687 
L 459.938467 399.381496 
L 458.829386 397.495562 
L 457.720174 395.644745 
L 456.610876 393.827932 
L 455.501537 392.044032 
L 454.392202 390.291979 
L 453.28291 388.57073 
L 452.173704 386.879267 
L 451.064621 385.216596 
L 449.955698 383.581748 
L 448.846972 381.973778 
L 447.738478 380.391766 
L 446.630248 378.834818 
L 445.522314 377.302061 
L 444.414707 375.792652 
L 443.307457 374.30577 
L 442.200591 372.840619 
L 441.094137 371.39643 
L 439.98812 369.972457 
L 438.882565 368.567982 
L 437.777495 367.182309 
L 436.672934 365.81477 
L 435.568901 364.464721 
L 434.465418 363.131544 
L 433.362504 361.814647 
L 432.260178 360.513462 
L 431.158457 359.227448 
L 430.057357 357.956088 
L 428.956894 356.698892 
L 427.857084 355.455395 
L 426.75794 354.225156 
L 425.659475 353.007763 
L 424.561702 351.802825 
L 423.464633 350.609981 
L 422.368278 349.428893 
L 421.272649 348.259249 
L 420.177755 347.100762 
L 419.083606 345.953172 
L 417.990208 344.816243 
L 416.897572 343.689766 
L 415.805704 342.573555 
L 414.714611 341.467452 
L 413.6243 340.371323 
L 412.534777 339.285061 
L 411.446047 338.208581 
L 410.358116 337.141828 
L 409.270989 336.084768 
L 408.18467 335.037395 
L 407.099163 333.999728 
L 406.014473 332.971811 
L 404.930604 331.953712 
L 403.847558 330.945526 
L 402.765339 329.947372 
L 401.683951 328.959395 
L 400.603397 327.981765 
L 399.523678 327.014676 
L 398.444799 326.058348 
L 397.366761 325.113025 
L 396.289568 324.178979 
L 395.213223 323.256502 
L 394.137727 322.345916 
L 393.063084 321.447563 
L 391.989297 320.561813 
L 390.916369 319.68906 
L 389.844302 318.829723 
L 388.7731 317.984244 
L 387.702766 317.153091 
L 386.633304 316.336757 
L 385.564718 315.535757 
L 384.497011 314.750633 
L 383.430188 313.98195 
L 382.364253 313.230298 
L 381.299212 312.496289 
L 380.235069 311.780562 
L 379.17183 311.083779 
L 378.109502 310.406624 
L 377.04809 309.749808 
L 375.987601 309.114063 
L 374.928043 308.500146 
L 373.869424 307.908837 
L 372.811751 307.340939 
L 371.755034 306.797281 
L 370.699282 306.278711 
L 369.644505 305.786103 
L 368.590713 305.320352 
L 367.537917 304.882378 
L 366.48613 304.473122 
L 365.435363 304.093547 
L 364.385631 303.74464 
L 363.336946 303.427409 
L 362.289323 303.142883 
L 361.242777 302.892116 
L 360.197325 302.67618 
L 359.152984 302.496171 
L 358.10977 302.353204 
L 357.067703 302.248417 
L 356.026801 302.182967 
L 354.987085 302.158033 
L 353.948576 302.174814 
L 352.911296 302.234527 
L 351.875267 302.338411 
L 350.840514 302.487724 
L 349.80706 302.683743 
L 348.774933 302.927763 
L 347.744157 303.221099 
L 346.714761 303.565083 
L 345.686774 303.961066 
L 344.660225 304.410415 
L 343.635145 304.914516 
L 342.611565 305.474771 
L 341.589519 306.092597 
L 340.569039 306.76943 
L 339.550163 307.506719 
L 338.532924 308.305929 
L 337.517361 309.168541 
L 336.503511 310.096048 
L 335.491415 311.089958 
L 334.481112 312.151792 
L 333.472644 313.283085 
L 332.466055 314.485383 
L 331.461388 315.760244 
L 330.458688 317.109237 
L 329.458002 318.533942 
L 328.459378 320.035949 
L 327.462863 321.616858 
L 326.468508 323.278276 
L 325.476364 325.021822 
L 324.486483 326.849117 
L 323.498919 328.761795 
L 322.513726 330.761491 
L 321.530961 332.84985 
L 320.550679 335.028518 
L 319.57294 337.299147 
L 318.597802 339.663393 
L 317.625327 342.122913 
L 316.655575 344.679367 
L 315.68861 347.334416 
L 314.724497 350.089721 
L 313.763299 352.946941 
L 312.805083 355.907737 
L 311.849917 358.973764 
L 310.89787 362.146676 
L 309.94901 365.428123 
L 309.00341 368.819749 
L 308.061139 372.323194 
L 307.122272 375.940088 
z
" clip-path="url(#p2b2d0e2ec3)" style="fill: #eacda5; fill-opacity: 0.9"/>
   </g>
   <g id="Poly3DCollection_2">
    <path d="M 307.122272 375.940088 
L 308.061139 372.323194 
L 309.00341 368.819749 
L 309.94901 365.428123 
L 310.89787 362.146676 
L 311.849917 358.973764 
L 312.805083 355.907737 
L 313.763299 352.946941 
L 314.724497 350.089721 
L 315.68861 347.334416 
L 316.655575 344.679367 
L 317.625327 342.122913 
L 318.597802 339.663393 
L 319.57294 337.299147 
L 320.550679 335.028518 
L 321.530961 332.84985 
L 322.513726 330.761491 
L 323.498919 328.761795 
L 324.486483 326.849117 
L 325.476364 325.021822 
L 326.468508 323.278276 
L 327.462863 321.616858 
L 328.459378 320.035949 
L 329.458002 318.533942 
L 330.458688 317.109237 
L 331.461388 315.760244 
L 332.466055 314.485383 
L 333.472644 313.283085 
L 334.481112 312.151792 
L 335.491415 311.089958 
L 336.503511 310.096048 
L 337.517361 309.168541 
L 338.532924 308.305929 
L 339.550163 307.506719 
L 340.569039 306.76943 
L 341.589519 306.092597 
L 342.611565 305.474771 
L 343.635145 304.914516 
L 344.660225 304.410415 
L 345.686774 303.961066 
L 346.714761 303.565083 
L 347.744157 303.221099 
L 348.774933 302.927763 
L 349.80706 302.683743 
L 350.840514 302.487724 
L 351.875267 302.338411 
L 352.911296 302.234527 
L 353.948576 302.174814 
L 354.987085 302.158033 
L 356.026801 302.182967 
L 357.067703 302.248417 
L 358.10977 302.353204 
L 359.152984 302.496171 
L 360.197325 302.67618 
L 361.242777 302.892116 
L 362.289323 303.142883 
L 363.336946 303.427409 
L 364.385631 303.74464 
L 365.435363 304.093547 
L 366.48613 304.473122 
L 367.537917 304.882378 
L 368.590713 305.320352 
L 369.644505 305.786103 
L 370.699282 306.278711 
L 371.755034 306.797281 
L 372.811751 307.340939 
L 373.869424 307.908837 
L 374.928043 308.500146 
L 375.987601 309.114063 
L 377.04809 309.749808 
L 378.109502 310.406624 
L 379.17183 311.083779 
L 380.235069 311.780562 
L 381.299212 312.496289 
L 382.364253 313.230298 
L 383.430188 313.98195 
L 384.497011 314.750633 
L 385.564718 315.535757 
L 386.633304 316.336757 
L 387.702766 317.153091 
L 388.7731 317.984244 
L 389.844302 318.829723 
L 390.916369 319.68906 
L 391.989297 320.561813 
L 393.063084 321.447563 
L 394.137727 322.345916 
L 395.213223 323.256502 
L 396.289568 324.178979 
L 397.366761 325.113025 
L 398.444799 326.058348 
L 399.523678 327.014676 
L 400.603397 327.981765 
L 401.683951 328.959395 
L 402.765339 329.947372 
L 403.847558 330.945526 
L 404.930604 331.953712 
L 406.014473 332.971811 
L 407.099163 333.999728 
L 408.18467 335.037395 
L 409.270989 336.084768 
L 410.358116 337.141828 
L 411.446047 338.208581 
L 412.534777 339.285061 
L 413.6243 340.371323 
L 414.714611 341.467452 
L 415.805704 342.573555 
L 416.897572 343.689766 
L 417.990208 344.816243 
L 419.083606 345.953172 
L 420.177755 347.100762 
L 421.272649 348.259249 
L 422.368278 349.428893 
L 423.464633 350.609981 
L 424.561702 351.802825 
L 425.659475 353.007763 
L 426.75794 354.225156 
L 427.857084 355.455395 
L 428.956894 356.698892 
L 430.057357 357.956088 
L 431.158457 359.227448 
L 432.260178 360.513462 
L 433.362504 361.814647 
L 434.465418 363.131544 
L 435.568901 364.464721 
L 436.672934 365.81477 
L 437.777495 367.182309 
L 438.882565 368.567982 
L 439.98812 369.972457 
L 441.094137 371.39643 
L 442.200591 372.840619 
L 443.307457 374.30577 
L 444.414707 375.792652 
L 445.522314 377.302061 
L 446.630248 378.834818 
L 447.738478 380.391766 
L 448.846972 381.973778 
L 449.955698 383.581748 
L 451.064621 385.216596 
L 452.173704 386.879267 
L 453.28291 388.57073 
L 454.392202 390.291979 
L 455.501537 392.044032 
L 456.610876 393.827932 
L 457.720174 395.644745 
L 458.829386 397.495562 
L 459.938467 399.381496 
L 461.047369 401.303687 
L 462.156041 403.263295 
L 463.264434 405.261505 
L 464.372493 407.299526 
L 465.480164 409.378587 
L 466.587392 411.499942 
L 467.694118 413.664866 
L 468.800281 415.874659 
L 469.905822 418.13064 
L 471.010676 420.43415 
L 472.114778 422.786552 
L 473.218061 425.189231 
L 474.320456 427.643591 
L 475.421892 430.151058 
L 476.522296 432.713076 
L 477.621594 435.331111 
L 478.719709 438.006648 
L 479.816562 440.741189 
L 480.912073 443.536257 
L 482.006158 446.393392 
L 483.098734 449.31415 
L 484.189713 452.300109 
L 485.279008 455.352857 
L 486.366526 458.474005 
L 487.452175 461.665175 
L 488.53586 464.928005 
L 489.617485 468.26415 
L 490.69695 471.675277 
L 491.774153 475.163065 
L 492.848992 478.72921 
L 493.921361 482.375415 
L 494.991153 486.103399 
L 496.058258 489.91489 
L 497.122564 493.811625 
L 498.183958 497.795351 
L 499.242324 501.867825 
L 500.297543 506.030811 
L 501.349497 510.286078 
L 502.398062 514.635405 
L 503.443115 519.080573 
L 504.484529 523.623369 
L 505.522177 528.265583 
L 506.555928 533.00901 
L 507.585651 537.855442 
L 508.61121 542.806677 
L 509.632471 547.86451 
L 510.649295 553.030734 
L 511.661543 558.307143 
L 512.669072 563.695524 
L 513.67174 569.197663 
L 514.669401 574.815339 
L 515.661909 580.550323 
L 516.649115 586.404382 
L 517.630868 592.379271 
L 517.354722 600.353192 
L 516.210041 599.172766 
L 515.066329 597.993338 
L 513.923585 596.814909 
L 512.781808 595.637477 
L 511.640996 594.46104 
L 510.501148 593.285597 
L 509.362263 592.111147 
L 508.224339 590.937689 
L 507.087376 589.765222 
L 505.951373 588.593744 
L 504.816327 587.423253 
L 503.682239 586.25375 
L 502.549106 585.085232 
L 501.416927 583.917698 
L 500.285702 582.751147 
L 499.155428 581.585578 
L 498.026106 580.42099 
L 496.897733 579.257381 
L 495.770309 578.094749 
L 494.643832 576.933095 
L 493.5183 575.772416 
L 492.393714 574.612712 
L 491.270071 573.45398 
L 490.147371 572.296221 
L 489.025612 571.139432 
L 487.904794 569.983613 
L 486.784914 568.828762 
L 485.665972 567.674878 
L 484.547966 566.52196 
L 483.430896 565.370006 
L 482.31476 564.219016 
L 481.199557 563.068988 
L 480.085286 561.919921 
L 478.971946 560.771814 
L 477.859535 559.624665 
L 476.748053 558.478474 
L 475.637497 557.333239 
L 474.527868 556.188959 
L 473.419164 555.045632 
L 472.311384 553.903258 
L 471.204526 552.761836 
L 470.098589 551.621364 
L 468.993573 550.481841 
L 467.889476 549.343265 
L 466.786297 548.205637 
L 465.684035 547.068954 
L 464.582688 545.933215 
L 463.482257 544.798419 
L 462.382738 543.664565 
L 461.284132 542.531652 
L 460.186437 541.399679 
L 459.089652 540.268644 
L 457.993776 539.138546 
L 456.898808 538.009385 
L 455.804746 536.881158 
L 454.71159 535.753865 
L 453.619338 534.627505 
L 452.527989 533.502076 
L 451.437543 532.377578 
L 450.347998 531.254009 
L 449.259352 530.131367 
L 448.171605 529.009653 
L 447.084756 527.888864 
L 445.998804 526.769 
L 444.913747 525.65006 
L 443.829584 524.532041 
L 442.746315 523.414944 
L 441.663938 522.298767 
L 440.582452 521.183508 
L 439.501855 520.069168 
L 438.422148 518.955744 
L 437.343329 517.843235 
L 436.265396 516.731641 
L 435.188348 515.62096 
L 434.112185 514.511191 
L 433.036906 513.402333 
L 431.962508 512.294385 
L 430.888992 511.187346 
L 429.816357 510.081214 
L 428.7446 508.975989 
L 427.673721 507.871669 
L 426.603719 506.768253 
L 425.534593 505.665741 
L 424.466341 504.56413 
L 423.398963 503.463421 
L 422.332458 502.363611 
L 421.266824 501.2647 
L 420.202061 500.166687 
L 419.138167 499.06957 
L 418.075142 497.973349 
L 417.012984 496.878022 
L 415.951692 495.783589 
L 414.891265 494.690047 
L 413.831702 493.597397 
L 412.773002 492.505636 
L 411.715164 491.414765 
L 410.658187 490.324781 
L 409.60207 489.235684 
L 408.546812 488.147473 
L 407.492412 487.060146 
L 406.438868 485.973702 
L 405.38618 484.888141 
L 404.334346 483.803462 
L 403.283367 482.719662 
L 402.233239 481.636742 
L 401.183964 480.5547 
L 400.135538 479.473535 
L 399.087963 478.393246 
L 398.041235 477.313832 
L 396.995355 476.235292 
L 395.950322 475.157624 
L 394.906134 474.080829 
L 393.86279 473.004904 
L 392.820289 471.929848 
L 391.778631 470.855661 
L 390.737814 469.782342 
L 389.697837 468.709889 
L 388.658699 467.638302 
L 387.6204 466.567579 
L 386.582938 465.497719 
L 385.546311 464.428722 
L 384.510521 463.360586 
L 383.475564 462.29331 
L 382.44144 461.226893 
L 381.408149 460.161334 
L 380.375688 459.096632 
L 379.344058 458.032787 
L 378.313257 456.969796 
L 377.283284 455.90766 
L 376.254138 454.846376 
L 375.225819 453.785945 
L 374.198324 452.726364 
L 373.171654 451.667633 
L 372.145806 450.609751 
L 371.120781 449.552717 
L 370.096578 448.49653 
L 369.073194 447.441188 
L 368.050629 446.386692 
L 367.028883 445.333039 
L 366.007954 444.280229 
L 364.987842 443.22826 
L 363.968544 442.177133 
L 362.950061 441.126845 
L 361.932391 440.077395 
L 360.915534 439.028784 
L 359.899488 437.981009 
L 358.884252 436.93407 
L 357.869826 435.887966 
L 356.856208 434.842696 
L 355.843398 433.798258 
L 354.831395 432.754652 
L 353.820197 431.711877 
L 352.809803 430.669931 
L 351.800214 429.628814 
L 350.791427 428.588525 
L 349.783441 427.549063 
L 348.776257 426.510427 
L 347.769872 425.472615 
L 346.764287 424.435627 
L 345.759499 423.399463 
L 344.755508 422.36412 
L 343.752313 421.329597 
L 342.749914 420.295895 
L 341.748308 419.263012 
L 340.747496 418.230947 
L 339.747476 417.199699 
L 338.748247 416.169266 
L 337.749809 415.139649 
L 336.75216 414.110846 
L 335.7553 413.082856 
L 334.759227 412.055679 
L 333.763941 411.029312 
L 332.76944 410.003756 
L 331.775725 408.979009 
L 330.782793 407.95507 
L 329.790644 406.931939 
L 328.799277 405.909614 
L 327.808692 404.888095 
L 326.818886 403.86738 
L 325.82986 402.847469 
L 324.841611 401.82836 
L 323.854141 400.810053 
L 322.867447 399.792547 
L 321.881528 398.77584 
L 320.896384 397.759932 
L 319.912014 396.744823 
L 318.928416 395.73051 
L 317.945591 394.716993 
L 316.963536 393.704271 
L 315.982252 392.692344 
L 315.001737 391.68121 
L 314.02199 390.670868 
L 313.043011 389.661317 
L 312.064798 388.652557 
L 311.08735 387.644586 
L 310.110667 386.637404 
L 309.134748 385.631009 
L 308.159592 384.625401 
L 307.185198 383.620579 
z
" clip-path="url(#p2b2d0e2ec3)" style="fill: #0f3455; fill-opacity: 0.9"/>
    <path d="M 304.758202 87.392702 
L 305.829612 93.483023 
L 306.898792 99.430535 
L 307.965848 105.238475 
L 309.03088 110.910016 
L 310.093987 116.448271 
L 311.155266 121.856286 
L 312.214811 127.137053 
L 313.272712 132.293503 
L 314.329058 137.328509 
L 315.383936 142.244891 
L 316.437429 147.045415 
L 317.48962 151.732793 
L 318.540588 156.309687 
L 319.59041 160.778708 
L 320.639161 165.142418 
L 321.686915 169.403332 
L 322.733743 173.563917 
L 323.779713 177.626595 
L 324.824893 181.593744 
L 325.869348 185.467697 
L 326.913142 189.250744 
L 327.956335 192.945133 
L 328.998988 196.553072 
L 330.041159 200.076729 
L 331.082904 203.518229 
L 332.124278 206.879662 
L 333.165333 210.163077 
L 334.206122 213.370488 
L 335.246693 216.503871 
L 336.287096 219.565166 
L 337.327376 222.556276 
L 338.36758 225.47907 
L 339.407751 228.335385 
L 340.447932 231.12702 
L 341.488163 233.855742 
L 342.528485 236.523286 
L 343.568936 239.131354 
L 344.609552 241.681616 
L 345.650371 244.175709 
L 346.691427 246.61524 
L 347.732752 249.001786 
L 348.77438 251.336891 
L 349.816341 253.622071 
L 350.858665 255.858811 
L 351.901382 258.048567 
L 352.944519 260.192765 
L 353.988102 262.292802 
L 355.032158 264.350048 
L 356.076712 266.365843 
L 357.121786 268.341499 
L 358.167404 270.2783 
L 359.213589 272.177502 
L 360.26036 274.040333 
L 361.307737 275.867996 
L 362.355742 277.661664 
L 363.404391 279.422484 
L 364.453702 281.151576 
L 365.503692 282.850033 
L 366.554378 284.518923 
L 367.605775 286.159285 
L 368.657897 287.772134 
L 369.710759 289.358456 
L 370.764374 290.919214 
L 371.818754 292.455342 
L 372.873913 293.967751 
L 373.929861 295.457323 
L 374.986609 296.924917 
L 376.044168 298.371364 
L 377.102548 299.797472 
L 378.161758 301.20402 
L 379.221808 302.591764 
L 380.282705 303.961434 
L 381.344459 305.313734 
L 382.407076 306.649343 
L 383.470565 307.968914 
L 384.534932 309.273076 
L 385.600185 310.562431 
L 386.666328 311.837556 
L 387.73337 313.099005 
L 388.801315 314.347303 
L 389.87017 315.582953 
L 390.93994 316.806431 
L 392.01063 318.018188 
L 393.082246 319.21865 
L 394.154793 320.408218 
L 395.228276 321.587268 
L 396.302699 322.756148 
L 397.378069 323.915186 
L 398.454389 325.064679 
L 399.531665 326.204903 
L 400.609902 327.336107 
L 401.689104 328.458515 
L 402.769277 329.572326 
L 403.850427 330.677712 
L 404.932558 331.774821 
L 406.015677 332.863777 
L 407.099788 333.944677 
L 408.184899 335.017592 
L 409.271015 336.082568 
L 410.358142 337.139627 
L 411.446289 338.188765 
L 412.535461 339.22995 
L 413.625667 340.263129 
L 414.716915 341.288218 
L 415.809213 342.305113 
L 416.902569 343.31368 
L 417.996993 344.313762 
L 419.092496 345.305175 
L 420.189086 346.287709 
L 421.286776 347.26113 
L 422.385577 348.225177 
L 423.4855 349.179562 
L 424.586559 350.123973 
L 425.688768 351.058072 
L 426.792139 351.981493 
L 427.896689 352.893847 
L 429.002433 353.794715 
L 430.109388 354.683657 
L 431.21757 355.560202 
L 432.326999 356.423854 
L 433.437693 357.274094 
L 434.549672 358.110371 
L 435.662957 358.932112 
L 436.777571 359.738716 
L 437.893536 360.529555 
L 439.010877 361.303974 
L 440.129618 362.061293 
L 441.249786 362.800803 
L 442.371408 363.521769 
L 443.494514 364.22343 
L 444.619132 364.904995 
L 445.745294 365.565648 
L 446.873033 366.204546 
L 448.002382 366.820816 
L 449.133376 367.41356 
L 450.266053 367.981851 
L 451.400449 368.524733 
L 452.536605 369.041224 
L 453.674561 369.530312 
L 454.81436 369.990958 
L 455.956046 370.422094 
L 457.099665 370.822621 
L 458.245264 371.191415 
L 459.392892 371.52732 
L 460.542601 371.82915 
L 461.694443 372.095693 
L 462.848472 372.325703 
L 464.004745 372.517906 
L 465.163321 372.670998 
L 466.324259 372.783642 
L 467.487623 372.854473 
L 468.653476 372.882092 
L 469.821884 372.86507 
L 470.992918 372.801947 
L 472.166647 372.691227 
L 473.343145 372.531385 
L 474.522487 372.320862 
L 475.704751 372.058064 
L 476.890018 371.741364 
L 478.07837 371.369102 
L 479.269892 370.939581 
L 480.464673 370.451069 
L 481.662803 369.9018 
L 482.864374 369.28997 
L 484.069485 368.613738 
L 485.278232 367.871225 
L 486.490718 367.060516 
L 487.707048 366.179654 
L 488.92733 365.226646 
L 490.151674 364.199455 
L 491.380195 363.096007 
L 492.613011 361.914183 
L 493.850241 360.651823 
L 495.09201 359.306724 
L 496.338447 357.876636 
L 497.589681 356.359268 
L 498.845849 354.75228 
L 500.10709 353.053286 
L 501.373545 351.25985 
L 502.645361 349.369489 
L 503.92269 347.379669 
L 505.205687 345.287803 
L 506.49451 343.091254 
L 507.789323 340.787327 
L 509.090295 338.373274 
L 510.397598 335.84629 
L 511.711409 333.203512 
L 513.031912 330.442016 
L 514.359294 327.558816 
L 515.693747 324.550865 
L 517.03547 321.41505 
L 518.384665 318.14819 
L 519.741542 314.747038 
L 521.106316 311.208274 
L 522.479208 307.528508 
L 523.860444 303.704273 
L 525.250257 299.732026 
L 526.648887 295.608144 
L 528.056581 291.328925 
L 528.368945 282.309168 
L 527.144516 281.195107 
L 525.921192 280.082051 
L 524.69897 278.969998 
L 523.477849 277.858947 
L 522.257829 276.748897 
L 521.038906 275.639846 
L 519.821081 274.531793 
L 518.60435 273.424736 
L 517.388714 272.318675 
L 516.17417 271.213608 
L 514.960717 270.109533 
L 513.748353 269.00645 
L 512.537077 267.904356 
L 511.326888 266.803251 
L 510.117784 265.703133 
L 508.909764 264.604002 
L 507.702825 263.505854 
L 506.496968 262.408691 
L 505.292189 261.312509 
L 504.088489 260.217307 
L 502.885864 259.123085 
L 501.684315 258.029841 
L 500.483839 256.937574 
L 499.284435 255.846282 
L 498.086102 254.755965 
L 496.888837 253.66662 
L 495.692641 252.578246 
L 494.497511 251.490843 
L 493.303445 250.404408 
L 492.110444 249.318941 
L 490.918504 248.234441 
L 489.727625 247.150905 
L 488.537805 246.068333 
L 487.349042 244.986724 
L 486.161336 243.906076 
L 484.974686 242.826387 
L 483.789088 241.747658 
L 482.604543 240.669885 
L 481.421049 239.593069 
L 480.238604 238.517207 
L 479.057206 237.442299 
L 477.876856 236.368343 
L 476.697551 235.295338 
L 475.519289 234.223283 
L 474.34207 233.152176 
L 473.165892 232.082017 
L 471.990753 231.012803 
L 470.816653 229.944534 
L 469.64359 228.877209 
L 468.471562 227.810825 
L 467.300569 226.745383 
L 466.130608 225.68088 
L 464.961678 224.617316 
L 463.793779 223.554689 
L 462.626908 222.492998 
L 461.461065 221.432241 
L 460.296248 220.372418 
L 459.132455 219.313528 
L 457.969685 218.255568 
L 456.807938 217.198539 
L 455.647211 216.142437 
L 454.487503 215.087264 
L 453.328813 214.033016 
L 452.17114 212.979693 
L 451.014482 211.927294 
L 449.858838 210.875818 
L 448.704206 209.825262 
L 447.550586 208.775627 
L 446.397975 207.726911 
L 445.246373 206.679112 
L 444.095778 205.63223 
L 442.946189 204.586263 
L 441.797605 203.54121 
L 440.650024 202.49707 
L 439.503445 201.453841 
L 438.357867 200.411523 
L 437.213288 199.370115 
L 436.069707 198.329614 
L 434.927123 197.29002 
L 433.785534 196.251332 
L 432.64494 195.213549 
L 431.505338 194.176668 
L 430.366728 193.140691 
L 429.229108 192.105613 
L 428.092477 191.071436 
L 426.956833 190.038158 
L 425.822176 189.005777 
L 424.688504 187.974292 
L 423.555816 186.943702 
L 422.424111 185.914007 
L 421.293387 184.885204 
L 420.163642 183.857292 
L 419.034877 182.830272 
L 417.907089 181.80414 
L 416.780277 180.778897 
L 415.654439 179.754541 
L 414.529576 178.731071 
L 413.405685 177.708485 
L 412.282765 176.686783 
L 411.160815 175.665963 
L 410.039833 174.646025 
L 408.919819 173.626967 
L 407.800771 172.608788 
L 406.682688 171.591486 
L 405.565568 170.575062 
L 404.449411 169.559513 
L 403.334215 168.544838 
L 402.219978 167.531037 
L 401.106701 166.518108 
L 399.99438 165.506051 
L 398.883016 164.494863 
L 397.772607 163.484544 
L 396.663151 162.475093 
L 395.554648 161.466508 
L 394.447096 160.458789 
L 393.340495 159.451934 
L 392.234842 158.445943 
L 391.130136 157.440813 
L 390.026377 156.436545 
L 388.923563 155.433137 
L 387.821693 154.430587 
L 386.720766 153.428895 
L 385.62078 152.42806 
L 384.521735 151.428081 
L 383.423628 150.428956 
L 382.32646 149.430684 
L 381.230228 148.433264 
L 380.134932 147.436696 
L 379.04057 146.440978 
L 377.947141 145.446109 
L 376.854644 144.452087 
L 375.763077 143.458913 
L 374.672441 142.466584 
L 373.582732 141.4751 
L 372.493951 140.484459 
L 371.406096 139.494661 
L 370.319165 138.505705 
L 369.233158 137.517589 
L 368.148074 136.530312 
L 367.06391 135.543873 
L 365.980667 134.558271 
L 364.898343 133.573506 
L 363.816937 132.589575 
L 362.736447 131.606479 
L 361.656872 130.624215 
L 360.578212 129.642784 
L 359.500465 128.662183 
L 358.42363 127.682411 
L 357.347706 126.703469 
L 356.272691 125.725354 
L 355.198585 124.748066 
L 354.125386 123.771603 
L 353.053093 122.795965 
L 351.981705 121.82115 
L 350.911221 120.847157 
L 349.84164 119.873986 
L 348.77296 118.901635 
L 347.705181 117.930104 
L 346.638301 116.959391 
L 345.57232 115.989495 
L 344.507235 115.020415 
L 343.443047 114.05215 
L 342.379753 113.0847 
L 341.317353 112.118062 
L 340.255845 111.152237 
L 339.195229 110.187223 
L 338.135503 109.223018 
L 337.076666 108.259623 
L 336.018717 107.297036 
L 334.961655 106.335256 
L 333.905479 105.374281 
L 332.850188 104.414112 
L 331.79578 103.454747 
L 330.742255 102.496184 
L 329.689611 101.538424 
L 328.637847 100.581464 
L 327.586963 99.625304 
L 326.536956 98.669944 
L 325.487827 97.715381 
L 324.439573 96.761615 
L 323.392194 95.808645 
L 322.345689 94.85647 
L 321.300057 93.905089 
L 320.255295 92.9545 
L 319.211405 92.004704 
L 318.168383 91.055699 
L 317.12623 90.107483 
L 316.084944 89.160057 
L 315.044524 88.213418 
L 314.004969 87.267567 
L 312.966278 86.322502 
L 311.92845 85.378221 
L 310.891483 84.434725 
L 309.855378 83.492012 
L 308.820131 82.550081 
L 307.785744 81.608931 
L 306.752214 80.668561 
L 305.71954 79.728971 
L 304.687721 78.790159 
z
" clip-path="url(#p2b2d0e2ec3)" style="fill: #0f3455; fill-opacity: 0.9"/>
   </g>
   <g id="Poly3DCollection_3">
    <path d="M 60.410822 313.448256 
L 65.080813 313.301596 
L 69.757204 313.152749 
L 74.438895 313.002062 
L 79.124786 312.84988 
L 83.81378 312.69655 
L 88.504782 312.542417 
L 93.196698 312.387829 
L 97.888437 312.233131 
L 102.57891 312.078671 
L 107.267032 311.924794 
L 111.951722 311.771846 
L 116.6319 311.620173 
L 121.306493 311.470118 
L 125.974431 311.322028 
L 130.634648 311.176243 
L 135.286084 311.033109 
L 139.927683 310.892965 
L 144.558396 310.756154 
L 149.177178 310.623014 
L 153.78299 310.493884 
L 158.374801 310.369102 
L 162.951585 310.249003 
L 167.512323 310.133921 
L 172.056003 310.02419 
L 176.581621 309.92014 
L 181.088179 309.822102 
L 185.574688 309.730403 
L 190.040166 309.64537 
L 194.483641 309.567325 
L 198.904146 309.496593 
L 203.300726 309.433491 
L 207.672433 309.378339 
L 212.018328 309.331452 
L 216.337483 309.293143 
L 220.628976 309.263723 
L 224.891899 309.243501 
L 229.12535 309.232783 
L 233.328438 309.231873 
L 237.500284 309.24107 
L 241.640017 309.260675 
L 245.746779 309.290981 
L 249.819719 309.332282 
L 253.857999 309.384868 
L 257.860794 309.449024 
L 261.827286 309.525036 
L 265.756671 309.613184 
L 269.648156 309.713745 
L 273.50096 309.826994 
L 277.314311 309.953203 
L 281.087452 310.09264 
L 284.819638 310.245568 
L 288.510133 310.412251 
L 292.158216 310.592945 
L 295.763177 310.787906 
L 299.324319 310.997384 
L 302.840958 311.221628 
L 306.312422 311.46088 
L 309.738051 311.715381 
L 313.117199 311.985368 
L 316.449234 312.271073 
L 319.733533 312.572726 
L 322.969492 312.890553 
L 326.156514 313.224774 
L 329.294021 313.575607 
L 332.381444 313.943266 
L 335.418229 314.327961 
L 338.403838 314.729897 
L 341.337742 315.149277 
L 344.21943 315.586297 
L 347.048401 316.041152 
L 349.824171 316.514031 
L 352.546268 317.005119 
L 355.214234 317.514597 
L 357.827627 318.042643 
L 360.386016 318.589428 
L 362.888987 319.155122 
L 365.336138 319.739889 
L 367.727082 320.343887 
L 370.061446 320.967273 
L 372.338873 321.610198 
L 374.559018 322.272808 
L 376.721552 322.955245 
L 378.826159 323.657647 
L 380.872539 324.380147 
L 382.860406 325.122874 
L 384.789487 325.885951 
L 386.659527 326.669499 
L 388.470282 327.473632 
L 390.221525 328.298461 
L 391.913043 329.144091 
L 393.544637 330.010623 
L 395.116124 330.898154 
L 396.627334 331.806776 
L 398.078115 332.736574 
L 399.468326 333.687632 
L 400.797843 334.660026 
L 402.066556 335.65383 
L 403.274371 336.669111 
L 404.421208 337.705932 
L 405.507002 338.764352 
L 406.531702 339.844423 
L 407.495274 340.946194 
L 408.397698 342.069708 
L 409.238969 343.215004 
L 410.019095 344.382116 
L 410.738102 345.571071 
L 411.39603 346.781895 
L 411.992934 348.014606 
L 412.528882 349.269217 
L 413.00396 350.545736 
L 413.418268 351.844169 
L 413.771919 353.164513 
L 414.065045 354.506762 
L 414.29779 355.870904 
L 414.470313 357.256923 
L 414.582789 358.664796 
L 414.635408 360.094498 
L 414.628376 361.545996 
L 414.561911 363.019253 
L 414.436248 364.514227 
L 414.251637 366.03087 
L 414.008343 367.569129 
L 413.706645 369.128947 
L 413.346839 370.710262 
L 412.929232 372.313003 
L 412.454151 373.937099 
L 411.921934 375.58247 
L 411.332935 377.249033 
L 410.687523 378.936698 
L 409.986083 380.645371 
L 409.229012 382.374953 
L 408.416724 384.125337 
L 407.549647 385.896415 
L 406.628224 387.688071 
L 405.652912 389.500184 
L 404.624184 391.332628 
L 403.542526 393.185271 
L 402.408439 395.057978 
L 401.22244 396.950607 
L 399.985057 398.863009 
L 398.696837 400.795034 
L 397.358337 402.746522 
L 395.970131 404.717313 
L 394.532807 406.707236 
L 393.046966 408.716119 
L 391.513224 410.743783 
L 389.93221 412.790044 
L 388.30457 414.854712 
L 386.63096 416.937595 
L 384.912052 419.038491 
L 383.148531 421.157196 
L 381.341097 423.2935 
L 379.490462 425.447188 
L 377.597353 427.618039 
L 375.662508 429.805828 
L 373.68668 432.010324 
L 371.670636 434.231292 
L 369.615155 436.468491 
L 367.521029 438.721675 
L 365.389062 440.990592 
L 363.220073 443.274988 
L 361.014892 445.574601 
L 358.774362 447.889165 
L 356.499339 450.21841 
L 354.190689 452.56206 
L 351.849292 454.919834 
L 349.47604 457.291447 
L 347.071837 459.67661 
L 344.637596 462.075027 
L 342.174246 464.486398 
L 339.682723 466.910421 
L 337.163977 469.346785 
L 334.618968 471.795177 
L 332.048665 474.255281 
L 329.454052 476.726772 
L 326.836118 479.209326 
L 324.195868 481.70261 
L 321.534311 484.20629 
L 318.852471 486.720026 
L 316.151379 489.243473 
L 313.432074 491.776286 
L 310.695609 494.318111 
L 307.94304 496.868592 
L 305.175435 499.427371 
L 302.393872 501.994084 
L 299.599433 504.568363 
L 296.79321 507.149837 
L 293.976304 509.738133 
L 291.149822 512.332872 
L 288.314877 514.933673 
L 285.472591 517.540151 
L 282.624091 520.151918 
L 279.770512 522.768583 
L 276.912993 525.389752 
L 274.05268 528.015028 
L 271.190724 530.644011 
L 268.328281 533.276298 
L 265.466512 535.911485 
L 262.606581 538.549163 
L 645.002586 403.008703 
L 643.786283 401.895771 
L 642.571025 400.783795 
L 641.356811 399.672774 
L 640.143639 398.562707 
L 638.931507 397.453592 
L 637.720415 396.345428 
L 636.51036 395.238214 
L 635.301343 394.131948 
L 634.093361 393.02663 
L 632.886413 391.922258 
L 631.680498 390.818831 
L 630.475614 389.716348 
L 629.27176 388.614808 
L 628.068936 387.514208 
L 626.867138 386.414549 
L 625.666367 385.315829 
L 624.46662 384.218047 
L 623.267898 383.121201 
L 622.070197 382.02529 
L 620.873517 380.930314 
L 619.677857 379.83627 
L 618.483215 378.743158 
L 617.28959 377.650977 
L 616.096981 376.559725 
L 614.905386 375.469402 
L 613.714804 374.380005 
L 612.525234 373.291534 
L 611.336675 372.203988 
L 610.149125 371.117366 
L 608.962583 370.031665 
L 607.777047 368.946886 
L 606.592517 367.863027 
L 605.408991 366.780086 
L 604.226468 365.698063 
L 603.044947 364.616957 
L 601.864425 363.536766 
L 600.684903 362.457489 
L 599.506379 361.379124 
L 598.328851 360.301672 
L 597.152318 359.225131 
L 595.976779 358.149498 
L 594.802233 357.074775 
L 593.628678 356.000958 
L 592.456114 354.928047 
L 591.284538 353.856042 
L 590.113951 352.78494 
L 588.944349 351.71474 
L 587.775733 350.645442 
L 586.608101 349.577045 
L 585.441451 348.509546 
L 584.275783 347.442946 
L 583.111096 346.377243 
L 581.947387 345.312435 
L 580.784656 344.248522 
L 579.622901 343.185503 
L 578.462122 342.123376 
L 577.302317 341.06214 
L 576.143485 340.001795 
L 574.985624 338.942338 
L 573.828734 337.88377 
L 572.672813 336.826088 
L 571.517859 335.769292 
L 570.363873 334.713381 
L 569.210852 333.658353 
L 568.058796 332.604207 
L 566.907702 331.550943 
L 565.757571 330.498559 
L 564.6084 329.447053 
L 563.460189 328.396426 
L 562.312936 327.346676 
L 561.16664 326.297802 
L 560.0213 325.249802 
L 558.876915 324.202675 
L 557.733483 323.156422 
L 556.591004 322.111039 
L 555.449476 321.066527 
L 554.308897 320.022884 
L 553.169268 318.980109 
L 552.030586 317.938202 
L 550.89285 316.89716 
L 549.75606 315.856983 
L 548.620213 314.81767 
L 547.48531 313.779219 
L 546.351348 312.741631 
L 545.218327 311.704903 
L 544.086245 310.669034 
L 542.955101 309.634024 
L 541.824895 308.599871 
L 540.695624 307.566575 
L 539.567288 306.534134 
L 538.439885 305.502547 
L 537.313415 304.471813 
L 536.187876 303.441931 
L 535.063267 302.4129 
L 533.939587 301.384719 
L 532.816834 300.357388 
L 531.695009 299.330904 
L 530.574109 298.305266 
L 529.454133 297.280475 
L 528.33508 296.256528 
L 527.216949 295.233425 
L 526.099739 294.211165 
L 524.983449 293.189746 
L 523.868078 292.169168 
L 522.753624 291.149429 
L 521.640087 290.130529 
L 520.527464 289.112466 
L 519.415756 288.095239 
L 518.304961 287.078848 
L 517.195077 286.063292 
L 516.086105 285.048568 
L 514.978042 284.034677 
L 513.870887 283.021617 
L 512.76464 282.009388 
L 511.659299 280.997988 
L 510.554863 279.987416 
L 509.451332 278.977671 
L 508.348703 277.968752 
L 507.246976 276.960659 
L 506.146149 275.953389 
L 505.046223 274.946943 
L 503.947195 273.941319 
L 502.849064 272.936516 
L 501.751829 271.932533 
L 500.65549 270.92937 
L 499.560045 269.927024 
L 498.465493 268.925496 
L 497.371833 267.924784 
L 496.279063 266.924886 
L 495.187184 265.925803 
L 494.096193 264.927534 
L 493.006089 263.930076 
L 491.916872 262.933429 
L 490.828541 261.937593 
L 489.741094 260.942566 
L 488.65453 259.948347 
L 487.568848 258.954935 
L 486.484048 257.962329 
L 485.400127 256.970529 
L 484.317086 255.979533 
L 483.234922 254.98934 
L 482.153635 253.999949 
L 481.073224 253.01136 
L 479.993688 252.023572 
L 478.915025 251.036582 
L 477.837235 250.050391 
L 476.760316 249.064998 
L 475.684268 248.080401 
L 474.609089 247.096599 
L 473.534779 246.113592 
L 472.461336 245.131379 
L 471.388759 244.149958 
L 470.317048 243.169329 
L 469.2462 242.189491 
L 468.176216 241.210442 
L 467.107094 240.232182 
L 466.038832 239.254711 
L 464.971431 238.278026 
L 463.904889 237.302127 
L 462.839204 236.327013 
L 461.774377 235.352683 
L 460.710405 234.379136 
L 459.647289 233.406371 
L 458.585026 232.434388 
L 457.523615 231.463184 
L 456.463057 230.492761 
L 455.403349 229.523115 
L 454.344491 228.554247 
L 453.286481 227.586156 
L 452.22932 226.61884 
L 451.173004 225.652299 
L 450.117535 224.686531 
L 449.06291 223.721537 
L 448.009128 222.757314 
L 446.95619 221.793862 
L 445.904092 220.831181 
L 444.852836 219.869268 
L 443.802418 218.908124 
L 442.75284 217.947747 
L 441.704099 216.988136 
L 440.656194 216.029291 
L 439.609125 215.07121 
L 438.562891 214.113893 
L 437.51749 213.157338 
L 436.472921 212.201546 
L 435.429184 211.246514 
L 434.386278 210.292242 
L 433.344201 209.338729 
L 432.302953 208.385974 
L 431.262533 207.433977 
L 430.222939 206.482736 
L 429.18417 205.53225 
L 428.146226 204.582519 
L 427.109106 203.633542 
L 426.072809 202.685317 
L 425.037333 201.737845 
L 424.002678 200.791123 
L 422.968843 199.845151 
L 421.935826 198.899929 
z
" clip-path="url(#p2b2d0e2ec3)" style="fill: #eacda5; fill-opacity: 0.55"/>
   </g>
   <g id="Poly3DCollection_4">
    <path d="M 62.9922 312.630352 
L 63.925502 313.667849 
L 64.859579 314.706206 
L 65.794432 315.745427 
L 66.730062 316.785511 
L 67.66647 317.82646 
L 68.603657 318.868275 
L 69.541624 319.910957 
L 70.480371 320.954506 
L 71.419901 321.998925 
L 72.360213 323.044214 
L 73.301309 324.090374 
L 74.24319 325.137407 
L 75.185856 326.185313 
L 76.129309 327.234094 
L 77.07355 328.28375 
L 78.01858 329.334283 
L 78.964399 330.385694 
L 79.911009 331.437984 
L 80.85841 332.491153 
L 81.806605 333.545204 
L 82.755592 334.600138 
L 83.705375 335.655954 
L 84.655953 336.712655 
L 85.607328 337.770242 
L 86.5595 338.828715 
L 87.512471 339.888076 
L 88.466242 340.948326 
L 89.420814 342.009466 
L 90.376187 343.071498 
L 91.332362 344.134421 
L 92.289342 345.198238 
L 93.247126 346.26295 
L 94.205716 347.328557 
L 95.165112 348.395061 
L 96.125317 349.462463 
L 97.08633 350.530764 
L 98.048153 351.599965 
L 99.010787 352.670068 
L 99.974232 353.741073 
L 100.938491 354.812982 
L 101.903563 355.885795 
L 102.869451 356.959514 
L 103.836154 358.034141 
L 104.803674 359.109675 
L 105.772013 360.18612 
L 106.74117 361.263474 
L 107.711148 362.34174 
L 108.681946 363.420919 
L 109.653567 364.501012 
L 110.626011 365.582021 
L 111.59928 366.663945 
L 112.573374 367.746787 
L 113.548294 368.830548 
L 114.524042 369.915228 
L 115.500618 371.00083 
L 116.478023 372.087353 
L 117.45626 373.1748 
L 118.435328 374.263172 
L 119.415228 375.352469 
L 120.395963 376.442693 
L 121.377532 377.533845 
L 122.359938 378.625927 
L 123.34318 379.718939 
L 124.32726 380.812882 
L 125.31218 381.907758 
L 126.29794 383.003569 
L 127.284541 384.100314 
L 128.271984 385.197996 
L 129.260271 386.296616 
L 130.249402 387.396174 
L 131.239379 388.496672 
L 132.230203 389.598112 
L 133.221874 390.700494 
L 134.214394 391.803819 
L 135.207765 392.90809 
L 136.201986 394.013306 
L 137.197059 395.11947 
L 138.192986 396.226582 
L 139.189767 397.334644 
L 140.187403 398.443657 
L 141.185896 399.553623 
L 142.185247 400.664541 
L 143.185456 401.776414 
L 144.186526 402.889243 
L 145.188456 404.003029 
L 146.191248 405.117774 
L 147.194904 406.233478 
L 148.199423 407.350142 
L 149.204809 408.467769 
L 150.21106 409.586359 
L 151.21818 410.705914 
L 152.226168 411.826434 
L 153.235026 412.947922 
L 154.244755 414.070377 
L 155.255356 415.193802 
L 156.266831 416.318198 
L 157.27918 417.443566 
L 158.292405 418.569908 
L 159.306506 419.697224 
L 160.321485 420.825515 
L 161.337343 421.954784 
L 162.354081 423.085032 
L 163.371701 424.216258 
L 164.390203 425.348466 
L 165.409588 426.481656 
L 166.429858 427.61583 
L 167.451014 428.750988 
L 168.473057 429.887132 
L 169.495988 431.024264 
L 170.519809 432.162384 
L 171.54452 433.301494 
L 172.570123 434.441596 
L 173.596618 435.582689 
L 174.624008 436.724777 
L 175.652292 437.86786 
L 176.681473 439.011939 
L 177.711552 440.157016 
L 178.742529 441.303091 
L 179.774406 442.450167 
L 180.807184 443.598245 
L 181.840864 444.747326 
L 182.875447 445.89741 
L 183.910935 447.048501 
L 184.947329 448.200598 
L 185.98463 449.353704 
L 187.022839 450.507819 
L 188.061957 451.662944 
L 189.101986 452.819082 
L 190.142927 453.976234 
L 191.18478 455.1344 
L 192.227548 456.293583 
L 193.271231 457.453783 
L 194.31583 458.615002 
L 195.361347 459.777241 
L 196.407783 460.940502 
L 197.45514 462.104785 
L 198.503417 463.270093 
L 199.552618 464.436426 
L 200.602742 465.603787 
L 201.653791 466.772175 
L 202.705766 467.941594 
L 203.758669 469.112043 
L 204.812501 470.283525 
L 205.867262 471.45604 
L 206.922955 472.629591 
L 207.97958 473.804178 
L 209.037139 474.979803 
L 210.095632 476.156467 
L 211.155062 477.334172 
L 212.215429 478.512919 
L 213.276735 479.692709 
L 214.33898 480.873544 
L 215.402167 482.055425 
L 216.466296 483.238354 
L 217.531368 484.422332 
L 218.597386 485.60736 
L 219.664349 486.793439 
L 220.73226 487.980572 
L 221.80112 489.16876 
L 222.870929 490.358003 
L 223.94169 491.548304 
L 225.013403 492.739663 
L 226.08607 493.932083 
L 227.159692 495.125564 
L 228.23427 496.320109 
L 229.309805 497.515718 
L 230.3863 498.712392 
L 231.463754 499.910134 
L 232.54217 501.108945 
L 233.621549 502.308826 
L 234.701891 503.509778 
L 235.783199 504.711803 
L 236.865473 505.914903 
L 237.948715 507.119079 
L 239.032927 508.324332 
L 240.118108 509.530664 
L 241.204262 510.738076 
L 242.291389 511.94657 
L 243.37949 513.156147 
L 244.468566 514.366808 
L 245.55862 515.578556 
L 246.649652 516.791391 
L 247.741663 518.005315 
L 248.834656 519.22033 
L 249.92863 520.436436 
L 251.023589 521.653636 
L 252.119532 522.871931 
L 253.216462 524.091322 
L 254.314379 525.311811 
L 255.413285 526.533399 
L 256.513181 527.756088 
L 257.614069 528.97988 
L 258.715949 530.204775 
L 259.818824 531.430775 
L 260.922695 532.657882 
L 262.027563 533.886098 
L 263.133429 535.115423 
L 264.240294 536.345859 
L 265.348161 537.577409 
L 262.606581 538.549163 
L 265.466512 535.911485 
L 268.328281 533.276298 
L 271.190724 530.644011 
L 274.05268 528.015028 
L 276.912993 525.389752 
L 279.770512 522.768583 
L 282.624091 520.151918 
L 285.472591 517.540151 
L 288.314877 514.933673 
L 291.149822 512.332872 
L 293.976304 509.738133 
L 296.79321 507.149837 
L 299.599433 504.568363 
L 302.393872 501.994084 
L 305.175435 499.427371 
L 307.94304 496.868592 
L 310.695609 494.318111 
L 313.432074 491.776286 
L 316.151379 489.243473 
L 318.852471 486.720026 
L 321.534311 484.20629 
L 324.195868 481.70261 
L 326.836118 479.209326 
L 329.454052 476.726772 
L 332.048665 474.255281 
L 334.618968 471.795177 
L 337.163977 469.346785 
L 339.682723 466.910421 
L 342.174246 464.486398 
L 344.637596 462.075027 
L 347.071837 459.67661 
L 349.47604 457.291447 
L 351.849292 454.919834 
L 354.190689 452.56206 
L 356.499339 450.21841 
L 358.774362 447.889165 
L 361.014892 445.574601 
L 363.220073 443.274988 
L 365.389062 440.990592 
L 367.521029 438.721675 
L 369.615155 436.468491 
L 371.670636 434.231292 
L 373.68668 432.010324 
L 375.662508 429.805828 
L 377.597353 427.618039 
L 379.490462 425.447188 
L 381.341097 423.2935 
L 383.148531 421.157196 
L 384.912052 419.038491 
L 386.63096 416.937595 
L 388.30457 414.854712 
L 389.93221 412.790044 
L 391.513224 410.743783 
L 393.046966 408.716119 
L 394.532807 406.707236 
L 395.970131 404.717313 
L 397.358337 402.746522 
L 398.696837 400.795034 
L 399.985057 398.863009 
L 401.22244 396.950607 
L 402.408439 395.057978 
L 403.542526 393.185271 
L 404.624184 391.332628 
L 405.652912 389.500184 
L 406.628224 387.688071 
L 407.549647 385.896415 
L 408.416724 384.125337 
L 409.229012 382.374953 
L 409.986083 380.645371 
L 410.687523 378.936698 
L 411.332935 377.249033 
L 411.921934 375.58247 
L 412.454151 373.937099 
L 412.929232 372.313003 
L 413.346839 370.710262 
L 413.706645 369.128947 
L 414.008343 367.569129 
L 414.251637 366.03087 
L 414.436248 364.514227 
L 414.561911 363.019253 
L 414.628376 361.545996 
L 414.635408 360.094498 
L 414.582789 358.664796 
L 414.470313 357.256923 
L 414.29779 355.870904 
L 414.065045 354.506762 
L 413.771919 353.164513 
L 413.418268 351.844169 
L 413.00396 350.545736 
L 412.528882 349.269217 
L 411.992934 348.014606 
L 411.39603 346.781895 
L 410.738102 345.571071 
L 410.019095 344.382116 
L 409.238969 343.215004 
L 408.397698 342.069708 
L 407.495274 340.946194 
L 406.531702 339.844423 
L 405.507002 338.764352 
L 404.421208 337.705932 
L 403.274371 336.669111 
L 402.066556 335.65383 
L 400.797843 334.660026 
L 399.468326 333.687632 
L 398.078115 332.736574 
L 396.627334 331.806776 
L 395.116124 330.898154 
L 393.544637 330.010623 
L 391.913043 329.144091 
L 390.221525 328.298461 
L 388.470282 327.473632 
L 386.659527 326.669499 
L 384.789487 325.885951 
L 382.860406 325.122874 
L 380.872539 324.380147 
L 378.826159 323.657647 
L 376.721552 322.955245 
L 374.559018 322.272808 
L 372.338873 321.610198 
L 370.061446 320.967273 
L 367.727082 320.343887 
L 365.336138 319.739889 
L 362.888987 319.155122 
L 360.386016 318.589428 
L 357.827627 318.042643 
L 355.214234 317.514597 
L 352.546268 317.005119 
L 349.824171 316.514031 
L 347.048401 316.041152 
L 344.21943 315.586297 
L 341.337742 315.149277 
L 338.403838 314.729897 
L 335.418229 314.327961 
L 332.381444 313.943266 
L 329.294021 313.575607 
L 326.156514 313.224774 
L 322.969492 312.890553 
L 319.733533 312.572726 
L 316.449234 312.271073 
L 313.117199 311.985368 
L 309.738051 311.715381 
L 306.312422 311.46088 
L 302.840958 311.221628 
L 299.324319 310.997384 
L 295.763177 310.787906 
L 292.158216 310.592945 
L 288.510133 310.412251 
L 284.819638 310.245568 
L 281.087452 310.09264 
L 277.314311 309.953203 
L 273.50096 309.826994 
L 269.648156 309.713745 
L 265.756671 309.613184 
L 261.827286 309.525036 
L 257.860794 309.449024 
L 253.857999 309.384868 
L 249.819719 309.332282 
L 245.746779 309.290981 
L 241.640017 309.260675 
L 237.500284 309.24107 
L 233.328438 309.231873 
L 229.12535 309.232783 
L 224.891899 309.243501 
L 220.628976 309.263723 
L 216.337483 309.293143 
L 212.018328 309.331452 
L 207.672433 309.378339 
L 203.300726 309.433491 
L 198.904146 309.496593 
L 194.483641 309.567325 
L 190.040166 309.64537 
L 185.574688 309.730403 
L 181.088179 309.822102 
L 176.581621 309.92014 
L 172.056003 310.02419 
L 167.512323 310.133921 
L 162.951585 310.249003 
L 158.374801 310.369102 
L 153.78299 310.493884 
L 149.177178 310.623014 
L 144.558396 310.756154 
L 139.927683 310.892965 
L 135.286084 311.033109 
L 130.634648 311.176243 
L 125.974431 311.322028 
L 121.306493 311.470118 
L 116.6319 311.620173 
L 111.951722 311.771846 
L 107.267032 311.924794 
L 102.57891 312.078671 
L 97.888437 312.233131 
L 93.196698 312.387829 
L 88.504782 312.542417 
L 83.81378 312.69655 
L 79.124786 312.84988 
L 74.438895 313.002062 
L 69.757204 313.152749 
L 65.080813 313.301596 
L 60.410822 313.448256 
z
" clip-path="url(#p2b2d0e2ec3)" style="fill: #0f3455; fill-opacity: 0.9"/>
   </g>
   <g id="line2d_11">
    <path d="M 304.758202 87.392702 
L 307.965848 105.238475 
L 311.155266 121.856286 
L 314.329058 137.328509 
L 317.48962 151.732793 
L 320.639161 165.142418 
L 323.779713 177.626595 
L 326.913142 189.250744 
L 330.041159 200.076729 
L 333.165333 210.163077 
L 336.287096 219.565166 
L 339.407751 228.335385 
L 342.528485 236.523286 
L 345.650371 244.175709 
L 348.77438 251.336891 
L 351.901382 258.048567 
L 355.032158 264.350048 
L 358.167404 270.2783 
L 362.355742 277.661664 
L 366.554378 284.518923 
L 370.764374 290.919214 
L 374.986609 296.924917 
L 379.221808 302.591764 
L 384.534932 309.273076 
L 389.87017 315.582953 
L 395.228276 321.587268 
L 401.689104 328.458515 
L 408.184899 335.017592 
L 414.716915 341.288218 
L 421.286776 347.26113 
L 426.792139 351.981493 
L 432.326999 356.423854 
L 436.777571 359.738716 
L 441.249786 362.800803 
L 445.745294 365.565648 
L 449.133376 367.41356 
L 452.536605 369.041224 
L 455.956046 370.422094 
L 459.392892 371.52732 
L 462.848472 372.325703 
L 465.163321 372.670998 
L 467.487623 372.854473 
L 469.821884 372.86507 
L 472.166647 372.691227 
L 474.522487 372.320862 
L 476.890018 371.741364 
L 479.269892 370.939581 
L 481.662803 369.9018 
L 484.069485 368.613738 
L 486.490718 367.060516 
L 488.92733 365.226646 
L 491.380195 363.096007 
L 493.850241 360.651823 
L 496.338447 357.876636 
L 498.845849 354.75228 
L 501.373545 351.25985 
L 503.92269 347.379669 
L 506.49451 343.091254 
L 509.090295 338.373274 
L 511.711409 333.203512 
L 514.359294 327.558816 
L 517.03547 321.41505 
L 519.741542 314.747038 
L 522.479208 307.528508 
L 525.250257 299.732026 
L 528.056581 291.328925 
L 528.056581 291.328925 
" clip-path="url(#p2b2d0e2ec3)" style="fill: none; stroke: #000000; stroke-width: 4; stroke-linecap: square"/>
   </g>
   <g id="line2d_12">
    <path d="M 307.122272 375.940088 
L 309.94901 365.428123 
L 312.805083 355.907737 
L 315.68861 347.334416 
L 318.597802 339.663393 
L 320.550679 335.028518 
L 322.513726 330.761491 
L 324.486483 326.849117 
L 326.468508 323.278276 
L 328.459378 320.035949 
L 330.458688 317.109237 
L 332.466055 314.485383 
L 334.481112 312.151792 
L 336.503511 310.096048 
L 338.532924 308.305929 
L 340.569039 306.76943 
L 342.611565 305.474771 
L 344.660225 304.410415 
L 346.714761 303.565083 
L 348.774933 302.927763 
L 350.840514 302.487724 
L 352.911296 302.234527 
L 354.987085 302.158033 
L 357.067703 302.248417 
L 359.152984 302.496171 
L 362.289323 303.142883 
L 365.435363 304.093547 
L 368.590713 305.320352 
L 371.755034 306.797281 
L 374.928043 308.500146 
L 379.17183 311.083779 
L 383.430188 313.98195 
L 387.702766 317.153091 
L 393.063084 321.447563 
L 398.444799 326.058348 
L 404.930604 331.953712 
L 411.446047 338.208581 
L 417.990208 344.816243 
L 424.561702 351.802825 
L 430.057357 357.956088 
L 435.568901 364.464721 
L 441.094137 371.39643 
L 445.522314 377.302061 
L 449.955698 383.581748 
L 454.392202 390.291979 
L 458.829386 397.495562 
L 462.156041 403.263295 
L 465.480164 409.378587 
L 468.800281 415.874659 
L 472.114778 422.786552 
L 475.421892 430.151058 
L 478.719709 438.006648 
L 482.006158 446.393392 
L 485.279008 455.352857 
L 488.53586 464.928005 
L 491.774153 475.163065 
L 494.991153 486.103399 
L 498.183958 497.795351 
L 501.349497 510.286078 
L 504.484529 523.623369 
L 507.585651 537.855442 
L 510.649295 553.030734 
L 513.67174 569.197663 
L 516.649115 586.404382 
L 517.630868 592.379271 
L 517.630868 592.379271 
" clip-path="url(#p2b2d0e2ec3)" style="fill: none; stroke: #000000; stroke-width: 4; stroke-linecap: square"/>
   </g>
   <g id="line2d_13">
    <path d="M 60.410822 313.448256 
L 172.056003 310.02419 
L 198.904146 309.496593 
L 220.628976 309.263723 
L 241.640017 309.260675 
L 257.860794 309.449024 
L 273.50096 309.826994 
L 288.510133 310.412251 
L 302.840958 311.221628 
L 313.117199 311.985368 
L 322.969492 312.890553 
L 332.381444 313.943266 
L 341.337742 315.149277 
L 349.824171 316.514031 
L 357.827627 318.042643 
L 365.336138 319.739889 
L 372.338873 321.610198 
L 378.826159 323.657647 
L 382.860406 325.122874 
L 386.659527 326.669499 
L 390.221525 328.298461 
L 393.544637 330.010623 
L 396.627334 331.806776 
L 399.468326 333.687632 
L 402.066556 335.65383 
L 404.421208 337.705932 
L 406.531702 339.844423 
L 408.397698 342.069708 
L 410.019095 344.382116 
L 411.39603 346.781895 
L 412.528882 349.269217 
L 413.418268 351.844169 
L 414.065045 354.506762 
L 414.470313 357.256923 
L 414.635408 360.094498 
L 414.561911 363.019253 
L 414.251637 366.03087 
L 413.706645 369.128947 
L 412.929232 372.313003 
L 411.921934 375.58247 
L 410.687523 378.936698 
L 409.229012 382.374953 
L 407.549647 385.896415 
L 405.652912 389.500184 
L 402.408439 395.057978 
L 398.696837 400.795034 
L 394.532807 406.707236 
L 389.93221 412.790044 
L 384.912052 419.038491 
L 379.490462 425.447188 
L 373.68668 432.010324 
L 365.389062 440.990592 
L 356.499339 450.21841 
L 347.071837 459.67661 
L 334.618968 471.795177 
L 321.534311 484.20629 
L 305.175435 499.427371 
L 271.190724 530.644011 
L 262.606581 538.549163 
L 262.606581 538.549163 
" clip-path="url(#p2b2d0e2ec3)" style="fill: none; stroke: #000000; stroke-width: 4; stroke-linecap: square"/>
   </g>
  </g>
 </g>
 <defs>
  <clipPath id="p2b2d0e2ec3">
   <rect x="7.2" y="7.2" width="665.28" height="665.28"/>
  </clipPath>
 </defs>
</svg>
