<?xml version="1.0" encoding="utf-8" standalone="no"?>
<!DOCTYPE svg PUBLIC "-//W3C//DTD SVG 1.1//EN"
  "http://www.w3.org/Graphics/SVG/1.1/DTD/svg11.dtd">
<svg xmlns:xlink="http://www.w3.org/1999/xlink" width="460.8pt" height="273.6pt" viewBox="0 0 460.8 273.6" xmlns="http://www.w3.org/2000/svg" version="1.1">
 <metadata>
  <rdf:RDF xmlns:dc="http://purl.org/dc/elements/1.1/" xmlns:cc="http://creativecommons.org/ns#" xmlns:rdf="http://www.w3.org/1999/02/22-rdf-syntax-ns#">
   <cc:Work>
    <dc:type rdf:resource="http://purl.org/dc/dcmitype/StillImage"/>
    <dc:date>2025-06-25T13:35:26.793692</dc:date>
    <dc:format>image/svg+xml</dc:format>
    <dc:creator>
     <cc:Agent>
      <dc:title>Matplotlib v3.9.2, https://matplotlib.org/</dc:title>
     </cc:Agent>
    </dc:creator>
   </cc:Work>
  </rdf:RDF>
 </metadata>
 <defs>
  <style type="text/css">*{stroke-linejoin: round; stroke-linecap: butt}</style>
 </defs>
 <g id="figure_1">
  <g id="patch_1">
   <path d="M 0 273.6 
L 460.8 273.6 
L 460.8 0 
L 0 0 
z
" style="fill: #ffffff"/>
  </g>
  <g id="axes_1">
   <g id="patch_2">
    <path d="M 94.219306 194.977206 
L 364.064085 194.977206 
L 364.064085 27.607986 
L 94.219306 27.607986 
z
" style="fill: #ffffff"/>
   </g>
   <g id="patch_3">
    <path d="M 94.219306 194.977206 
L 271.014161 194.977206 
L 271.014161 27.607986 
L 94.219306 27.607986 
z
" clip-path="url(#p3bed4f1361)" style="fill: #0f3455; opacity: 0.2; stroke: #0f3455; stroke-linejoin: miter"/>
   </g>
   <g id="patch_4">
    <path d="M 271.014161 194.977206 
L 364.064085 194.977206 
L 364.064085 27.607986 
L 271.014161 27.607986 
z
" clip-path="url(#p3bed4f1361)" style="fill: #f3e1c0; opacity: 0.3; stroke: #f3e1c0; stroke-linejoin: miter"/>
   </g>
   <g id="matplotlib.axis_1">
    <g id="xtick_1">
     <g id="line2d_1">
      <defs>
       <path id="m14d4e5f6c9" d="M 0 0 
L 0 3.5 
" style="stroke: #000000; stroke-width: 0.8"/>
      </defs>
      <g>
       <use xlink:href="#m14d4e5f6c9" x="94.219306" y="194.977206" style="stroke: #000000; stroke-width: 0.8"/>
      </g>
     </g>
     <g id="text_1">
      <!-- 0 -->
      <g transform="translate(88.736396 218.313178) scale(0.24 -0.24)">
       <defs>
        <path id="LMRoman17-Regular-30" d="M 2688 2038 
C 2688 2430 2682 3099 2413 3613 
C 2176 4063 1798 4224 1466 4224 
C 1158 4224 768 4082 525 3620 
C 269 3137 243 2539 243 2038 
C 243 1671 250 1112 448 623 
C 723 -39 1216 -128 1466 -128 
C 1760 -128 2208 -7 2470 604 
C 2662 1048 2688 1568 2688 2038 
z
M 2278 2109 
C 2278 1691 2278 1176 2202 797 
C 2067 96 1690 -26 1466 -26 
C 1056 -26 813 328 723 816 
C 653 1196 653 1749 653 2109 
C 653 2604 653 3015 736 3407 
C 858 3954 1216 4121 1466 4121 
C 1728 4121 2067 3947 2189 3420 
C 2272 3054 2278 2623 2278 2109 
z
" transform="scale(0.015625)"/>
       </defs>
       <use xlink:href="#LMRoman17-Regular-30" transform="scale(0.996264)"/>
      </g>
     </g>
    </g>
    <g id="xtick_2">
     <g id="line2d_2">
      <g>
       <use xlink:href="#m14d4e5f6c9" x="271.014161" y="194.977206" style="stroke: #000000; stroke-width: 0.8"/>
      </g>
     </g>
     <g id="text_2">
      <!-- 1 -->
      <g transform="translate(265.53125 218.313178) scale(0.24 -0.24)">
       <defs>
        <path id="LMRoman17-Regular-31" d="M 2458 0 
L 2458 166 
L 2266 166 
C 1715 166 1702 236 1702 467 
L 1702 4085 
C 1702 4217 1696 4224 1606 4224 
C 1357 3927 979 3833 621 3820 
C 602 3820 570 3820 563 3808 
C 557 3795 557 3782 557 3648 
C 755 3648 1088 3686 1344 3839 
L 1344 467 
C 1344 243 1331 166 781 166 
L 589 166 
L 589 0 
L 1523 12 
L 2458 0 
z
" transform="scale(0.015625)"/>
       </defs>
       <use xlink:href="#LMRoman17-Regular-31" transform="scale(0.996264)"/>
      </g>
     </g>
    </g>
    <g id="text_3">
     <!-- $\eta/g$ -->
     <g transform="translate(204.949868 248.346747) scale(0.3 -0.3)">
      <defs>
       <path id="LMMathItalic12-Regular-11" d="M 3040 1768 
C 3072 1896 3091 1973 3091 2145 
C 3091 2528 2867 2816 2381 2816 
C 1811 2816 1510 2413 1395 2253 
C 1376 2617 1114 2816 832 2816 
C 646 2816 499 2726 378 2483 
C 262 2253 173 1864 173 1838 
C 173 1813 198 1781 243 1781 
C 294 1781 301 1787 339 1934 
C 435 2311 557 2688 813 2688 
C 960 2688 1011 2586 1011 2394 
C 1011 2253 947 2004 902 1807 
L 723 1117 
L 595 593 
C 550 427 480 127 480 95 
C 480 6 550 -64 646 -64 
C 723 -64 813 -26 864 70 
C 877 102 934 325 966 453 
L 1107 1028 
L 1318 1870 
C 1331 1909 1491 2228 1728 2432 
C 1894 2586 2112 2688 2362 2688 
C 2618 2688 2707 2496 2707 2241 
C 2707 2056 2682 1953 2650 1832 
L 1907 -1133 
C 1901 -1166 1888 -1205 1888 -1245 
C 1888 -1343 1965 -1408 2061 -1408 
C 2118 -1408 2253 -1382 2304 -1186 
L 3040 1768 
z
" transform="scale(0.015625)"/>
       <path id="URWPalladioL-Roma-2f" d="M 3322 4646 
L 2938 4646 
L 557 -762 
L 941 -762 
L 3322 4646 
z
" transform="scale(0.015625)"/>
       <path id="LMMathItalic12-Regular-67" d="M 2163 811 
C 2138 709 2125 683 2042 587 
C 1779 249 1510 128 1312 128 
C 1101 128 902 294 902 734 
C 902 1072 1094 1788 1235 2075 
C 1421 2432 1709 2688 1978 2688 
C 2400 2688 2483 2164 2483 2126 
L 2464 2037 
L 2163 811 
z
M 2259 -421 
L 2970 2432 
C 2989 2509 2989 2535 2989 2535 
C 2989 2624 2918 2694 2822 2694 
C 2669 2694 2579 2566 2560 2394 
C 2477 2579 2298 2816 1978 2816 
C 1280 2816 486 1941 486 989 
C 486 325 890 0 1299 0 
C 1638 0 1939 268 2054 396 
C 1946 -32 1946 -44 1914 -176 
C 1824 -521 1786 -678 1555 -898 
C 1293 -1155 1050 -1155 909 -1155 
C 717 -1155 557 -1142 397 -1092 
C 602 -1036 653 -860 653 -791 
C 653 -691 576 -590 435 -590 
C 282 -590 115 -716 115 -923 
C 115 -1180 378 -1280 922 -1280 
C 1747 -1280 2176 -760 2259 -421 
z
" transform="scale(0.015625)"/>
      </defs>
      <use xlink:href="#LMMathItalic12-Regular-11" transform="scale(0.996264)"/>
      <use xlink:href="#URWPalladioL-Roma-2f" transform="translate(52.949115 0) scale(0.996264)"/>
      <use xlink:href="#LMMathItalic12-Regular-67" transform="translate(114.56802 0) scale(0.996264)"/>
     </g>
    </g>
   </g>
   <g id="matplotlib.axis_2">
    <g id="ytick_1">
     <g id="line2d_3">
      <defs>
       <path id="m4f1511952e" d="M 0 0 
L -3.5 0 
" style="stroke: #000000; stroke-width: 0.8"/>
      </defs>
      <g>
       <use xlink:href="#m4f1511952e" x="94.219306" y="194.977206" style="stroke: #000000; stroke-width: 0.8"/>
      </g>
     </g>
     <g id="text_4">
      <!-- $\mathdefault{−1}$ -->
      <g style="fill: #1f77b4" transform="translate(57.656491 203.145192) scale(0.24 -0.24)">
       <defs>
        <path id="LMMathSymbols10-Regular-0" d="M 4442 1600 
C 4442 1728 4320 1728 4230 1728 
L 742 1728 
C 653 1728 531 1728 531 1600 
C 531 1472 653 1472 742 1472 
L 4230 1472 
C 4320 1472 4442 1472 4442 1600 
z
" transform="scale(0.015625)"/>
       </defs>
       <use xlink:href="#LMMathSymbols10-Regular-0" transform="scale(0.996264)"/>
       <use xlink:href="#LMRoman17-Regular-31" transform="translate(77.487468 0) scale(0.996264)"/>
      </g>
     </g>
    </g>
    <g id="ytick_2">
     <g id="line2d_4">
      <g>
       <use xlink:href="#m4f1511952e" x="94.219306" y="111.292596" style="stroke: #000000; stroke-width: 0.8"/>
      </g>
     </g>
     <g id="text_5">
      <!-- $\mathdefault{0}$ -->
      <g style="fill: #1f77b4" transform="translate(76.253485 119.460582) scale(0.24 -0.24)">
       <use xlink:href="#LMRoman17-Regular-30" transform="scale(0.996264)"/>
      </g>
     </g>
    </g>
    <g id="ytick_3">
     <g id="line2d_5">
      <g>
       <use xlink:href="#m4f1511952e" x="94.219306" y="27.607986" style="stroke: #000000; stroke-width: 0.8"/>
      </g>
     </g>
     <g id="text_6">
      <!-- $\mathdefault{1}$ -->
      <g style="fill: #1f77b4" transform="translate(76.253485 35.775972) scale(0.24 -0.24)">
       <use xlink:href="#LMRoman17-Regular-31" transform="scale(0.996264)"/>
      </g>
     </g>
    </g>
    <g id="text_7">
     <!-- $\langle\hat{S}_z\rangle$ -->
     <g style="fill: #1f77b4" transform="translate(46.184511 137.835987) rotate(-90) scale(0.3 -0.3)">
      <defs>
       <path id="LMMathSymbols10-Regular-68" d="M 2125 -1472 
C 2125 -1472 2125 -1434 2093 -1357 
L 966 1600 
L 2093 4557 
C 2125 4633 2125 4672 2125 4672 
C 2125 4742 2067 4800 1997 4800 
C 1914 4800 1888 4742 1862 4672 
L 736 1715 
C 704 1638 704 1600 704 1600 
C 704 1600 704 1561 736 1484 
L 1856 -1460 
C 1888 -1536 1907 -1600 1997 -1600 
C 2067 -1600 2125 -1543 2125 -1472 
z
" transform="scale(0.015625)"/>
       <path id="URWPalladioL-Roma-88" d="M 870 4333 
L 70 3264 
L 294 3264 
L 1069 3923 
L 1843 3264 
L 2067 3264 
L 1267 4333 
L 870 4333 
z
" transform="scale(0.015625)"/>
       <path id="LMMathItalic12-Regular-53" d="M 3456 1461 
C 3456 1728 3392 1963 3149 2198 
C 3014 2331 2899 2363 2310 2516 
C 1882 2630 1824 2649 1709 2751 
C 1600 2859 1517 3011 1517 3227 
C 1517 3761 2061 4307 2669 4307 
C 3296 4307 3590 3926 3590 3322 
C 3590 3157 3558 2986 3558 2960 
C 3558 2903 3610 2903 3629 2903 
C 3686 2903 3693 2922 3718 3024 
L 4064 4422 
C 4064 4480 4006 4480 4006 4480 
C 3981 4480 3974 4473 3898 4377 
L 3590 3996 
C 3379 4409 2957 4480 2688 4480 
C 1875 4480 1139 3742 1139 3024 
C 1139 2547 1427 2268 1741 2160 
C 1811 2134 2189 2033 2381 1988 
C 2707 1899 2790 1874 2925 1734 
C 2950 1702 3078 1556 3078 1258 
C 3078 667 2528 57 1888 57 
C 1363 57 781 279 781 991 
C 781 1112 806 1264 826 1328 
C 826 1347 832 1391 832 1391 
C 832 1417 819 1448 768 1448 
C 710 1448 704 1436 678 1328 
L 352 25 
L 326 -71 
C 326 -128 390 -128 390 -128 
C 416 -128 422 -122 499 -26 
L 794 356 
C 947 127 1280 -128 1875 -128 
C 2701 -128 3456 667 3456 1461 
z
" transform="scale(0.015625)"/>
       <path id="LMMathItalic12-Regular-7a" d="M 2726 876 
C 2726 902 2720 942 2656 942 
C 2605 942 2598 915 2579 849 
C 2438 460 2061 336 1811 336 
C 1677 336 1549 364 1414 409 
C 1158 512 1088 512 1005 512 
C 941 512 870 512 813 486 
C 1088 809 1312 1015 1632 1313 
C 2016 1657 2182 1822 2272 1922 
C 2720 2371 2944 2713 2944 2764 
C 2944 2816 2880 2816 2880 2816 
C 2835 2816 2822 2790 2790 2745 
C 2630 2470 2477 2368 2310 2368 
C 2176 2368 2106 2403 1984 2547 
C 1850 2707 1741 2816 1555 2816 
C 1088 2816 806 2265 806 2127 
C 806 2107 813 2067 870 2067 
C 922 2067 928 2094 947 2140 
C 1056 2387 1363 2415 1485 2415 
C 1619 2415 1747 2387 1882 2342 
C 2125 2239 2227 2239 2291 2239 
C 2336 2239 2362 2239 2394 2246 
C 2182 1988 1837 1670 1549 1399 
C 1139 1028 1030 909 902 783 
C 512 380 275 32 275 -13 
C 275 -52 307 -64 346 -64 
C 384 -64 390 -58 435 19 
C 538 179 742 384 979 384 
C 1114 384 1178 356 1306 211 
C 1427 70 1536 -64 1741 -64 
C 2368 -64 2726 723 2726 876 
z
" transform="scale(0.015625)"/>
       <path id="LMMathSymbols10-Regular-69" d="M 1779 1600 
C 1779 1600 1779 1638 1747 1715 
L 627 4659 
C 595 4736 576 4800 486 4800 
C 416 4800 358 4742 358 4672 
C 358 4672 358 4633 390 4557 
L 1517 1600 
L 390 -1357 
C 358 -1434 358 -1472 358 -1472 
C 358 -1543 416 -1600 486 -1600 
C 570 -1600 595 -1543 621 -1472 
L 1747 1484 
C 1779 1561 1779 1600 1779 1600 
z
" transform="scale(0.015625)"/>
      </defs>
      <use xlink:href="#LMMathSymbols10-Regular-68" transform="scale(0.996264)"/>
      <use xlink:href="#URWPalladioL-Roma-88" transform="translate(63.182773 21.353275) scale(0.996264)"/>
      <use xlink:href="#LMMathItalic12-Regular-53" transform="translate(38.743734 0) scale(0.996264)"/>
      <use xlink:href="#LMMathItalic12-Regular-7a" transform="translate(98.738222 -14.943915) scale(0.757155)"/>
      <use xlink:href="#LMMathSymbols10-Regular-69" transform="translate(137.049982 0) scale(0.996264)"/>
     </g>
    </g>
   </g>
   <g id="line2d_6">
    <path d="M 94.219306 194.977206 
L 95.57531 191.176959 
L 96.931314 187.832336 
L 98.287318 184.845687 
L 100.999326 179.687565 
L 103.711333 175.335062 
L 106.423341 171.570192 
L 109.135349 168.252992 
L 111.847357 165.288224 
L 114.559365 162.608142 
L 117.271373 160.16283 
L 121.339384 156.854671 
L 125.407396 153.897126 
L 129.475408 151.222946 
L 133.543419 148.782548 
L 138.967435 145.828601 
L 144.391451 143.157363 
L 149.815466 140.719415 
L 156.595486 137.943756 
L 163.375506 135.419137 
L 171.511529 132.66301 
L 179.647552 130.154558 
L 189.13958 127.487092 
L 198.631607 125.052286 
L 209.479639 122.50703 
L 221.683674 119.896102 
L 233.887709 117.508482 
L 247.447748 115.074931 
L 262.363791 112.622211 
L 270.499815 111.369909 
L 273.211822 111.292596 
L 364.064085 111.292596 
L 364.064085 111.292596 
" clip-path="url(#p3bed4f1361)" style="fill: none; stroke: #1f77b4; stroke-width: 4; stroke-linecap: square"/>
   </g>
   <g id="line2d_7">
    <path d="M 271.014161 194.977206 
L 271.014161 27.607986 
" clip-path="url(#p3bed4f1361)" style="fill: none; stroke-dasharray: 2,3.3; stroke-dashoffset: 0; stroke: #000000; stroke-width: 2"/>
   </g>
   <g id="patch_5">
    <path d="M 94.219306 194.977206 
L 94.219306 27.607986 
" style="fill: none; stroke: #000000; stroke-width: 0.8; stroke-linejoin: miter; stroke-linecap: square"/>
   </g>
   <g id="patch_6">
    <path d="M 364.064085 194.977206 
L 364.064085 27.607986 
" style="fill: none; stroke: #000000; stroke-width: 0.8; stroke-linejoin: miter; stroke-linecap: square"/>
   </g>
   <g id="patch_7">
    <path d="M 94.219306 194.977206 
L 364.064085 194.977206 
" style="fill: none; stroke: #000000; stroke-width: 0.8; stroke-linejoin: miter; stroke-linecap: square"/>
   </g>
   <g id="patch_8">
    <path d="M 94.219306 27.607986 
L 364.064085 27.607986 
" style="fill: none; stroke: #000000; stroke-width: 0.8; stroke-linejoin: miter; stroke-linecap: square"/>
   </g>
   <g id="text_8">
    <!-- $\mathbf{SS}$ -->
    <g transform="translate(159.284287 64.200954) scale(0.3 -0.3)">
     <defs>
      <path id="LMRoman12-Bold-53" d="M 3597 1311 
C 3597 1905 3200 2466 2502 2622 
L 1626 2816 
C 992 2956 973 3421 973 3512 
C 973 3842 1184 4223 1805 4223 
C 2426 4223 2982 3919 3117 3072 
C 3136 2937 3136 2931 3258 2931 
C 3392 2931 3392 2950 3392 3097 
L 3392 4313 
C 3392 4435 3392 4480 3296 4480 
C 3251 4480 3232 4473 3174 4409 
L 2899 4094 
C 2739 4230 2419 4480 1798 4480 
C 883 4480 397 3900 397 3194 
C 397 2766 627 2473 717 2385 
C 1050 2061 1229 2024 1894 1880 
C 2534 1743 2611 1730 2752 1600 
C 2835 1516 3021 1337 3021 1005 
C 3021 725 2886 211 2170 211 
C 1606 211 717 406 666 1356 
C 659 1471 659 1491 531 1491 
C 397 1491 397 1471 397 1324 
L 397 102 
C 397 -20 397 -64 493 -64 
C 538 -64 544 -58 608 0 
C 678 70 736 153 896 315 
C 1267 19 1792 -64 2176 -64 
C 3174 -64 3597 621 3597 1311 
z
" transform="scale(0.015625)"/>
     </defs>
     <use xlink:href="#LMRoman12-Bold-53" transform="scale(0.996264)"/>
     <use xlink:href="#LMRoman12-Bold-53" transform="translate(62.266501 0) scale(0.996264)"/>
    </g>
   </g>
   <g id="text_9">
    <!-- $\mathbf{NSS}$ -->
    <g transform="translate(285.714731 172.990947) scale(0.3 -0.3)">
     <defs>
      <path id="LMRoman12-Bold-4e" d="M 5382 4140 
L 5382 4416 
C 5235 4403 4736 4403 4557 4403 
C 4378 4403 3872 4403 3725 4416 
L 3725 4140 
L 3872 4140 
C 4045 4140 4058 4140 4211 4121 
C 4397 4095 4403 4089 4403 3947 
L 4403 1254 
L 1856 4339 
C 1792 4409 1786 4416 1658 4416 
L 243 4416 
L 243 4140 
L 922 4140 
L 922 468 
C 922 326 915 320 749 294 
C 634 281 506 275 390 275 
L 243 275 
L 243 0 
C 390 12 890 12 1069 12 
C 1248 12 1754 12 1901 0 
L 1901 275 
L 1754 275 
C 1581 275 1568 275 1414 294 
C 1229 320 1222 326 1222 468 
L 1222 3921 
L 4390 83 
C 4461 6 4467 0 4550 0 
C 4704 0 4704 38 4704 185 
L 4704 3947 
C 4704 4089 4710 4095 4877 4121 
C 4992 4134 5120 4140 5235 4140 
L 5382 4140 
z
" transform="scale(0.015625)"/>
     </defs>
     <use xlink:href="#LMRoman12-Bold-4e" transform="scale(0.996264)"/>
     <use xlink:href="#LMRoman12-Bold-53" transform="translate(87.629626 0) scale(0.996264)"/>
     <use xlink:href="#LMRoman12-Bold-53" transform="translate(149.896126 0) scale(0.996264)"/>
    </g>
   </g>
  </g>
  <g id="axes_2">
   <g id="matplotlib.axis_3">
    <g id="ytick_4">
     <g id="line2d_8">
      <defs>
       <path id="m06a75cd2fd" d="M 0 0 
L 3.5 0 
" style="stroke: #000000; stroke-width: 0.8"/>
      </defs>
      <g>
       <use xlink:href="#m06a75cd2fd" x="364.064085" y="194.977206" style="stroke: #000000; stroke-width: 0.8"/>
      </g>
     </g>
     <g id="text_10">
      <!-- $\mathdefault{−1}$ -->
      <g style="fill: #d62728" transform="translate(371.064085 203.145192) scale(0.24 -0.24)">
       <use xlink:href="#LMMathSymbols10-Regular-0" transform="scale(0.996264)"/>
       <use xlink:href="#LMRoman17-Regular-31" transform="translate(77.487468 0) scale(0.996264)"/>
      </g>
     </g>
    </g>
    <g id="ytick_5">
     <g id="line2d_9">
      <g>
       <use xlink:href="#m06a75cd2fd" x="364.064085" y="111.292596" style="stroke: #000000; stroke-width: 0.8"/>
      </g>
     </g>
     <g id="text_11">
      <!-- $\mathdefault{0}$ -->
      <g style="fill: #d62728" transform="translate(371.064085 119.460582) scale(0.24 -0.24)">
       <use xlink:href="#LMRoman17-Regular-30" transform="scale(0.996264)"/>
      </g>
     </g>
    </g>
    <g id="ytick_6">
     <g id="line2d_10">
      <g>
       <use xlink:href="#m06a75cd2fd" x="364.064085" y="27.607986" style="stroke: #000000; stroke-width: 0.8"/>
      </g>
     </g>
     <g id="text_12">
      <!-- $\mathdefault{1}$ -->
      <g style="fill: #d62728" transform="translate(371.064085 35.775972) scale(0.24 -0.24)">
       <use xlink:href="#LMRoman17-Regular-31" transform="scale(0.996264)"/>
      </g>
     </g>
    </g>
    <g id="text_13">
     <!-- $\langle\hat{S_z^2}\rangle$ -->
     <g style="fill: #d62728" transform="translate(433.88802 138.242665) rotate(-90) scale(0.3 -0.3)">
      <defs>
       <path id="LMRoman17-Regular-32" d="M 2669 990 
L 2554 990 
C 2490 537 2438 460 2413 422 
C 2381 371 1920 371 1830 371 
L 602 371 
L 1824 1596 
C 2214 1966 2669 2400 2669 3033 
C 2669 3788 2067 4224 1395 4224 
C 691 4224 262 3603 262 3027 
C 262 2777 448 2745 525 2745 
C 589 2745 781 2783 781 3007 
C 781 3206 614 3264 525 3264 
C 486 3264 448 3257 422 3244 
C 544 3788 915 4057 1306 4057 
C 1862 4057 2227 3616 2227 3033 
C 2227 2477 1901 1998 1536 1583 
L 262 147 
L 262 0 
L 2515 0 
L 2669 990 
z
" transform="scale(0.015625)"/>
      </defs>
      <use xlink:href="#LMMathSymbols10-Regular-68" transform="scale(0.996264)"/>
      <use xlink:href="#URWPalladioL-Roma-88" transform="translate(72.665113 29.742029) scale(0.996264)"/>
      <use xlink:href="#LMMathItalic12-Regular-53" transform="translate(38.743734 0) scale(0.996264)"/>
      <use xlink:href="#LMRoman17-Regular-32" transform="translate(104.538173 28.780957) scale(0.757155)"/>
      <use xlink:href="#LMMathItalic12-Regular-7a" transform="translate(98.738222 -24.62935) scale(0.757155)"/>
      <use xlink:href="#LMMathSymbols10-Regular-69" transform="translate(139.761174 0) scale(0.996264)"/>
     </g>
    </g>
   </g>
   <g id="line2d_11">
    <path d="M 94.219306 111.292596 
L 270.499815 111.292596 
L 271.855819 109.782281 
L 277.279834 100.272449 
L 281.347846 93.479657 
L 285.415858 87.05563 
L 289.483869 81.048722 
L 293.551881 75.488193 
L 297.619893 70.386283 
L 301.687905 65.741015 
L 305.755916 61.539272 
L 309.823928 57.759784 
L 313.89194 54.375826 
L 317.959952 51.357482 
L 322.027963 48.673456 
L 326.095975 46.292438 
L 330.163987 44.184079 
L 334.231998 42.319649 
L 338.30001 40.672425 
L 342.368022 39.217898 
L 347.792038 37.54017 
L 353.216053 36.11916 
L 358.640069 34.914866 
L 364.064085 33.893232 
L 364.064085 33.893232 
" clip-path="url(#p3bed4f1361)" style="fill: none; stroke-dasharray: 14.8,6.4; stroke-dashoffset: 0; stroke: #d62728; stroke-width: 4"/>
   </g>
   <g id="patch_9">
    <path d="M 94.219306 194.977206 
L 94.219306 27.607986 
" style="fill: none; stroke: #000000; stroke-width: 0.8; stroke-linejoin: miter; stroke-linecap: square"/>
   </g>
   <g id="patch_10">
    <path d="M 364.064085 194.977206 
L 364.064085 27.607986 
" style="fill: none; stroke: #000000; stroke-width: 0.8; stroke-linejoin: miter; stroke-linecap: square"/>
   </g>
   <g id="patch_11">
    <path d="M 94.219306 194.977206 
L 364.064085 194.977206 
" style="fill: none; stroke: #000000; stroke-width: 0.8; stroke-linejoin: miter; stroke-linecap: square"/>
   </g>
   <g id="patch_12">
    <path d="M 94.219306 27.607986 
L 364.064085 27.607986 
" style="fill: none; stroke: #000000; stroke-width: 0.8; stroke-linejoin: miter; stroke-linecap: square"/>
   </g>
  </g>
 </g>
 <defs>
  <clipPath id="p3bed4f1361">
   <rect x="94.219306" y="27.607986" width="269.844779" height="167.36922"/>
  </clipPath>
 </defs>
</svg>
