<?xml version="1.0" encoding="utf-8" standalone="no"?>
<!DOCTYPE svg PUBLIC "-//W3C//DTD SVG 1.1//EN"
  "http://www.w3.org/Graphics/SVG/1.1/DTD/svg11.dtd">
<svg xmlns:xlink="http://www.w3.org/1999/xlink" width="576pt" height="432pt" viewBox="0 0 576 432" xmlns="http://www.w3.org/2000/svg" version="1.1">
 <metadata>
  <rdf:RDF xmlns:dc="http://purl.org/dc/elements/1.1/" xmlns:cc="http://creativecommons.org/ns#" xmlns:rdf="http://www.w3.org/1999/02/22-rdf-syntax-ns#">
   <cc:Work>
    <dc:type rdf:resource="http://purl.org/dc/dcmitype/StillImage"/>
    <dc:date>2025-08-04T14:18:20.140554</dc:date>
    <dc:format>image/svg+xml</dc:format>
    <dc:creator>
     <cc:Agent>
      <dc:title>Matplotlib v3.9.2, https://matplotlib.org/</dc:title>
     </cc:Agent>
    </dc:creator>
   </cc:Work>
  </rdf:RDF>
 </metadata>
 <defs>
  <style type="text/css">*{stroke-linejoin: round; stroke-linecap: butt}</style>
 </defs>
 <g id="figure_1">
  <g id="patch_1">
   <path d="M 0 432 
L 576 432 
L 576 0 
L 0 0 
z
" style="fill: #ffffff"/>
  </g>
  <g id="patch_2">
   <path d="M 128.88 384.48 
L 461.52 384.48 
L 461.52 51.84 
L 128.88 51.84 
z
" style="fill: #ffffff"/>
  </g>
  <g id="axes_1">
   <g id="line2d_1">
    <path d="M 293.430222 307.07027 
L 299.830757 306.932266 
L 306.212524 306.403694 
L 312.548937 305.486326 
L 318.813571 304.183594 
L 324.980284 302.500583 
L 331.023328 300.444009 
L 336.917465 298.022191 
L 342.638078 295.245012 
L 348.161277 292.123885 
L 353.46401 288.671696 
L 358.524158 284.902751 
L 363.320637 280.832715 
L 367.833492 276.478541 
L 372.043979 271.858396 
L 375.934653 266.991585 
L 379.489445 261.898459 
L 382.693725 256.600332 
L 385.534375 251.119381 
L 387.999841 245.478554 
L 390.080183 239.701463 
L 391.767118 233.812283 
L 393.054057 227.835645 
L 393.936128 221.796526 
L 394.410201 215.720137 
L 394.474895 209.631818 
L 394.130583 203.556918 
L 393.37939 197.52069 
L 392.225179 191.548177 
L 390.673529 185.664102 
L 388.73171 179.892762 
L 386.408649 174.257919 
L 383.714881 168.782697 
L 380.662508 163.489485 
L 377.265133 158.399837 
L 373.537801 153.534378 
L 369.496931 148.91272 
L 365.160235 144.553374 
L 360.546639 140.473675 
L 355.676196 136.689708 
L 350.569994 133.21624 
L 345.250058 130.066663 
L 339.739255 127.252934 
L 334.061182 124.785532 
L 328.24007 122.673417 
L 322.300664 120.923993 
L 316.268121 119.543088 
L 310.167892 118.534925 
L 304.025614 117.90212 
L 297.86699 117.645673 
L 291.717681 117.764968 
L 285.60319 118.25779 
L 279.548755 119.120335 
L 273.579233 120.347241 
L 267.718998 121.931613 
L 261.991834 123.865067 
L 256.420835 126.137771 
L 251.028306 128.738497 
L 245.835669 131.654677 
L 240.863376 134.872467 
L 236.130822 138.376817 
L 231.656271 142.151538 
L 227.456776 146.179387 
L 223.548117 150.442143 
L 219.944739 154.9207 
L 216.659694 159.595148 
L 213.704598 164.444873 
L 211.089585 169.448646 
L 208.823276 174.584725 
L 206.912752 179.830951 
L 205.36353 185.164849 
L 204.179555 190.563726 
L 203.363192 196.004775 
L 202.915227 201.465175 
L 202.834876 206.922188 
L 203.119804 212.353262 
L 203.76614 217.736123 
L 204.768515 223.048872 
L 206.120089 228.27008 
L 207.8126 233.378872 
L 209.836409 238.355017 
L 212.180552 243.179011 
L 214.832801 247.832151 
L 217.779731 252.296614 
L 221.006782 256.555524 
L 224.498339 260.593017 
L 228.237805 264.3943 
L 232.207685 267.945707 
L 236.389668 271.234743 
L 240.764716 274.250134 
L 245.31315 276.981855 
L 250.014744 279.421169 
L 254.848818 281.560647 
L 259.794329 283.394188 
L 264.829966 284.917034 
L 269.934247 286.12577 
L 275.085608 287.018334 
L 280.262503 287.594004 
L 285.443488 287.85339 
L 290.60732 287.798417 
L 293.176239 287.654001 
L 293.176239 287.654001 
" clip-path="url(#pec6417a75f)" style="fill: none; stroke: #dc143c; stroke-width: 3; stroke-linecap: square"/>
   </g>
   <g id="line2d_2">
    <path d="M 293.430222 262.472345 
L 296.878634 262.341474 
L 300.310188 262.009502 
L 303.712342 261.47784 
L 307.072667 260.748588 
L 310.378883 259.824516 
L 313.618902 258.709065 
L 316.78086 257.406331 
L 319.85316 255.921054 
L 322.824504 254.258603 
L 325.683931 252.424961 
L 328.420854 250.426707 
L 331.025089 248.270995 
L 333.486895 245.965533 
L 335.796999 243.518564 
L 337.946634 240.938836 
L 339.927561 238.23558 
L 341.732104 235.41848 
L 343.353176 232.497645 
L 344.784299 229.48358 
L 346.019637 226.387153 
L 347.054008 223.219559 
L 347.882915 219.992291 
L 348.502557 216.717101 
L 348.909848 213.405963 
L 349.102435 210.071039 
L 349.078706 206.724635 
L 348.837807 203.379165 
L 348.379642 200.047111 
L 347.704889 196.740978 
L 346.814996 193.473258 
L 345.712189 190.256383 
L 344.399465 187.102686 
L 342.880596 184.024357 
L 341.160116 181.033398 
L 339.243319 178.141586 
L 337.136244 175.360422 
L 334.845664 172.701099 
L 332.379068 170.17445 
L 329.744645 167.790913 
L 326.951259 165.560488 
L 324.008429 163.492698 
L 320.9263 161.59655 
L 317.715615 159.880498 
L 314.387684 158.352405 
L 310.954348 157.01951 
L 307.427946 155.888393 
L 303.821272 154.964947 
L 300.147539 154.254346 
L 296.420331 153.761017 
L 292.653561 153.488617 
L 288.861425 153.44001 
L 285.05835 153.617245 
L 281.258945 154.021542 
L 277.477951 154.653271 
L 273.730184 155.511949 
L 270.030485 156.596222 
L 266.39366 157.903867 
L 262.834428 159.431783 
L 259.367363 161.175996 
L 256.006835 163.13166 
L 252.766957 165.293068 
L 249.661522 167.653657 
L 246.703953 170.206029 
L 243.90724 172.941963 
L 241.28389 175.85244 
L 238.845868 178.927664 
L 236.604547 182.157094 
L 234.570655 185.529472 
L 232.754223 189.032859 
L 231.164541 192.654672 
L 229.810108 196.381728 
L 228.698589 200.200284 
L 227.836777 204.096086 
L 227.230551 208.05442 
L 226.884843 212.060162 
L 226.803608 216.097834 
L 226.989791 220.151661 
L 227.445306 224.205631 
L 228.171016 228.243555 
L 229.166712 232.249129 
L 230.431104 236.206 
L 231.961811 240.097832 
L 233.755358 243.908367 
L 235.807173 247.621499 
L 238.111598 251.221334 
L 240.66189 254.692265 
L 243.450244 258.019032 
L 246.467805 261.186792 
L 249.704694 264.181185 
L 253.150036 266.988397 
L 256.791991 269.595226 
L 260.617794 271.98914 
L 264.613792 274.158341 
L 268.765493 276.091818 
L 273.057615 277.779405 
L 277.474138 279.211833 
L 281.998364 280.380776 
L 286.612979 281.278902 
L 291.300113 281.899909 
L 293.665156 282.104816 
L 293.665156 282.104816 
" clip-path="url(#pec6417a75f)" style="fill: none; stroke: #4169e1; stroke-width: 3; stroke-linecap: square"/>
   </g>
   <g id="Path3DCollection_1">
    <defs>
     <path id="m1c5e45aa44" d="M 0 2.236068 
C 0.593012 2.236068 1.161816 2.000462 1.581139 1.581139 
C 2.000462 1.161816 2.236068 0.593012 2.236068 0 
C 2.236068 -0.593012 2.000462 -1.161816 1.581139 -1.581139 
C 1.161816 -2.000462 0.593012 -2.236068 0 -2.236068 
C -0.593012 -2.236068 -1.161816 -2.000462 -1.581139 -1.581139 
C -2.000462 -1.161816 -2.236068 -0.593012 -2.236068 0 
C -2.236068 0.593012 -2.000462 1.161816 -1.581139 1.581139 
C -1.161816 2.000462 -0.593012 2.236068 0 2.236068 
z
" style="stroke: #000000"/>
    </defs>
    <g clip-path="url(#pec6417a75f)">
     <use xlink:href="#m1c5e45aa44" x="293.430222" y="307.07027" style="stroke: #000000"/>
    </g>
   </g>
   <g id="Path3DCollection_2">
    <g clip-path="url(#pec6417a75f)">
     <use xlink:href="#m1c5e45aa44" x="293.430222" y="262.472345" style="stroke: #000000"/>
    </g>
   </g>
   <g id="Poly3DCollection_1">
    <path d="M 293.430222 262.472345 
L 295.155748 262.432109 
L 296.63117 307.050134 
L 293.430222 307.07027 
z
" clip-path="url(#pec6417a75f)" style="fill: #8e7800; fill-opacity: 0.25"/>
    <path d="M 295.155748 262.432109 
L 296.878634 262.341474 
L 299.830757 306.932266 
L 296.63117 307.050134 
z
" clip-path="url(#pec6417a75f)" style="fill: #8d7700; fill-opacity: 0.25"/>
    <path d="M 296.878634 262.341474 
L 298.597304 262.200553 
L 303.02565 306.71673 
L 299.830757 306.932266 
z
" clip-path="url(#pec6417a75f)" style="fill: #8c7600; fill-opacity: 0.25"/>
    <path d="M 298.597304 262.200553 
L 300.310188 262.009502 
L 306.212524 306.403694 
L 303.02565 306.71673 
z
" clip-path="url(#pec6417a75f)" style="fill: #8c7600; fill-opacity: 0.25"/>
    <path d="M 300.310188 262.009502 
L 302.01572 261.768517 
L 309.388057 305.993434 
L 306.212524 306.403694 
z
" clip-path="url(#pec6417a75f)" style="fill: #8b7500; fill-opacity: 0.25"/>
    <path d="M 302.01572 261.768517 
L 303.712342 261.47784 
L 312.548937 305.486326 
L 309.388057 305.993434 
z
" clip-path="url(#pec6417a75f)" style="fill: #8a7400; fill-opacity: 0.25"/>
    <path d="M 303.712342 261.47784 
L 305.398504 261.137755 
L 315.691868 304.882851 
L 312.548937 305.486326 
z
" clip-path="url(#pec6417a75f)" style="fill: #897400; fill-opacity: 0.25"/>
    <path d="M 305.398504 261.137755 
L 307.072667 260.748588 
L 318.813571 304.183594 
L 315.691868 304.882851 
z
" clip-path="url(#pec6417a75f)" style="fill: #887300; fill-opacity: 0.25"/>
    <path d="M 307.072667 260.748588 
L 308.733299 260.310705 
L 321.910788 303.389241 
L 318.813571 304.183594 
z
" clip-path="url(#pec6417a75f)" style="fill: #877200; fill-opacity: 0.25"/>
    <path d="M 308.733299 260.310705 
L 310.378883 259.824516 
L 324.980284 302.500583 
L 321.910788 303.389241 
z
" clip-path="url(#pec6417a75f)" style="fill: #867100; fill-opacity: 0.25"/>
    <path d="M 310.378883 259.824516 
L 312.007914 259.290472 
L 328.018855 301.518509 
L 324.980284 302.500583 
z
" clip-path="url(#pec6417a75f)" style="fill: #867100; fill-opacity: 0.25"/>
    <path d="M 312.007914 259.290472 
L 313.618902 258.709065 
L 331.023328 300.444009 
L 328.018855 301.518509 
z
" clip-path="url(#pec6417a75f)" style="fill: #857000; fill-opacity: 0.25"/>
    <path d="M 313.618902 258.709065 
L 315.21037 258.080827 
L 333.990564 299.278174 
L 331.023328 300.444009 
z
" clip-path="url(#pec6417a75f)" style="fill: #846f00; fill-opacity: 0.25"/>
    <path d="M 315.21037 258.080827 
L 316.78086 257.406331 
L 336.917465 298.022191 
L 333.990564 299.278174 
z
" clip-path="url(#pec6417a75f)" style="fill: #836e00; fill-opacity: 0.25"/>
    <path d="M 316.78086 257.406331 
L 318.328931 256.686189 
L 339.800973 296.677344 
L 336.917465 298.022191 
z
" clip-path="url(#pec6417a75f)" style="fill: #826d00; fill-opacity: 0.25"/>
    <path d="M 318.328931 256.686189 
L 319.85316 255.921054 
L 342.638078 295.245012 
L 339.800973 296.677344 
z
" clip-path="url(#pec6417a75f)" style="fill: #816d00; fill-opacity: 0.25"/>
    <path d="M 319.85316 255.921054 
L 321.352145 255.111615 
L 345.425816 293.726671 
L 342.638078 295.245012 
z
" clip-path="url(#pec6417a75f)" style="fill: #806c00; fill-opacity: 0.25"/>
    <path d="M 321.352145 255.111615 
L 322.824504 254.258603 
L 348.161277 292.123885 
L 345.425816 293.726671 
z
" clip-path="url(#pec6417a75f)" style="fill: #7f6b00; fill-opacity: 0.25"/>
    <path d="M 322.824504 254.258603 
L 324.268878 253.362783 
L 350.841607 290.438312 
L 348.161277 292.123885 
z
" clip-path="url(#pec6417a75f)" style="fill: #7e6a00; fill-opacity: 0.25"/>
    <path d="M 324.268878 253.362783 
L 325.683931 252.424961 
L 353.46401 288.671696 
L 350.841607 290.438312 
z
" clip-path="url(#pec6417a75f)" style="fill: #7d6900; fill-opacity: 0.25"/>
    <path d="M 325.683931 252.424961 
L 327.068352 251.445977 
L 356.02575 286.82587 
L 353.46401 288.671696 
z
" clip-path="url(#pec6417a75f)" style="fill: #7c6900; fill-opacity: 0.25"/>
    <path d="M 327.068352 251.445977 
L 328.420854 250.426707 
L 358.524158 284.902751 
L 356.02575 286.82587 
z
" clip-path="url(#pec6417a75f)" style="fill: #7b6800; fill-opacity: 0.25"/>
    <path d="M 328.420854 250.426707 
L 329.740177 249.368064 
L 360.956631 282.904339 
L 358.524158 284.902751 
z
" clip-path="url(#pec6417a75f)" style="fill: #7a6700; fill-opacity: 0.25"/>
    <path d="M 329.740177 249.368064 
L 331.025089 248.270995 
L 363.320637 280.832715 
L 360.956631 282.904339 
z
" clip-path="url(#pec6417a75f)" style="fill: #796600; fill-opacity: 0.25"/>
    <path d="M 331.025089 248.270995 
L 332.274387 247.13648 
L 365.613718 278.690037 
L 363.320637 280.832715 
z
" clip-path="url(#pec6417a75f)" style="fill: #786500; fill-opacity: 0.25"/>
    <path d="M 332.274387 247.13648 
L 333.486895 245.965533 
L 367.833492 276.478541 
L 365.613718 278.690037 
z
" clip-path="url(#pec6417a75f)" style="fill: #776500; fill-opacity: 0.25"/>
    <path d="M 333.486895 245.965533 
L 334.66147 244.759202 
L 369.977653 274.200534 
L 367.833492 276.478541 
z
" clip-path="url(#pec6417a75f)" style="fill: #776400; fill-opacity: 0.25"/>
    <path d="M 334.66147 244.759202 
L 335.796999 243.518564 
L 372.043979 271.858396 
L 369.977653 274.200534 
z
" clip-path="url(#pec6417a75f)" style="fill: #766300; fill-opacity: 0.25"/>
    <path d="M 335.796999 243.518564 
L 336.892403 242.244729 
L 374.03033 269.454576 
L 372.043979 271.858396 
z
" clip-path="url(#pec6417a75f)" style="fill: #756300; fill-opacity: 0.25"/>
    <path d="M 336.892403 242.244729 
L 337.946634 240.938836 
L 375.934653 266.991585 
L 374.03033 269.454576 
z
" clip-path="url(#pec6417a75f)" style="fill: #746200; fill-opacity: 0.25"/>
    <path d="M 337.946634 240.938836 
L 338.958679 239.602054 
L 377.754983 264.472001 
L 375.934653 266.991585 
z
" clip-path="url(#pec6417a75f)" style="fill: #736100; fill-opacity: 0.25"/>
    <path d="M 338.958679 239.602054 
L 339.927561 238.23558 
L 379.489445 261.898459 
L 377.754983 264.472001 
z
" clip-path="url(#pec6417a75f)" style="fill: #736100; fill-opacity: 0.25"/>
    <path d="M 339.927561 238.23558 
L 340.852337 236.840638 
L 381.136255 259.273654 
L 379.489445 261.898459 
z
" clip-path="url(#pec6417a75f)" style="fill: #726000; fill-opacity: 0.25"/>
    <path d="M 340.852337 236.840638 
L 341.732104 235.41848 
L 382.693725 256.600332 
L 381.136255 259.273654 
z
" clip-path="url(#pec6417a75f)" style="fill: #716000; fill-opacity: 0.25"/>
    <path d="M 341.732104 235.41848 
L 342.565993 233.970382 
L 384.160263 253.881292 
L 382.693725 256.600332 
z
" clip-path="url(#pec6417a75f)" style="fill: #715f00; fill-opacity: 0.25"/>
    <path d="M 342.565993 233.970382 
L 343.353176 232.497645 
L 385.534375 251.119381 
L 384.160263 253.881292 
z
" clip-path="url(#pec6417a75f)" style="fill: #705f00; fill-opacity: 0.25"/>
    <path d="M 343.353176 232.497645 
L 344.092861 231.001596 
L 386.814666 248.317491 
L 385.534375 251.119381 
z
" clip-path="url(#pec6417a75f)" style="fill: #705e00; fill-opacity: 0.25"/>
    <path d="M 344.092861 231.001596 
L 344.784299 229.48358 
L 387.999841 245.478554 
L 386.814666 248.317491 
z
" clip-path="url(#pec6417a75f)" style="fill: #6f5e00; fill-opacity: 0.25"/>
    <path d="M 344.784299 229.48358 
L 345.426781 227.94497 
L 389.08871 242.605542 
L 387.999841 245.478554 
z
" clip-path="url(#pec6417a75f)" style="fill: #6f5d00; fill-opacity: 0.25"/>
    <path d="M 345.426781 227.94497 
L 346.019637 226.387153 
L 390.080183 239.701463 
L 389.08871 242.605542 
z
" clip-path="url(#pec6417a75f)" style="fill: #6e5d00; fill-opacity: 0.25"/>
    <path d="M 346.019637 226.387153 
L 346.562241 224.81154 
L 390.973279 236.769354 
L 390.080183 239.701463 
z
" clip-path="url(#pec6417a75f)" style="fill: #6e5d00; fill-opacity: 0.25"/>
    <path d="M 346.562241 224.81154 
L 347.054008 223.219559 
L 391.767118 233.812283 
L 390.973279 236.769354 
z
" clip-path="url(#pec6417a75f)" style="fill: #6e5d00; fill-opacity: 0.25"/>
    <path d="M 347.054008 223.219559 
L 347.494399 221.612655 
L 392.460932 230.833342 
L 391.767118 233.812283 
z
" clip-path="url(#pec6417a75f)" style="fill: #6d5c00; fill-opacity: 0.25"/>
    <path d="M 347.494399 221.612655 
L 347.882915 219.992291 
L 393.054057 227.835645 
L 392.460932 230.833342 
z
" clip-path="url(#pec6417a75f)" style="fill: #6d5c00; fill-opacity: 0.25"/>
    <path d="M 347.882915 219.992291 
L 348.219104 218.359942 
L 393.545938 224.822324 
L 393.054057 227.835645 
z
" clip-path="url(#pec6417a75f)" style="fill: #6d5c00; fill-opacity: 0.25"/>
    <path d="M 348.219104 218.359942 
L 348.502557 216.717101 
L 393.936128 221.796526 
L 393.545938 224.822324 
z
" clip-path="url(#pec6417a75f)" style="fill: #6d5c00; fill-opacity: 0.25"/>
    <path d="M 348.502557 216.717101 
L 348.73291 215.065269 
L 394.224292 218.761408 
L 393.936128 221.796526 
z
" clip-path="url(#pec6417a75f)" style="fill: #6d5c00; fill-opacity: 0.25"/>
    <path d="M 348.73291 215.065269 
L 348.909848 213.405963 
L 394.410201 215.720137 
L 394.224292 218.761408 
z
" clip-path="url(#pec6417a75f)" style="fill: #6d5c00; fill-opacity: 0.25"/>
    <path d="M 348.909848 213.405963 
L 349.033098 211.740708 
L 394.493738 212.675884 
L 394.410201 215.720137 
z
" clip-path="url(#pec6417a75f)" style="fill: #6d5c00; fill-opacity: 0.25"/>
    <path d="M 349.033098 211.740708 
L 349.102435 210.071039 
L 394.474895 209.631818 
L 394.493738 212.675884 
z
" clip-path="url(#pec6417a75f)" style="fill: #6d5c00; fill-opacity: 0.25"/>
    <path d="M 349.102435 210.071039 
L 349.117681 208.398498 
L 394.353773 206.591109 
L 394.474895 209.631818 
z
" clip-path="url(#pec6417a75f)" style="fill: #6e5c00; fill-opacity: 0.25"/>
    <path d="M 349.117681 208.398498 
L 349.078706 206.724635 
L 394.130583 203.556918 
L 394.353773 206.591109 
z
" clip-path="url(#pec6417a75f)" style="fill: #6e5d00; fill-opacity: 0.25"/>
    <path d="M 349.078706 206.724635 
L 348.985427 205.051004 
L 393.805646 200.532399 
L 394.130583 203.556918 
z
" clip-path="url(#pec6417a75f)" style="fill: #6e5d00; fill-opacity: 0.25"/>
    <path d="M 348.985427 205.051004 
L 348.837807 203.379165 
L 393.37939 197.52069 
L 393.805646 200.532399 
z
" clip-path="url(#pec6417a75f)" style="fill: #6f5d00; fill-opacity: 0.25"/>
    <path d="M 348.837807 203.379165 
L 348.635858 201.710679 
L 392.852353 194.524915 
L 393.37939 197.52069 
z
" clip-path="url(#pec6417a75f)" style="fill: #6f5e00; fill-opacity: 0.25"/>
    <path d="M 348.635858 201.710679 
L 348.379642 200.047111 
L 392.225179 191.548177 
L 392.852353 194.524915 
z
" clip-path="url(#pec6417a75f)" style="fill: #705e00; fill-opacity: 0.25"/>
    <path d="M 348.379642 200.047111 
L 348.069267 198.390022 
L 391.498618 188.593555 
L 392.225179 191.548177 
z
" clip-path="url(#pec6417a75f)" style="fill: #705f00; fill-opacity: 0.25"/>
    <path d="M 348.069267 198.390022 
L 347.704889 196.740978 
L 390.673529 185.664102 
L 391.498618 188.593555 
z
" clip-path="url(#pec6417a75f)" style="fill: #715f00; fill-opacity: 0.25"/>
    <path d="M 347.704889 196.740978 
L 347.286714 195.101537 
L 389.750871 182.762841 
L 390.673529 185.664102 
z
" clip-path="url(#pec6417a75f)" style="fill: #716000; fill-opacity: 0.25"/>
    <path d="M 347.286714 195.101537 
L 346.814996 193.473258 
L 388.73171 179.892762 
L 389.750871 182.762841 
z
" clip-path="url(#pec6417a75f)" style="fill: #726000; fill-opacity: 0.25"/>
    <path d="M 346.814996 193.473258 
L 346.290038 191.857691 
L 387.617213 177.056817 
L 388.73171 179.892762 
z
" clip-path="url(#pec6417a75f)" style="fill: #736100; fill-opacity: 0.25"/>
    <path d="M 346.290038 191.857691 
L 345.712189 190.256383 
L 386.408649 174.257919 
L 387.617213 177.056817 
z
" clip-path="url(#pec6417a75f)" style="fill: #746200; fill-opacity: 0.25"/>
    <path d="M 345.712189 190.256383 
L 345.081849 188.670872 
L 385.107383 171.498937 
L 386.408649 174.257919 
z
" clip-path="url(#pec6417a75f)" style="fill: #756300; fill-opacity: 0.25"/>
    <path d="M 345.081849 188.670872 
L 344.399465 187.102686 
L 383.714881 168.782697 
L 385.107383 171.498937 
z
" clip-path="url(#pec6417a75f)" style="fill: #766300; fill-opacity: 0.25"/>
    <path d="M 344.399465 187.102686 
L 343.665533 185.553346 
L 382.232705 166.111972 
L 383.714881 168.782697 
z
" clip-path="url(#pec6417a75f)" style="fill: #776400; fill-opacity: 0.25"/>
    <path d="M 343.665533 185.553346 
L 342.880596 184.024357 
L 380.662508 163.489485 
L 382.232705 166.111972 
z
" clip-path="url(#pec6417a75f)" style="fill: #786500; fill-opacity: 0.25"/>
    <path d="M 342.880596 184.024357 
L 342.045244 182.517214 
L 379.006038 160.917904 
L 380.662508 163.489485 
z
" clip-path="url(#pec6417a75f)" style="fill: #796600; fill-opacity: 0.25"/>
    <path d="M 342.045244 182.517214 
L 341.160116 181.033398 
L 377.265133 158.399837 
L 379.006038 160.917904 
z
" clip-path="url(#pec6417a75f)" style="fill: #7b6700; fill-opacity: 0.25"/>
    <path d="M 341.160116 181.033398 
L 340.225897 179.574373 
L 375.441717 155.937833 
L 377.265133 158.399837 
z
" clip-path="url(#pec6417a75f)" style="fill: #7c6800; fill-opacity: 0.25"/>
    <path d="M 340.225897 179.574373 
L 339.243319 178.141586 
L 373.537801 153.534378 
L 375.441717 155.937833 
z
" clip-path="url(#pec6417a75f)" style="fill: #7d6a00; fill-opacity: 0.25"/>
    <path d="M 339.243319 178.141586 
L 338.21316 176.736466 
L 371.555481 151.19189 
L 373.537801 153.534378 
z
" clip-path="url(#pec6417a75f)" style="fill: #7f6b00; fill-opacity: 0.25"/>
    <path d="M 338.21316 176.736466 
L 337.136244 175.360422 
L 369.496931 148.91272 
L 371.555481 151.19189 
z
" clip-path="url(#pec6417a75f)" style="fill: #806c00; fill-opacity: 0.25"/>
    <path d="M 337.136244 175.360422 
L 336.013441 174.014845 
L 367.364406 146.699146 
L 369.496931 148.91272 
z
" clip-path="url(#pec6417a75f)" style="fill: #826d00; fill-opacity: 0.25"/>
    <path d="M 336.013441 174.014845 
L 334.845664 172.701099 
L 365.160235 144.553374 
L 367.364406 146.699146 
z
" clip-path="url(#pec6417a75f)" style="fill: #836e00; fill-opacity: 0.25"/>
    <path d="M 334.845664 172.701099 
L 333.633873 171.420528 
L 362.886822 142.477533 
L 365.160235 144.553374 
z
" clip-path="url(#pec6417a75f)" style="fill: #857000; fill-opacity: 0.25"/>
    <path d="M 333.633873 171.420528 
L 332.379068 170.17445 
L 360.546639 140.473675 
L 362.886822 142.477533 
z
" clip-path="url(#pec6417a75f)" style="fill: #867100; fill-opacity: 0.25"/>
    <path d="M 332.379068 170.17445 
L 331.082297 168.964157 
L 358.142229 138.54377 
L 360.546639 140.473675 
z
" clip-path="url(#pec6417a75f)" style="fill: #887300; fill-opacity: 0.25"/>
    <path d="M 331.082297 168.964157 
L 329.744645 167.790913 
L 355.676196 136.689708 
L 358.142229 138.54377 
z
" clip-path="url(#pec6417a75f)" style="fill: #8a7400; fill-opacity: 0.25"/>
    <path d="M 329.744645 167.790913 
L 328.367242 166.655954 
L 353.151209 134.913292 
L 355.676196 136.689708 
z
" clip-path="url(#pec6417a75f)" style="fill: #8b7600; fill-opacity: 0.25"/>
    <path d="M 328.367242 166.655954 
L 326.951259 165.560488 
L 350.569994 133.21624 
L 353.151209 134.913292 
z
" clip-path="url(#pec6417a75f)" style="fill: #8d7700; fill-opacity: 0.25"/>
    <path d="M 326.951259 165.560488 
L 325.497905 164.505688 
L 347.935332 131.600184 
L 350.569994 133.21624 
z
" clip-path="url(#pec6417a75f)" style="fill: #8f7900; fill-opacity: 0.25"/>
    <path d="M 325.497905 164.505688 
L 324.008429 163.492698 
L 345.250058 130.066663 
L 347.935332 131.600184 
z
" clip-path="url(#pec6417a75f)" style="fill: #917a00; fill-opacity: 0.25"/>
    <path d="M 324.008429 163.492698 
L 322.484119 162.522627 
L 342.517056 128.617127 
L 345.250058 130.066663 
z
" clip-path="url(#pec6417a75f)" style="fill: #937c00; fill-opacity: 0.25"/>
    <path d="M 322.484119 162.522627 
L 320.9263 161.59655 
L 339.739255 127.252934 
L 342.517056 128.617127 
z
" clip-path="url(#pec6417a75f)" style="fill: #957d00; fill-opacity: 0.25"/>
    <path d="M 320.9263 161.59655 
L 319.336333 160.715507 
L 336.919626 125.975346 
L 339.739255 127.252934 
z
" clip-path="url(#pec6417a75f)" style="fill: #977f00; fill-opacity: 0.25"/>
    <path d="M 319.336333 160.715507 
L 317.715615 159.880498 
L 334.061182 124.785532 
L 336.919626 125.975346 
z
" clip-path="url(#pec6417a75f)" style="fill: #998100; fill-opacity: 0.25"/>
    <path d="M 317.715615 159.880498 
L 316.065577 159.092489 
L 331.16697 123.684564 
L 334.061182 124.785532 
z
" clip-path="url(#pec6417a75f)" style="fill: #9b8200; fill-opacity: 0.25"/>
    <path d="M 316.065577 159.092489 
L 314.387684 158.352405 
L 328.24007 122.673417 
L 331.16697 123.684564 
z
" clip-path="url(#pec6417a75f)" style="fill: #9d8400; fill-opacity: 0.25"/>
    <path d="M 314.387684 158.352405 
L 312.683432 157.66113 
L 325.283589 121.752967 
L 328.24007 122.673417 
z
" clip-path="url(#pec6417a75f)" style="fill: #9f8600; fill-opacity: 0.25"/>
    <path d="M 312.683432 157.66113 
L 310.954348 157.01951 
L 322.300664 120.923993 
L 325.283589 121.752967 
z
" clip-path="url(#pec6417a75f)" style="fill: #a18800; fill-opacity: 0.25"/>
    <path d="M 310.954348 157.01951 
L 309.201991 156.428344 
L 319.294449 120.187174 
L 322.300664 120.923993 
z
" clip-path="url(#pec6417a75f)" style="fill: #a38900; fill-opacity: 0.25"/>
    <path d="M 309.201991 156.428344 
L 307.427946 155.888393 
L 316.268121 119.543088 
L 319.294449 120.187174 
z
" clip-path="url(#pec6417a75f)" style="fill: #a58b00; fill-opacity: 0.25"/>
    <path d="M 307.427946 155.888393 
L 305.633826 155.400371 
L 313.224868 118.992212 
L 316.268121 119.543088 
z
" clip-path="url(#pec6417a75f)" style="fill: #a78d00; fill-opacity: 0.25"/>
    <path d="M 305.633826 155.400371 
L 303.821272 154.964947 
L 310.167892 118.534925 
L 313.224868 118.992212 
z
" clip-path="url(#pec6417a75f)" style="fill: #a98f00; fill-opacity: 0.25"/>
    <path d="M 303.821272 154.964947 
L 301.991947 154.582746 
L 307.100403 118.171503 
L 310.167892 118.534925 
z
" clip-path="url(#pec6417a75f)" style="fill: #ab9000; fill-opacity: 0.25"/>
    <path d="M 301.991947 154.582746 
L 300.147539 154.254346 
L 304.025614 117.90212 
L 307.100403 118.171503 
z
" clip-path="url(#pec6417a75f)" style="fill: #ad9200; fill-opacity: 0.25"/>
    <path d="M 300.147539 154.254346 
L 298.289757 153.980275 
L 300.946739 117.726853 
L 304.025614 117.90212 
z
" clip-path="url(#pec6417a75f)" style="fill: #af9400; fill-opacity: 0.25"/>
    <path d="M 298.289757 153.980275 
L 296.420331 153.761017 
L 297.86699 117.645673 
L 300.946739 117.726853 
z
" clip-path="url(#pec6417a75f)" style="fill: #b19500; fill-opacity: 0.25"/>
    <path d="M 296.420331 153.761017 
L 294.54101 153.597003 
L 294.789572 117.658454 
L 297.86699 117.645673 
z
" clip-path="url(#pec6417a75f)" style="fill: #b39700; fill-opacity: 0.25"/>
    <path d="M 294.54101 153.597003 
L 292.653561 153.488617 
L 291.717681 117.764968 
L 294.789572 117.658454 
z
" clip-path="url(#pec6417a75f)" style="fill: #b59900; fill-opacity: 0.25"/>
    <path d="M 292.653561 153.488617 
L 290.759767 153.436192 
L 288.654498 117.964889 
L 291.717681 117.764968 
z
" clip-path="url(#pec6417a75f)" style="fill: #b79b00; fill-opacity: 0.25"/>
    <path d="M 290.759767 153.436192 
L 288.861425 153.44001 
L 285.60319 118.25779 
L 288.654498 117.964889 
z
" clip-path="url(#pec6417a75f)" style="fill: #b99c00; fill-opacity: 0.25"/>
    <path d="M 288.861425 153.44001 
L 286.960346 153.500302 
L 282.566902 118.643146 
L 285.60319 118.25779 
z
" clip-path="url(#pec6417a75f)" style="fill: #bb9e00; fill-opacity: 0.25"/>
    <path d="M 286.960346 153.500302 
L 285.05835 153.617245 
L 279.548755 119.120335 
L 282.566902 118.643146 
z
" clip-path="url(#pec6417a75f)" style="fill: #bda000; fill-opacity: 0.25"/>
    <path d="M 285.05835 153.617245 
L 283.15727 153.790968 
L 276.551844 119.688638 
L 279.548755 119.120335 
z
" clip-path="url(#pec6417a75f)" style="fill: #bfa100; fill-opacity: 0.25"/>
    <path d="M 283.15727 153.790968 
L 281.258945 154.021542 
L 273.579233 120.347241 
L 276.551844 119.688638 
z
" clip-path="url(#pec6417a75f)" style="fill: #c1a300; fill-opacity: 0.25"/>
    <path d="M 281.258945 154.021542 
L 279.365222 154.308987 
L 270.633953 121.095233 
L 273.579233 120.347241 
z
" clip-path="url(#pec6417a75f)" style="fill: #c3a400; fill-opacity: 0.25"/>
    <path d="M 279.365222 154.308987 
L 277.477951 154.653271 
L 267.718998 121.931613 
L 270.633953 121.095233 
z
" clip-path="url(#pec6417a75f)" style="fill: #c5a600; fill-opacity: 0.25"/>
    <path d="M 277.477951 154.653271 
L 275.598987 155.054306 
L 264.837321 122.855286 
L 267.718998 121.931613 
z
" clip-path="url(#pec6417a75f)" style="fill: #c6a700; fill-opacity: 0.25"/>
    <path d="M 275.598987 155.054306 
L 273.730184 155.511949 
L 261.991834 123.865067 
L 264.837321 122.855286 
z
" clip-path="url(#pec6417a75f)" style="fill: #c8a900; fill-opacity: 0.25"/>
    <path d="M 273.730184 155.511949 
L 271.873399 156.026005 
L 259.185401 124.959683 
L 261.991834 123.865067 
z
" clip-path="url(#pec6417a75f)" style="fill: #caaa00; fill-opacity: 0.25"/>
    <path d="M 271.873399 156.026005 
L 270.030485 156.596222 
L 256.420835 126.137771 
L 259.185401 124.959683 
z
" clip-path="url(#pec6417a75f)" style="fill: #cbac00; fill-opacity: 0.25"/>
    <path d="M 270.030485 156.596222 
L 268.20329 157.222297 
L 253.700901 127.397886 
L 256.420835 126.137771 
z
" clip-path="url(#pec6417a75f)" style="fill: #cdad00; fill-opacity: 0.25"/>
    <path d="M 268.20329 157.222297 
L 266.39366 157.903867 
L 251.028306 128.738497 
L 253.700901 127.397886 
z
" clip-path="url(#pec6417a75f)" style="fill: #cfae00; fill-opacity: 0.25"/>
    <path d="M 266.39366 157.903867 
L 264.60343 158.640519 
L 248.405699 130.157991 
L 251.028306 128.738497 
z
" clip-path="url(#pec6417a75f)" style="fill: #d0af00; fill-opacity: 0.25"/>
    <path d="M 264.60343 158.640519 
L 262.834428 159.431783 
L 245.835669 131.654677 
L 248.405699 130.157991 
z
" clip-path="url(#pec6417a75f)" style="fill: #d1b100; fill-opacity: 0.25"/>
    <path d="M 262.834428 159.431783 
L 261.088471 160.277135 
L 243.320741 133.226784 
L 245.835669 131.654677 
z
" clip-path="url(#pec6417a75f)" style="fill: #d3b200; fill-opacity: 0.25"/>
    <path d="M 261.088471 160.277135 
L 259.367363 161.175996 
L 240.863376 134.872467 
L 243.320741 133.226784 
z
" clip-path="url(#pec6417a75f)" style="fill: #d4b300; fill-opacity: 0.25"/>
    <path d="M 259.367363 161.175996 
L 257.672893 162.127733 
L 238.465963 136.589808 
L 240.863376 134.872467 
z
" clip-path="url(#pec6417a75f)" style="fill: #d5b400; fill-opacity: 0.25"/>
    <path d="M 257.672893 162.127733 
L 256.006835 163.13166 
L 236.130822 138.376817 
L 238.465963 136.589808 
z
" clip-path="url(#pec6417a75f)" style="fill: #d7b500; fill-opacity: 0.25"/>
    <path d="M 256.006835 163.13166 
L 254.370945 164.187036 
L 233.860201 140.231435 
L 236.130822 138.376817 
z
" clip-path="url(#pec6417a75f)" style="fill: #d8b600; fill-opacity: 0.25"/>
    <path d="M 254.370945 164.187036 
L 252.766957 165.293068 
L 231.656271 142.151538 
L 233.860201 140.231435 
z
" clip-path="url(#pec6417a75f)" style="fill: #d9b700; fill-opacity: 0.25"/>
    <path d="M 252.766957 165.293068 
L 251.196586 166.448907 
L 229.521124 144.134938 
L 231.656271 142.151538 
z
" clip-path="url(#pec6417a75f)" style="fill: #dab800; fill-opacity: 0.25"/>
    <path d="M 251.196586 166.448907 
L 249.661522 167.653657 
L 227.456776 146.179387 
L 229.521124 144.134938 
z
" clip-path="url(#pec6417a75f)" style="fill: #dbb800; fill-opacity: 0.25"/>
    <path d="M 249.661522 167.653657 
L 248.163432 168.906365 
L 225.465157 148.282576 
L 227.456776 146.179387 
z
" clip-path="url(#pec6417a75f)" style="fill: #dbb900; fill-opacity: 0.25"/>
    <path d="M 248.163432 168.906365 
L 246.703953 170.206029 
L 223.548117 150.442143 
L 225.465157 148.282576 
z
" clip-path="url(#pec6417a75f)" style="fill: #dcba00; fill-opacity: 0.25"/>
    <path d="M 246.703953 170.206029 
L 245.284696 171.551596 
L 221.707419 152.655673 
L 223.548117 150.442143 
z
" clip-path="url(#pec6417a75f)" style="fill: #ddba00; fill-opacity: 0.25"/>
    <path d="M 245.284696 171.551596 
L 243.90724 172.941963 
L 219.944739 154.9207 
L 221.707419 152.655673 
z
" clip-path="url(#pec6417a75f)" style="fill: #ddbb00; fill-opacity: 0.25"/>
    <path d="M 243.90724 172.941963 
L 242.573133 174.375978 
L 218.261664 157.234711 
L 219.944739 154.9207 
z
" clip-path="url(#pec6417a75f)" style="fill: #debb00; fill-opacity: 0.25"/>
    <path d="M 242.573133 174.375978 
L 241.28389 175.85244 
L 216.659694 159.595148 
L 218.261664 157.234711 
z
" clip-path="url(#pec6417a75f)" style="fill: #debc00; fill-opacity: 0.25"/>
    <path d="M 241.28389 175.85244 
L 240.040987 177.3701 
L 215.140234 161.999414 
L 216.659694 159.595148 
z
" clip-path="url(#pec6417a75f)" style="fill: #dfbc00; fill-opacity: 0.25"/>
    <path d="M 240.040987 177.3701 
L 238.845868 178.927664 
L 213.704598 164.444873 
L 215.140234 161.999414 
z
" clip-path="url(#pec6417a75f)" style="fill: #dfbc00; fill-opacity: 0.25"/>
    <path d="M 238.845868 178.927664 
L 237.699933 180.523791 
L 212.354006 166.928851 
L 213.704598 164.444873 
z
" clip-path="url(#pec6417a75f)" style="fill: #dfbc00; fill-opacity: 0.25"/>
    <path d="M 237.699933 180.523791 
L 236.604547 182.157094 
L 211.089585 169.448646 
L 212.354006 166.928851 
z
" clip-path="url(#pec6417a75f)" style="fill: #dfbc00; fill-opacity: 0.25"/>
    <path d="M 236.604547 182.157094 
L 235.561028 183.826146 
L 209.912364 172.001524 
L 211.089585 169.448646 
z
" clip-path="url(#pec6417a75f)" style="fill: #dfbc00; fill-opacity: 0.25"/>
    <path d="M 235.561028 183.826146 
L 234.570655 185.529472 
L 208.823276 174.584725 
L 209.912364 172.001524 
z
" clip-path="url(#pec6417a75f)" style="fill: #dfbc00; fill-opacity: 0.25"/>
    <path d="M 234.570655 185.529472 
L 233.634658 187.265561 
L 207.823159 177.195468 
L 208.823276 174.584725 
z
" clip-path="url(#pec6417a75f)" style="fill: #dfbc00; fill-opacity: 0.25"/>
    <path d="M 233.634658 187.265561 
L 232.754223 189.032859 
L 206.912752 179.830951 
L 207.823159 177.195468 
z
" clip-path="url(#pec6417a75f)" style="fill: #dfbc00; fill-opacity: 0.25"/>
    <path d="M 232.754223 189.032859 
L 231.930488 190.829773 
L 206.092695 182.488355 
L 206.912752 179.830951 
z
" clip-path="url(#pec6417a75f)" style="fill: #dfbc00; fill-opacity: 0.25"/>
    <path d="M 231.930488 190.829773 
L 231.164541 192.654672 
L 205.36353 185.164849 
L 206.092695 182.488355 
z
" clip-path="url(#pec6417a75f)" style="fill: #debb00; fill-opacity: 0.25"/>
    <path d="M 231.164541 192.654672 
L 230.45742 194.505891 
L 204.725702 187.857589 
L 205.36353 185.164849 
z
" clip-path="url(#pec6417a75f)" style="fill: #debb00; fill-opacity: 0.25"/>
    <path d="M 230.45742 194.505891 
L 229.810108 196.381728 
L 204.179555 190.563726 
L 204.725702 187.857589 
z
" clip-path="url(#pec6417a75f)" style="fill: #ddbb00; fill-opacity: 0.25"/>
    <path d="M 229.810108 196.381728 
L 229.223539 198.280448 
L 203.725336 193.280406 
L 204.179555 190.563726 
z
" clip-path="url(#pec6417a75f)" style="fill: #ddba00; fill-opacity: 0.25"/>
    <path d="M 229.223539 198.280448 
L 228.698589 200.200284 
L 203.363192 196.004775 
L 203.725336 193.280406 
z
" clip-path="url(#pec6417a75f)" style="fill: #dcba00; fill-opacity: 0.25"/>
    <path d="M 228.698589 200.200284 
L 228.236081 202.139439 
L 203.093172 198.73398 
L 203.363192 196.004775 
z
" clip-path="url(#pec6417a75f)" style="fill: #dbb900; fill-opacity: 0.25"/>
    <path d="M 228.236081 202.139439 
L 227.836777 204.096086 
L 202.915227 201.465175 
L 203.093172 198.73398 
z
" clip-path="url(#pec6417a75f)" style="fill: #dab800; fill-opacity: 0.25"/>
    <path d="M 227.836777 204.096086 
L 227.501385 206.068373 
L 202.82921 204.19552 
L 202.915227 201.465175 
z
" clip-path="url(#pec6417a75f)" style="fill: #d9b700; fill-opacity: 0.25"/>
    <path d="M 227.501385 206.068373 
L 227.230551 208.05442 
L 202.834876 206.922188 
L 202.82921 204.19552 
z
" clip-path="url(#pec6417a75f)" style="fill: #d8b600; fill-opacity: 0.25"/>
    <path d="M 227.230551 208.05442 
L 227.024862 210.052325 
L 202.931887 209.642368 
L 202.834876 206.922188 
z
" clip-path="url(#pec6417a75f)" style="fill: #d7b600; fill-opacity: 0.25"/>
    <path d="M 227.024862 210.052325 
L 226.884843 212.060162 
L 203.119804 212.353262 
L 202.931887 209.642368 
z
" clip-path="url(#pec6417a75f)" style="fill: #d6b500; fill-opacity: 0.25"/>
    <path d="M 226.884843 212.060162 
L 226.810959 214.075986 
L 203.398097 215.052098 
L 203.119804 212.353262 
z
" clip-path="url(#pec6417a75f)" style="fill: #d5b300; fill-opacity: 0.25"/>
    <path d="M 226.810959 214.075986 
L 226.803608 216.097834 
L 203.76614 217.736123 
L 203.398097 215.052098 
z
" clip-path="url(#pec6417a75f)" style="fill: #d4b200; fill-opacity: 0.25"/>
    <path d="M 226.803608 216.097834 
L 226.863128 218.123724 
L 204.223216 220.402613 
L 203.76614 217.736123 
z
" clip-path="url(#pec6417a75f)" style="fill: #d2b100; fill-opacity: 0.25"/>
    <path d="M 226.863128 218.123724 
L 226.989791 220.151661 
L 204.768515 223.048872 
L 204.223216 220.402613 
z
" clip-path="url(#pec6417a75f)" style="fill: #d1b000; fill-opacity: 0.25"/>
    <path d="M 226.989791 220.151661 
L 227.183803 222.179637 
L 205.401135 225.672238 
L 204.768515 223.048872 
z
" clip-path="url(#pec6417a75f)" style="fill: #cfaf00; fill-opacity: 0.25"/>
    <path d="M 227.183803 222.179637 
L 227.445306 224.205631 
L 206.120089 228.27008 
L 205.401135 225.672238 
z
" clip-path="url(#pec6417a75f)" style="fill: #cead00; fill-opacity: 0.25"/>
    <path d="M 227.445306 224.205631 
L 227.774374 226.227616 
L 206.924298 230.839808 
L 206.120089 228.27008 
z
" clip-path="url(#pec6417a75f)" style="fill: #ccac00; fill-opacity: 0.25"/>
    <path d="M 227.774374 226.227616 
L 228.171016 228.243555 
L 207.8126 233.378872 
L 206.924298 230.839808 
z
" clip-path="url(#pec6417a75f)" style="fill: #caaa00; fill-opacity: 0.25"/>
    <path d="M 228.171016 228.243555 
L 228.635171 230.251407 
L 208.783747 235.884763 
L 207.8126 233.378872 
z
" clip-path="url(#pec6417a75f)" style="fill: #c8a900; fill-opacity: 0.25"/>
    <path d="M 228.635171 230.251407 
L 229.166712 232.249129 
L 209.836409 238.355017 
L 208.783747 235.884763 
z
" clip-path="url(#pec6417a75f)" style="fill: #c7a700; fill-opacity: 0.25"/>
    <path d="M 229.166712 232.249129 
L 229.765444 234.234675 
L 210.969174 240.787222 
L 209.836409 238.355017 
z
" clip-path="url(#pec6417a75f)" style="fill: #c5a600; fill-opacity: 0.25"/>
    <path d="M 229.765444 234.234675 
L 230.431104 236.206 
L 212.180552 243.179011 
L 210.969174 240.787222 
z
" clip-path="url(#pec6417a75f)" style="fill: #c3a400; fill-opacity: 0.25"/>
    <path d="M 230.431104 236.206 
L 231.16336 238.161065 
L 213.468975 245.528073 
L 212.180552 243.179011 
z
" clip-path="url(#pec6417a75f)" style="fill: #c1a300; fill-opacity: 0.25"/>
    <path d="M 231.16336 238.161065 
L 231.961811 240.097832 
L 214.832801 247.832151 
L 213.468975 245.528073 
z
" clip-path="url(#pec6417a75f)" style="fill: #bfa100; fill-opacity: 0.25"/>
    <path d="M 231.961811 240.097832 
L 232.82599 242.014273 
L 216.270315 250.089045 
L 214.832801 247.832151 
z
" clip-path="url(#pec6417a75f)" style="fill: #bd9f00; fill-opacity: 0.25"/>
    <path d="M 232.82599 242.014273 
L 233.755358 243.908367 
L 217.779731 252.296614 
L 216.270315 250.089045 
z
" clip-path="url(#pec6417a75f)" style="fill: #ba9d00; fill-opacity: 0.25"/>
    <path d="M 233.755358 243.908367 
L 234.74931 245.778107 
L 219.359193 254.452779 
L 217.779731 252.296614 
z
" clip-path="url(#pec6417a75f)" style="fill: #b89b00; fill-opacity: 0.25"/>
    <path d="M 234.74931 245.778107 
L 235.807173 247.621499 
L 221.006782 256.555524 
L 219.359193 254.452779 
z
" clip-path="url(#pec6417a75f)" style="fill: #b69a00; fill-opacity: 0.25"/>
    <path d="M 235.807173 247.621499 
L 236.928205 249.436561 
L 222.720512 258.602898 
L 221.006782 256.555524 
z
" clip-path="url(#pec6417a75f)" style="fill: #b49800; fill-opacity: 0.25"/>
    <path d="M 236.928205 249.436561 
L 238.111598 251.221334 
L 224.498339 260.593017 
L 222.720512 258.602898 
z
" clip-path="url(#pec6417a75f)" style="fill: #b29600; fill-opacity: 0.25"/>
    <path d="M 238.111598 251.221334 
L 239.356473 252.973876 
L 226.338156 262.524066 
L 224.498339 260.593017 
z
" clip-path="url(#pec6417a75f)" style="fill: #af9400; fill-opacity: 0.25"/>
    <path d="M 239.356473 252.973876 
L 240.66189 254.692265 
L 228.237805 264.3943 
L 226.338156 262.524066 
z
" clip-path="url(#pec6417a75f)" style="fill: #ad9200; fill-opacity: 0.25"/>
    <path d="M 240.66189 254.692265 
L 242.026838 256.374607 
L 230.195069 266.202047 
L 228.237805 264.3943 
z
" clip-path="url(#pec6417a75f)" style="fill: #ab9000; fill-opacity: 0.25"/>
    <path d="M 242.026838 256.374607 
L 243.450244 258.019032 
L 232.207685 267.945707 
L 230.195069 266.202047 
z
" clip-path="url(#pec6417a75f)" style="fill: #a88e00; fill-opacity: 0.25"/>
    <path d="M 243.450244 258.019032 
L 244.930967 259.623697 
L 234.273338 269.623755 
L 232.207685 267.945707 
z
" clip-path="url(#pec6417a75f)" style="fill: #a68c00; fill-opacity: 0.25"/>
    <path d="M 244.930967 259.623697 
L 246.467805 261.186792 
L 236.389668 271.234743 
L 234.273338 269.623755 
z
" clip-path="url(#pec6417a75f)" style="fill: #a38a00; fill-opacity: 0.25"/>
    <path d="M 246.467805 261.186792 
L 248.05949 262.706536 
L 238.554275 272.777301 
L 236.389668 271.234743 
z
" clip-path="url(#pec6417a75f)" style="fill: #a18800; fill-opacity: 0.25"/>
    <path d="M 248.05949 262.706536 
L 249.704694 264.181185 
L 240.764716 274.250134 
L 238.554275 272.777301 
z
" clip-path="url(#pec6417a75f)" style="fill: #9f8600; fill-opacity: 0.25"/>
    <path d="M 249.704694 264.181185 
L 251.402026 265.609028 
L 243.018512 275.65203 
L 240.764716 274.250134 
z
" clip-path="url(#pec6417a75f)" style="fill: #9c8400; fill-opacity: 0.25"/>
    <path d="M 251.402026 265.609028 
L 253.150036 266.988397 
L 245.31315 276.981855 
L 243.018512 275.65203 
z
" clip-path="url(#pec6417a75f)" style="fill: #9a8200; fill-opacity: 0.25"/>
    <path d="M 253.150036 266.988397 
L 254.947213 268.317659 
L 247.646085 278.238558 
L 245.31315 276.981855 
z
" clip-path="url(#pec6417a75f)" style="fill: #978000; fill-opacity: 0.25"/>
    <path d="M 254.947213 268.317659 
L 256.791991 269.595226 
L 250.014744 279.421169 
L 247.646085 278.238558 
z
" clip-path="url(#pec6417a75f)" style="fill: #957e00; fill-opacity: 0.25"/>
    <path d="M 256.791991 269.595226 
L 258.682745 270.819552 
L 252.416529 280.5288 
L 250.014744 279.421169 
z
" clip-path="url(#pec6417a75f)" style="fill: #937c00; fill-opacity: 0.25"/>
    <path d="M 258.682745 270.819552 
L 260.617794 271.98914 
L 254.848818 281.560647 
L 252.416529 280.5288 
z
" clip-path="url(#pec6417a75f)" style="fill: #907a00; fill-opacity: 0.25"/>
    <path d="M 260.617794 271.98914 
L 262.595405 273.102537 
L 257.308971 282.515989 
L 254.848818 281.560647 
z
" clip-path="url(#pec6417a75f)" style="fill: #8e7800; fill-opacity: 0.25"/>
    <path d="M 262.595405 273.102537 
L 264.613792 274.158341 
L 259.794329 283.394188 
L 257.308971 282.515989 
z
" clip-path="url(#pec6417a75f)" style="fill: #8b7600; fill-opacity: 0.25"/>
    <path d="M 264.613792 274.158341 
L 266.671117 275.1552 
L 262.302221 284.194693 
L 259.794329 283.394188 
z
" clip-path="url(#pec6417a75f)" style="fill: #897400; fill-opacity: 0.25"/>
    <path d="M 266.671117 275.1552 
L 268.765493 276.091818 
L 264.829966 284.917034 
L 262.302221 284.194693 
z
" clip-path="url(#pec6417a75f)" style="fill: #877200; fill-opacity: 0.25"/>
    <path d="M 268.765493 276.091818 
L 270.894986 276.966948 
L 267.374873 285.560826 
L 264.829966 284.917034 
z
" clip-path="url(#pec6417a75f)" style="fill: #857000; fill-opacity: 0.25"/>
    <path d="M 270.894986 276.966948 
L 273.057615 277.779405 
L 269.934247 286.12577 
L 267.374873 285.560826 
z
" clip-path="url(#pec6417a75f)" style="fill: #826e00; fill-opacity: 0.25"/>
    <path d="M 273.057615 277.779405 
L 275.251354 278.528057 
L 272.505391 286.61165 
L 269.934247 286.12577 
z
" clip-path="url(#pec6417a75f)" style="fill: #806c00; fill-opacity: 0.25"/>
    <path d="M 275.251354 278.528057 
L 277.474138 279.211833 
L 275.085608 287.018334 
L 272.505391 286.61165 
z
" clip-path="url(#pec6417a75f)" style="fill: #7e6a00; fill-opacity: 0.25"/>
    <path d="M 277.474138 279.211833 
L 279.723856 279.829722 
L 277.672208 287.345774 
L 275.085608 287.018334 
z
" clip-path="url(#pec6417a75f)" style="fill: #7c6800; fill-opacity: 0.25"/>
    <path d="M 279.723856 279.829722 
L 281.998364 280.380776 
L 280.262503 287.594004 
L 277.672208 287.345774 
z
" clip-path="url(#pec6417a75f)" style="fill: #7a6700; fill-opacity: 0.25"/>
    <path d="M 281.998364 280.380776 
L 284.295477 280.86411 
L 282.853818 287.763143 
L 280.262503 287.594004 
z
" clip-path="url(#pec6417a75f)" style="fill: #786500; fill-opacity: 0.25"/>
    <path d="M 284.295477 280.86411 
L 286.612979 281.278902 
L 285.443488 287.85339 
L 282.853818 287.763143 
z
" clip-path="url(#pec6417a75f)" style="fill: #766300; fill-opacity: 0.25"/>
    <path d="M 286.612979 281.278902 
L 288.948617 281.624398 
L 288.028866 287.865028 
L 285.443488 287.85339 
z
" clip-path="url(#pec6417a75f)" style="fill: #746100; fill-opacity: 0.25"/>
    <path d="M 288.948617 281.624398 
L 291.300113 281.899909 
L 290.60732 287.798417 
L 288.028866 287.865028 
z
" clip-path="url(#pec6417a75f)" style="fill: #726000; fill-opacity: 0.25"/>
    <path d="M 291.300113 281.899909 
L 293.665156 282.104816 
L 293.176239 287.654001 
L 290.60732 287.798417 
z
" clip-path="url(#pec6417a75f)" style="fill: #705e00; fill-opacity: 0.25"/>
   </g>
   <g id="legend_1">
    <g id="patch_3">
     <path d="M 145.68 372.48 
L 249.001972 372.48 
Q 253.801972 372.48 253.801972 367.68 
L 253.801972 302.214692 
Q 253.801972 297.414692 249.001972 297.414692 
L 145.68 297.414692 
Q 140.88 297.414692 140.88 302.214692 
L 140.88 367.68 
Q 140.88 372.48 145.68 372.48 
z
" style="fill: #ffffff; opacity: 0.8; stroke: #cccccc; stroke-linejoin: miter"/>
    </g>
    <g id="line2d_3">
     <path d="M 150.48 315.414692 
L 174.48 315.414692 
L 198.48 315.414692 
" style="fill: none; stroke: #dc143c; stroke-width: 3; stroke-linecap: square"/>
    </g>
    <g id="text_1">
     <!-- $\nu_+$ -->
     <g transform="translate(217.68 323.814692) scale(0.24 -0.24)">
      <defs>
       <path id="LMMathItalic12-Regular-17" d="M 3290 2655 
C 3290 2758 3206 2816 3123 2816 
C 2938 2816 2893 2643 2880 2598 
C 2502 1264 1626 472 774 192 
L 1408 2751 
C 1408 2777 1389 2816 1338 2816 
C 1293 2816 691 2758 595 2751 
C 525 2745 461 2739 461 2623 
C 461 2559 512 2559 602 2559 
C 902 2559 922 2515 922 2445 
C 922 2419 909 2343 902 2317 
L 339 64 
C 339 38 358 0 403 0 
L 538 0 
C 627 0 1600 230 2349 996 
C 3174 1845 3290 2630 3290 2655 
z
" transform="scale(0.015625)"/>
       <path id="CMR10-2b" d="M 2618 1472 
L 4403 1472 
C 4493 1472 4614 1472 4614 1600 
C 4614 1728 4493 1728 4403 1728 
L 2618 1728 
L 2618 3501 
C 2618 3590 2618 3712 2490 3712 
C 2362 3712 2362 3590 2362 3501 
L 2362 1728 
L 570 1728 
C 480 1728 358 1728 358 1600 
C 358 1472 480 1472 570 1472 
L 2362 1472 
L 2362 -308 
C 2362 -397 2362 -519 2490 -519 
C 2618 -519 2618 -397 2618 -308 
L 2618 1472 
z
" transform="scale(0.015625)"/>
      </defs>
      <use xlink:href="#LMMathItalic12-Regular-17" transform="scale(0.996264)"/>
      <use xlink:href="#CMR10-2b" transform="translate(49.1449 -14.943915) scale(0.788955)"/>
     </g>
    </g>
    <g id="line2d_4">
     <path d="M 150.48 349.379148 
L 174.48 349.379148 
L 198.48 349.379148 
" style="fill: none; stroke: #4169e1; stroke-width: 3; stroke-linecap: square"/>
    </g>
    <g id="text_2">
     <!-- $\nu_-$ -->
     <g transform="translate(217.68 357.779148) scale(0.24 -0.24)">
      <defs>
       <path id="LMMathSymbols10-Regular-0" d="M 4442 1600 
C 4442 1728 4320 1728 4230 1728 
L 742 1728 
C 653 1728 531 1728 531 1600 
C 531 1472 653 1472 742 1472 
L 4230 1472 
C 4320 1472 4442 1472 4442 1600 
z
" transform="scale(0.015625)"/>
      </defs>
      <use xlink:href="#LMMathItalic12-Regular-17" transform="scale(0.996264)"/>
      <use xlink:href="#LMMathSymbols10-Regular-0" transform="translate(48.198482 -14.943915) scale(0.757155)"/>
     </g>
    </g>
   </g>
  </g>
 </g>
 <defs>
  <clipPath id="pec6417a75f">
   <rect x="128.88" y="51.84" width="332.64" height="332.64"/>
  </clipPath>
 </defs>
</svg>
