<?xml version="1.0" encoding="utf-8" standalone="no"?>
<!DOCTYPE svg PUBLIC "-//W3C//DTD SVG 1.1//EN"
  "http://www.w3.org/Graphics/SVG/1.1/DTD/svg11.dtd">
<svg xmlns:xlink="http://www.w3.org/1999/xlink" width="576pt" height="432pt" viewBox="0 0 576 432" xmlns="http://www.w3.org/2000/svg" version="1.1">
 <metadata>
  <rdf:RDF xmlns:dc="http://purl.org/dc/elements/1.1/" xmlns:cc="http://creativecommons.org/ns#" xmlns:rdf="http://www.w3.org/1999/02/22-rdf-syntax-ns#">
   <cc:Work>
    <dc:type rdf:resource="http://purl.org/dc/dcmitype/StillImage"/>
    <dc:date>2025-08-04T14:15:00.060932</dc:date>
    <dc:format>image/svg+xml</dc:format>
    <dc:creator>
     <cc:Agent>
      <dc:title>Matplotlib v3.9.2, https://matplotlib.org/</dc:title>
     </cc:Agent>
    </dc:creator>
   </cc:Work>
  </rdf:RDF>
 </metadata>
 <defs>
  <style type="text/css">*{stroke-linejoin: round; stroke-linecap: butt}</style>
 </defs>
 <g id="figure_1">
  <g id="patch_1">
   <path d="M 0 432 
L 576 432 
L 576 0 
L 0 0 
z
" style="fill: #ffffff"/>
  </g>
  <g id="patch_2">
   <path d="M 128.88 384.48 
L 461.52 384.48 
L 461.52 51.84 
L 128.88 51.84 
z
" style="fill: #ffffff"/>
  </g>
  <g id="axes_1">
   <g id="line2d_1">
    <path d="M 299.695135 307.07027 
L 305.589726 306.884088 
L 311.460819 306.326284 
L 317.285011 305.39908 
L 323.039084 304.106174 
L 328.700101 302.452719 
L 334.245497 300.445307 
L 339.653164 298.091938 
L 344.901547 295.401996 
L 349.969724 292.386202 
L 354.837491 289.056579 
L 359.485445 285.426399 
L 363.895057 281.510134 
L 368.04875 277.323394 
L 371.929965 272.882869 
L 375.523231 268.20626 
L 378.814223 263.312211 
L 381.789824 258.220229 
L 384.438172 252.950614 
L 386.748708 247.524371 
L 388.712224 241.96313 
L 390.320891 236.289061 
L 391.568298 230.524783 
L 392.449471 224.693272 
L 392.960898 218.817776 
L 393.100541 212.921716 
L 392.867842 207.028595 
L 392.263729 201.161904 
L 391.290611 195.345032 
L 389.952367 189.601164 
L 388.25433 183.953197 
L 386.203271 178.423648 
L 383.807365 173.034556 
L 381.076163 167.807406 
L 378.020552 162.763034 
L 374.652713 157.921548 
L 370.986071 153.302249 
L 367.035243 148.923549 
L 362.815977 144.802904 
L 358.345093 140.95674 
L 353.640413 137.400388 
L 348.720692 134.148026 
L 343.60554 131.212618 
L 338.315348 128.605866 
L 332.871205 126.33816 
L 327.294812 124.418542 
L 321.608399 122.854662 
L 315.834634 121.652755 
L 309.996531 120.817612 
L 304.117364 120.352562 
L 298.220569 120.259459 
L 292.329652 120.538675 
L 286.468095 121.189095 
L 280.659266 122.208128 
L 274.926319 123.591711 
L 269.292108 125.334329 
L 263.779093 127.429035 
L 258.409249 129.867479 
L 253.203983 132.639941 
L 248.184044 135.735369 
L 243.369444 139.141424 
L 238.779374 142.844527 
L 234.432133 146.829918 
L 230.345048 151.08171 
L 226.534414 155.582953 
L 223.01542 160.315704 
L 219.802093 165.261098 
L 216.907244 170.39942 
L 214.342412 175.710188 
L 212.11782 181.172231 
L 210.242338 186.763776 
L 208.72344 192.462533 
L 207.567182 198.245786 
L 206.778174 204.09048 
L 206.359559 209.973318 
L 206.313008 215.870848 
L 206.638705 221.759562 
L 207.335353 227.615984 
L 208.400173 233.416769 
L 209.828922 239.138795 
L 211.615905 244.759251 
L 213.753996 250.255732 
L 216.234675 255.606329 
L 219.048051 260.789711 
L 222.18291 265.785216 
L 225.626756 270.572931 
L 229.36586 275.133771 
L 233.385317 279.449554 
L 237.669105 283.503077 
L 242.200146 287.278182 
L 246.960379 290.759819 
L 251.930829 293.934109 
L 257.091681 296.7884 
L 262.422363 299.311313 
L 267.901625 301.49279 
L 273.507625 303.324137 
L 279.218017 304.798052 
L 285.010036 305.90866 
L 290.860595 306.651534 
L 296.74637 307.023713 
L 299.695135 307.07027 
L 299.695135 307.07027 
" clip-path="url(#p84c1082ec5)" style="fill: none; stroke: #dc143c; stroke-width: 3; stroke-linecap: square"/>
   </g>
   <g id="line2d_2">
    <path d="M 299.695135 263.957397 
L 302.869146 263.857145 
L 306.030503 263.556789 
L 309.166607 263.057525 
L 312.264954 262.361345 
L 315.313194 261.471023 
L 318.299176 260.390109 
L 321.210997 259.122911 
L 324.037049 257.67448 
L 326.766067 256.050591 
L 329.387173 254.257717 
L 331.889917 252.303005 
L 334.264324 250.194246 
L 336.500928 247.939848 
L 338.590813 245.548796 
L 340.525648 243.030622 
L 342.297721 240.395365 
L 343.899968 237.653529 
L 345.326001 234.816044 
L 346.570136 231.89422 
L 347.627414 228.899706 
L 348.493619 225.844438 
L 349.1653 222.740596 
L 349.639778 219.600552 
L 349.915161 216.436823 
L 349.990354 213.262022 
L 349.865054 210.088802 
L 349.539763 206.929815 
L 349.015776 203.797653 
L 348.295183 200.704801 
L 347.380856 197.663589 
L 346.276439 194.686139 
L 344.986336 191.78432 
L 343.515688 188.969701 
L 341.87036 186.253501 
L 340.056908 183.646547 
L 338.082562 181.159232 
L 335.955193 178.80147 
L 333.683281 176.582661 
L 331.275882 174.51165 
L 328.742593 172.596691 
L 326.093512 170.845419 
L 323.339199 169.264815 
L 320.490634 167.861179 
L 317.559173 166.640107 
L 314.5565 165.606466 
L 311.494585 164.764377 
L 308.385634 164.117196 
L 305.242041 163.667504 
L 302.076335 163.417093 
L 298.901138 163.36696 
L 295.729106 163.517307 
L 292.572883 163.867533 
L 289.445052 164.416243 
L 286.358081 165.16125 
L 283.324275 166.099582 
L 280.355728 167.227501 
L 277.464273 168.54051 
L 274.661438 170.033374 
L 271.958394 171.700142 
L 269.365917 173.534172 
L 266.894341 175.528151 
L 264.553518 177.67413 
L 262.352781 179.963557 
L 260.300901 182.387303 
L 258.406058 184.935708 
L 256.675805 187.598612 
L 255.11704 190.365401 
L 253.735976 193.225045 
L 252.538119 196.166145 
L 251.528244 199.176977 
L 250.710376 202.245538 
L 250.087776 205.359598 
L 249.662925 208.506741 
L 249.437517 211.674423 
L 249.412451 214.850016 
L 249.587827 218.020862 
L 249.962945 221.17432 
L 250.53631 224.29782 
L 251.305636 227.37891 
L 252.267857 230.40531 
L 253.419137 233.364954 
L 254.754887 236.246044 
L 256.269782 239.037096 
L 257.957783 241.726983 
L 259.812162 244.304984 
L 261.825525 246.76082 
L 263.989848 249.084704 
L 266.296503 251.26737 
L 268.736295 253.300119 
L 271.299497 255.174846 
L 273.975893 256.88408 
L 276.754814 258.421005 
L 279.625181 259.779497 
L 282.575553 260.954138 
L 285.594168 261.940248 
L 288.668995 262.733895 
L 291.787774 263.331915 
L 294.938075 263.731924 
L 298.107339 263.932328 
L 299.695135 263.957397 
L 299.695135 263.957397 
" clip-path="url(#p84c1082ec5)" style="fill: none; stroke: #4169e1; stroke-width: 3; stroke-linecap: square"/>
   </g>
   <g id="Poly3DCollection_1">
    <path d="M 299.695135 263.957397 
L 301.282932 263.932328 
L 302.6439 307.023713 
L 299.695135 307.07027 
z
" clip-path="url(#p84c1082ec5)" style="fill: #887300; fill-opacity: 0.25"/>
    <path d="M 301.282932 263.932328 
L 302.869146 263.857145 
L 305.589726 306.884088 
L 302.6439 307.023713 
z
" clip-path="url(#p84c1082ec5)" style="fill: #887300; fill-opacity: 0.25"/>
    <path d="M 302.869146 263.857145 
L 304.452195 263.731924 
L 308.529676 306.651534 
L 305.589726 306.884088 
z
" clip-path="url(#p84c1082ec5)" style="fill: #887300; fill-opacity: 0.25"/>
    <path d="M 304.452195 263.731924 
L 306.030503 263.556789 
L 311.460819 306.326284 
L 308.529676 306.651534 
z
" clip-path="url(#p84c1082ec5)" style="fill: #887300; fill-opacity: 0.25"/>
    <path d="M 306.030503 263.556789 
L 307.602496 263.331915 
L 314.380234 305.90866 
L 311.460819 306.326284 
z
" clip-path="url(#p84c1082ec5)" style="fill: #887300; fill-opacity: 0.25"/>
    <path d="M 307.602496 263.331915 
L 309.166607 263.057525 
L 317.285011 305.39908 
L 314.380234 305.90866 
z
" clip-path="url(#p84c1082ec5)" style="fill: #887300; fill-opacity: 0.25"/>
    <path d="M 309.166607 263.057525 
L 310.721276 262.733895 
L 320.172253 304.798052 
L 317.285011 305.39908 
z
" clip-path="url(#p84c1082ec5)" style="fill: #887300; fill-opacity: 0.25"/>
    <path d="M 310.721276 262.733895 
L 312.264954 262.361345 
L 323.039084 304.106174 
L 320.172253 304.798052 
z
" clip-path="url(#p84c1082ec5)" style="fill: #887300; fill-opacity: 0.25"/>
    <path d="M 312.264954 262.361345 
L 313.796102 261.940248 
L 325.882645 303.324137 
L 323.039084 304.106174 
z
" clip-path="url(#p84c1082ec5)" style="fill: #887300; fill-opacity: 0.25"/>
    <path d="M 313.796102 261.940248 
L 315.313194 261.471023 
L 328.700101 302.452719 
L 325.882645 303.324137 
z
" clip-path="url(#p84c1082ec5)" style="fill: #887300; fill-opacity: 0.25"/>
    <path d="M 315.313194 261.471023 
L 316.814718 260.954138 
L 331.488645 301.49279 
L 328.700101 302.452719 
z
" clip-path="url(#p84c1082ec5)" style="fill: #887300; fill-opacity: 0.25"/>
    <path d="M 316.814718 260.954138 
L 318.299176 260.390109 
L 334.245497 300.445307 
L 331.488645 301.49279 
z
" clip-path="url(#p84c1082ec5)" style="fill: #887300; fill-opacity: 0.25"/>
    <path d="M 318.299176 260.390109 
L 319.765089 259.779497 
L 336.967907 299.311313 
L 334.245497 300.445307 
z
" clip-path="url(#p84c1082ec5)" style="fill: #887300; fill-opacity: 0.25"/>
    <path d="M 319.765089 259.779497 
L 321.210997 259.122911 
L 339.653164 298.091938 
L 336.967907 299.311313 
z
" clip-path="url(#p84c1082ec5)" style="fill: #887300; fill-opacity: 0.25"/>
    <path d="M 321.210997 259.122911 
L 322.635457 258.421005 
L 342.298589 296.7884 
L 339.653164 298.091938 
z
" clip-path="url(#p84c1082ec5)" style="fill: #887300; fill-opacity: 0.25"/>
    <path d="M 322.635457 258.421005 
L 324.037049 257.67448 
L 344.901547 295.401996 
L 342.298589 296.7884 
z
" clip-path="url(#p84c1082ec5)" style="fill: #887300; fill-opacity: 0.25"/>
    <path d="M 324.037049 257.67448 
L 325.414377 256.88408 
L 347.459441 293.934109 
L 344.901547 295.401996 
z
" clip-path="url(#p84c1082ec5)" style="fill: #887300; fill-opacity: 0.25"/>
    <path d="M 325.414377 256.88408 
L 326.766067 256.050591 
L 349.969724 292.386202 
L 347.459441 293.934109 
z
" clip-path="url(#p84c1082ec5)" style="fill: #887300; fill-opacity: 0.25"/>
    <path d="M 326.766067 256.050591 
L 328.090773 255.174846 
L 352.429891 290.759819 
L 349.969724 292.386202 
z
" clip-path="url(#p84c1082ec5)" style="fill: #887300; fill-opacity: 0.25"/>
    <path d="M 328.090773 255.174846 
L 329.387173 254.257717 
L 354.837491 289.056579 
L 352.429891 290.759819 
z
" clip-path="url(#p84c1082ec5)" style="fill: #887300; fill-opacity: 0.25"/>
    <path d="M 329.387173 254.257717 
L 330.653975 253.300119 
L 357.190124 287.278182 
L 354.837491 289.056579 
z
" clip-path="url(#p84c1082ec5)" style="fill: #887300; fill-opacity: 0.25"/>
    <path d="M 330.653975 253.300119 
L 331.889917 252.303005 
L 359.485445 285.426399 
L 357.190124 287.278182 
z
" clip-path="url(#p84c1082ec5)" style="fill: #887300; fill-opacity: 0.25"/>
    <path d="M 331.889917 252.303005 
L 333.093767 251.26737 
L 361.721166 283.503077 
L 359.485445 285.426399 
z
" clip-path="url(#p84c1082ec5)" style="fill: #887300; fill-opacity: 0.25"/>
    <path d="M 333.093767 251.26737 
L 334.264324 250.194246 
L 363.895057 281.510134 
L 361.721166 283.503077 
z
" clip-path="url(#p84c1082ec5)" style="fill: #887300; fill-opacity: 0.25"/>
    <path d="M 334.264324 250.194246 
L 335.400422 249.084704 
L 366.004953 279.449554 
L 363.895057 281.510134 
z
" clip-path="url(#p84c1082ec5)" style="fill: #887300; fill-opacity: 0.25"/>
    <path d="M 335.400422 249.084704 
L 336.500928 247.939848 
L 368.04875 277.323394 
L 366.004953 279.449554 
z
" clip-path="url(#p84c1082ec5)" style="fill: #887300; fill-opacity: 0.25"/>
    <path d="M 336.500928 247.939848 
L 337.564745 246.76082 
L 370.02441 275.133771 
L 368.04875 277.323394 
z
" clip-path="url(#p84c1082ec5)" style="fill: #887300; fill-opacity: 0.25"/>
    <path d="M 337.564745 246.76082 
L 338.590813 245.548796 
L 371.929965 272.882869 
L 370.02441 275.133771 
z
" clip-path="url(#p84c1082ec5)" style="fill: #887300; fill-opacity: 0.25"/>
    <path d="M 338.590813 245.548796 
L 339.578109 244.304984 
L 373.763514 270.572931 
L 371.929965 272.882869 
z
" clip-path="url(#p84c1082ec5)" style="fill: #887300; fill-opacity: 0.25"/>
    <path d="M 339.578109 244.304984 
L 340.525648 243.030622 
L 375.523231 268.20626 
L 373.763514 270.572931 
z
" clip-path="url(#p84c1082ec5)" style="fill: #887300; fill-opacity: 0.25"/>
    <path d="M 340.525648 243.030622 
L 341.432487 241.726983 
L 377.20736 265.785216 
L 375.523231 268.20626 
z
" clip-path="url(#p84c1082ec5)" style="fill: #887300; fill-opacity: 0.25"/>
    <path d="M 341.432487 241.726983 
L 342.297721 240.395365 
L 378.814223 263.312211 
L 377.20736 265.785216 
z
" clip-path="url(#p84c1082ec5)" style="fill: #887300; fill-opacity: 0.25"/>
    <path d="M 342.297721 240.395365 
L 343.120488 239.037096 
L 380.342219 260.789711 
L 378.814223 263.312211 
z
" clip-path="url(#p84c1082ec5)" style="fill: #887300; fill-opacity: 0.25"/>
    <path d="M 343.120488 239.037096 
L 343.899968 237.653529 
L 381.789824 258.220229 
L 380.342219 260.789711 
z
" clip-path="url(#p84c1082ec5)" style="fill: #887300; fill-opacity: 0.25"/>
    <path d="M 343.899968 237.653529 
L 344.635383 236.246044 
L 383.155595 255.606329 
L 381.789824 258.220229 
z
" clip-path="url(#p84c1082ec5)" style="fill: #887300; fill-opacity: 0.25"/>
    <path d="M 344.635383 236.246044 
L 345.326001 234.816044 
L 384.438172 252.950614 
L 383.155595 255.606329 
z
" clip-path="url(#p84c1082ec5)" style="fill: #887300; fill-opacity: 0.25"/>
    <path d="M 345.326001 234.816044 
L 345.971133 233.364954 
L 385.636274 250.255732 
L 384.438172 252.950614 
z
" clip-path="url(#p84c1082ec5)" style="fill: #887300; fill-opacity: 0.25"/>
    <path d="M 345.971133 233.364954 
L 346.570136 231.89422 
L 386.748708 247.524371 
L 385.636274 250.255732 
z
" clip-path="url(#p84c1082ec5)" style="fill: #887300; fill-opacity: 0.25"/>
    <path d="M 346.570136 231.89422 
L 347.122413 230.40531 
L 387.774366 244.759251 
L 386.748708 247.524371 
z
" clip-path="url(#p84c1082ec5)" style="fill: #887300; fill-opacity: 0.25"/>
    <path d="M 347.122413 230.40531 
L 347.627414 228.899706 
L 388.712224 241.96313 
L 387.774366 244.759251 
z
" clip-path="url(#p84c1082ec5)" style="fill: #887300; fill-opacity: 0.25"/>
    <path d="M 347.627414 228.899706 
L 348.084634 227.37891 
L 389.561348 239.138795 
L 388.712224 241.96313 
z
" clip-path="url(#p84c1082ec5)" style="fill: #887300; fill-opacity: 0.25"/>
    <path d="M 348.084634 227.37891 
L 348.493619 225.844438 
L 390.320891 236.289061 
L 389.561348 239.138795 
z
" clip-path="url(#p84c1082ec5)" style="fill: #887300; fill-opacity: 0.25"/>
    <path d="M 348.493619 225.844438 
L 348.853961 224.29782 
L 390.990097 233.416769 
L 390.320891 236.289061 
z
" clip-path="url(#p84c1082ec5)" style="fill: #887300; fill-opacity: 0.25"/>
    <path d="M 348.853961 224.29782 
L 349.1653 222.740596 
L 391.568298 230.524783 
L 390.990097 233.416769 
z
" clip-path="url(#p84c1082ec5)" style="fill: #887300; fill-opacity: 0.25"/>
    <path d="M 349.1653 222.740596 
L 349.427326 221.17432 
L 392.054918 227.615984 
L 391.568298 230.524783 
z
" clip-path="url(#p84c1082ec5)" style="fill: #887300; fill-opacity: 0.25"/>
    <path d="M 349.427326 221.17432 
L 349.639778 219.600552 
L 392.449471 224.693272 
L 392.054918 227.615984 
z
" clip-path="url(#p84c1082ec5)" style="fill: #887300; fill-opacity: 0.25"/>
    <path d="M 349.639778 219.600552 
L 349.802444 218.020862 
L 392.751565 221.759562 
L 392.449471 224.693272 
z
" clip-path="url(#p84c1082ec5)" style="fill: #887300; fill-opacity: 0.25"/>
    <path d="M 349.802444 218.020862 
L 349.915161 216.436823 
L 392.960898 218.817776 
L 392.751565 221.759562 
z
" clip-path="url(#p84c1082ec5)" style="fill: #887300; fill-opacity: 0.25"/>
    <path d="M 349.915161 216.436823 
L 349.977819 214.850016 
L 393.077262 215.870848 
L 392.960898 218.817776 
z
" clip-path="url(#p84c1082ec5)" style="fill: #887300; fill-opacity: 0.25"/>
    <path d="M 349.977819 214.850016 
L 349.990354 213.262022 
L 393.100541 212.921716 
L 393.077262 215.870848 
z
" clip-path="url(#p84c1082ec5)" style="fill: #887300; fill-opacity: 0.25"/>
    <path d="M 349.990354 213.262022 
L 349.952753 211.674423 
L 393.030711 209.973318 
L 393.100541 212.921716 
z
" clip-path="url(#p84c1082ec5)" style="fill: #887300; fill-opacity: 0.25"/>
    <path d="M 349.952753 211.674423 
L 349.865054 210.088802 
L 392.867842 207.028595 
L 393.030711 209.973318 
z
" clip-path="url(#p84c1082ec5)" style="fill: #887300; fill-opacity: 0.25"/>
    <path d="M 349.865054 210.088802 
L 349.727345 208.506741 
L 392.612096 204.09048 
L 392.867842 207.028595 
z
" clip-path="url(#p84c1082ec5)" style="fill: #887300; fill-opacity: 0.25"/>
    <path d="M 349.727345 208.506741 
L 349.539763 206.929815 
L 392.263729 201.161904 
L 392.612096 204.09048 
z
" clip-path="url(#p84c1082ec5)" style="fill: #887300; fill-opacity: 0.25"/>
    <path d="M 349.539763 206.929815 
L 349.302494 205.359598 
L 391.823088 198.245786 
L 392.263729 201.161904 
z
" clip-path="url(#p84c1082ec5)" style="fill: #887300; fill-opacity: 0.25"/>
    <path d="M 349.302494 205.359598 
L 349.015776 203.797653 
L 391.290611 195.345032 
L 391.823088 198.245786 
z
" clip-path="url(#p84c1082ec5)" style="fill: #887300; fill-opacity: 0.25"/>
    <path d="M 349.015776 203.797653 
L 348.679894 202.245538 
L 390.66683 192.462533 
L 391.290611 195.345032 
z
" clip-path="url(#p84c1082ec5)" style="fill: #887300; fill-opacity: 0.25"/>
    <path d="M 348.679894 202.245538 
L 348.295183 200.704801 
L 389.952367 189.601164 
L 390.66683 192.462533 
z
" clip-path="url(#p84c1082ec5)" style="fill: #887300; fill-opacity: 0.25"/>
    <path d="M 348.295183 200.704801 
L 347.862026 199.176977 
L 389.147933 186.763776 
L 389.952367 189.601164 
z
" clip-path="url(#p84c1082ec5)" style="fill: #887300; fill-opacity: 0.25"/>
    <path d="M 347.862026 199.176977 
L 347.380856 197.663589 
L 388.25433 183.953197 
L 389.147933 186.763776 
z
" clip-path="url(#p84c1082ec5)" style="fill: #887300; fill-opacity: 0.25"/>
    <path d="M 347.380856 197.663589 
L 346.852151 196.166145 
L 387.27245 181.172231 
L 388.25433 183.953197 
z
" clip-path="url(#p84c1082ec5)" style="fill: #887300; fill-opacity: 0.25"/>
    <path d="M 346.852151 196.166145 
L 346.276439 194.686139 
L 386.203271 178.423648 
L 387.27245 181.172231 
z
" clip-path="url(#p84c1082ec5)" style="fill: #887300; fill-opacity: 0.25"/>
    <path d="M 346.276439 194.686139 
L 345.654294 193.225045 
L 385.047859 175.710188 
L 386.203271 178.423648 
z
" clip-path="url(#p84c1082ec5)" style="fill: #887300; fill-opacity: 0.25"/>
    <path d="M 345.654294 193.225045 
L 344.986336 191.78432 
L 383.807365 173.034556 
L 385.047859 175.710188 
z
" clip-path="url(#p84c1082ec5)" style="fill: #887300; fill-opacity: 0.25"/>
    <path d="M 344.986336 191.78432 
L 344.27323 190.365401 
L 382.483026 170.39942 
L 383.807365 173.034556 
z
" clip-path="url(#p84c1082ec5)" style="fill: #887300; fill-opacity: 0.25"/>
    <path d="M 344.27323 190.365401 
L 343.515688 188.969701 
L 381.076163 167.807406 
L 382.483026 170.39942 
z
" clip-path="url(#p84c1082ec5)" style="fill: #887300; fill-opacity: 0.25"/>
    <path d="M 343.515688 188.969701 
L 342.714465 187.598612 
L 379.588177 165.261098 
L 381.076163 167.807406 
z
" clip-path="url(#p84c1082ec5)" style="fill: #887300; fill-opacity: 0.25"/>
    <path d="M 342.714465 187.598612 
L 341.87036 186.253501 
L 378.020552 162.763034 
L 379.588177 165.261098 
z
" clip-path="url(#p84c1082ec5)" style="fill: #887300; fill-opacity: 0.25"/>
    <path d="M 341.87036 186.253501 
L 340.984213 184.935708 
L 376.37485 160.315704 
L 378.020552 162.763034 
z
" clip-path="url(#p84c1082ec5)" style="fill: #887300; fill-opacity: 0.25"/>
    <path d="M 340.984213 184.935708 
L 340.056908 183.646547 
L 374.652713 157.921548 
L 376.37485 160.315704 
z
" clip-path="url(#p84c1082ec5)" style="fill: #887300; fill-opacity: 0.25"/>
    <path d="M 340.056908 183.646547 
L 339.08937 182.387303 
L 372.855856 155.582953 
L 374.652713 157.921548 
z
" clip-path="url(#p84c1082ec5)" style="fill: #887300; fill-opacity: 0.25"/>
    <path d="M 339.08937 182.387303 
L 338.082562 181.159232 
L 370.986071 153.302249 
L 372.855856 155.582953 
z
" clip-path="url(#p84c1082ec5)" style="fill: #887300; fill-opacity: 0.25"/>
    <path d="M 338.082562 181.159232 
L 337.03749 179.963557 
L 369.045222 151.08171 
L 370.986071 153.302249 
z
" clip-path="url(#p84c1082ec5)" style="fill: #887300; fill-opacity: 0.25"/>
    <path d="M 337.03749 179.963557 
L 335.955193 178.80147 
L 367.035243 148.923549 
L 369.045222 151.08171 
z
" clip-path="url(#p84c1082ec5)" style="fill: #887300; fill-opacity: 0.25"/>
    <path d="M 335.955193 178.80147 
L 334.836752 177.67413 
L 364.958138 146.829918 
L 367.035243 148.923549 
z
" clip-path="url(#p84c1082ec5)" style="fill: #887300; fill-opacity: 0.25"/>
    <path d="M 334.836752 177.67413 
L 333.683281 176.582661 
L 362.815977 144.802904 
L 364.958138 146.829918 
z
" clip-path="url(#p84c1082ec5)" style="fill: #887300; fill-opacity: 0.25"/>
    <path d="M 333.683281 176.582661 
L 332.49593 175.528151 
L 360.610896 142.844527 
L 362.815977 144.802904 
z
" clip-path="url(#p84c1082ec5)" style="fill: #887300; fill-opacity: 0.25"/>
    <path d="M 332.49593 175.528151 
L 331.275882 174.51165 
L 358.345093 140.95674 
L 360.610896 142.844527 
z
" clip-path="url(#p84c1082ec5)" style="fill: #887300; fill-opacity: 0.25"/>
    <path d="M 331.275882 174.51165 
L 330.024354 173.534172 
L 356.020826 139.141424 
L 358.345093 140.95674 
z
" clip-path="url(#p84c1082ec5)" style="fill: #887300; fill-opacity: 0.25"/>
    <path d="M 330.024354 173.534172 
L 328.742593 172.596691 
L 353.640413 137.400388 
L 356.020826 139.141424 
z
" clip-path="url(#p84c1082ec5)" style="fill: #887300; fill-opacity: 0.25"/>
    <path d="M 328.742593 172.596691 
L 327.431876 171.700142 
L 351.206226 135.735369 
L 353.640413 137.400388 
z
" clip-path="url(#p84c1082ec5)" style="fill: #887300; fill-opacity: 0.25"/>
    <path d="M 327.431876 171.700142 
L 326.093512 170.845419 
L 348.720692 134.148026 
L 351.206226 135.735369 
z
" clip-path="url(#p84c1082ec5)" style="fill: #887300; fill-opacity: 0.25"/>
    <path d="M 326.093512 170.845419 
L 324.728832 170.033374 
L 346.186287 132.639941 
L 348.720692 134.148026 
z
" clip-path="url(#p84c1082ec5)" style="fill: #887300; fill-opacity: 0.25"/>
    <path d="M 324.728832 170.033374 
L 323.339199 169.264815 
L 343.60554 131.212618 
L 346.186287 132.639941 
z
" clip-path="url(#p84c1082ec5)" style="fill: #887300; fill-opacity: 0.25"/>
    <path d="M 323.339199 169.264815 
L 321.925997 168.54051 
L 340.981021 129.867479 
L 343.60554 131.212618 
z
" clip-path="url(#p84c1082ec5)" style="fill: #887300; fill-opacity: 0.25"/>
    <path d="M 321.925997 168.54051 
L 320.490634 167.861179 
L 338.315348 128.605866 
L 340.981021 129.867479 
z
" clip-path="url(#p84c1082ec5)" style="fill: #887300; fill-opacity: 0.25"/>
    <path d="M 320.490634 167.861179 
L 319.034543 167.227501 
L 335.611178 127.429035 
L 338.315348 128.605866 
z
" clip-path="url(#p84c1082ec5)" style="fill: #887300; fill-opacity: 0.25"/>
    <path d="M 319.034543 167.227501 
L 317.559173 166.640107 
L 332.871205 126.33816 
L 335.611178 127.429035 
z
" clip-path="url(#p84c1082ec5)" style="fill: #887300; fill-opacity: 0.25"/>
    <path d="M 317.559173 166.640107 
L 316.065996 166.099582 
L 330.098162 125.334329 
L 332.871205 126.33816 
z
" clip-path="url(#p84c1082ec5)" style="fill: #887300; fill-opacity: 0.25"/>
    <path d="M 316.065996 166.099582 
L 314.5565 165.606466 
L 327.294812 124.418542 
L 330.098162 125.334329 
z
" clip-path="url(#p84c1082ec5)" style="fill: #887300; fill-opacity: 0.25"/>
    <path d="M 314.5565 165.606466 
L 313.03219 165.16125 
L 324.463951 123.591711 
L 327.294812 124.418542 
z
" clip-path="url(#p84c1082ec5)" style="fill: #887300; fill-opacity: 0.25"/>
    <path d="M 313.03219 165.16125 
L 311.494585 164.764377 
L 321.608399 122.854662 
L 324.463951 123.591711 
z
" clip-path="url(#p84c1082ec5)" style="fill: #887300; fill-opacity: 0.25"/>
    <path d="M 311.494585 164.764377 
L 309.945218 164.416243 
L 318.731004 122.208128 
L 321.608399 122.854662 
z
" clip-path="url(#p84c1082ec5)" style="fill: #887300; fill-opacity: 0.25"/>
    <path d="M 309.945218 164.416243 
L 308.385634 164.117196 
L 315.834634 121.652755 
L 318.731004 122.208128 
z
" clip-path="url(#p84c1082ec5)" style="fill: #887300; fill-opacity: 0.25"/>
    <path d="M 308.385634 164.117196 
L 306.817387 163.867533 
L 312.922175 121.189095 
L 315.834634 121.652755 
z
" clip-path="url(#p84c1082ec5)" style="fill: #887300; fill-opacity: 0.25"/>
    <path d="M 306.817387 163.867533 
L 305.242041 163.667504 
L 309.996531 120.817612 
L 312.922175 121.189095 
z
" clip-path="url(#p84c1082ec5)" style="fill: #887300; fill-opacity: 0.25"/>
    <path d="M 305.242041 163.667504 
L 303.661165 163.517307 
L 307.060619 120.538675 
L 309.996531 120.817612 
z
" clip-path="url(#p84c1082ec5)" style="fill: #887300; fill-opacity: 0.25"/>
    <path d="M 303.661165 163.517307 
L 302.076335 163.417093 
L 304.117364 120.352562 
L 307.060619 120.538675 
z
" clip-path="url(#p84c1082ec5)" style="fill: #887300; fill-opacity: 0.25"/>
    <path d="M 302.076335 163.417093 
L 300.489132 163.36696 
L 301.169701 120.259459 
L 304.117364 120.352562 
z
" clip-path="url(#p84c1082ec5)" style="fill: #887300; fill-opacity: 0.25"/>
    <path d="M 300.489132 163.36696 
L 298.901138 163.36696 
L 298.220569 120.259459 
L 301.169701 120.259459 
z
" clip-path="url(#p84c1082ec5)" style="fill: #887300; fill-opacity: 0.25"/>
    <path d="M 298.901138 163.36696 
L 297.313935 163.417093 
L 295.272906 120.352562 
L 298.220569 120.259459 
z
" clip-path="url(#p84c1082ec5)" style="fill: #887300; fill-opacity: 0.25"/>
    <path d="M 297.313935 163.417093 
L 295.729106 163.517307 
L 292.329652 120.538675 
L 295.272906 120.352562 
z
" clip-path="url(#p84c1082ec5)" style="fill: #887300; fill-opacity: 0.25"/>
    <path d="M 295.729106 163.517307 
L 294.14823 163.667504 
L 289.393739 120.817612 
L 292.329652 120.538675 
z
" clip-path="url(#p84c1082ec5)" style="fill: #887300; fill-opacity: 0.25"/>
    <path d="M 294.14823 163.667504 
L 292.572883 163.867533 
L 286.468095 121.189095 
L 289.393739 120.817612 
z
" clip-path="url(#p84c1082ec5)" style="fill: #887300; fill-opacity: 0.25"/>
    <path d="M 292.572883 163.867533 
L 291.004636 164.117196 
L 283.555637 121.652755 
L 286.468095 121.189095 
z
" clip-path="url(#p84c1082ec5)" style="fill: #887300; fill-opacity: 0.25"/>
    <path d="M 291.004636 164.117196 
L 289.445052 164.416243 
L 280.659266 122.208128 
L 283.555637 121.652755 
z
" clip-path="url(#p84c1082ec5)" style="fill: #887300; fill-opacity: 0.25"/>
    <path d="M 289.445052 164.416243 
L 287.895685 164.764377 
L 277.781871 122.854662 
L 280.659266 122.208128 
z
" clip-path="url(#p84c1082ec5)" style="fill: #887300; fill-opacity: 0.25"/>
    <path d="M 287.895685 164.764377 
L 286.358081 165.16125 
L 274.926319 123.591711 
L 277.781871 122.854662 
z
" clip-path="url(#p84c1082ec5)" style="fill: #887300; fill-opacity: 0.25"/>
    <path d="M 286.358081 165.16125 
L 284.83377 165.606466 
L 272.095458 124.418542 
L 274.926319 123.591711 
z
" clip-path="url(#p84c1082ec5)" style="fill: #887300; fill-opacity: 0.25"/>
    <path d="M 284.83377 165.606466 
L 283.324275 166.099582 
L 269.292108 125.334329 
L 272.095458 124.418542 
z
" clip-path="url(#p84c1082ec5)" style="fill: #887300; fill-opacity: 0.25"/>
    <path d="M 283.324275 166.099582 
L 281.831098 166.640107 
L 266.519065 126.33816 
L 269.292108 125.334329 
z
" clip-path="url(#p84c1082ec5)" style="fill: #887300; fill-opacity: 0.25"/>
    <path d="M 281.831098 166.640107 
L 280.355728 167.227501 
L 263.779093 127.429035 
L 266.519065 126.33816 
z
" clip-path="url(#p84c1082ec5)" style="fill: #887300; fill-opacity: 0.25"/>
    <path d="M 280.355728 167.227501 
L 278.899636 167.861179 
L 261.074922 128.605866 
L 263.779093 127.429035 
z
" clip-path="url(#p84c1082ec5)" style="fill: #887300; fill-opacity: 0.25"/>
    <path d="M 278.899636 167.861179 
L 277.464273 168.54051 
L 258.409249 129.867479 
L 261.074922 128.605866 
z
" clip-path="url(#p84c1082ec5)" style="fill: #887300; fill-opacity: 0.25"/>
    <path d="M 277.464273 168.54051 
L 276.051071 169.264815 
L 255.784731 131.212618 
L 258.409249 129.867479 
z
" clip-path="url(#p84c1082ec5)" style="fill: #887300; fill-opacity: 0.25"/>
    <path d="M 276.051071 169.264815 
L 274.661438 170.033374 
L 253.203983 132.639941 
L 255.784731 131.212618 
z
" clip-path="url(#p84c1082ec5)" style="fill: #887300; fill-opacity: 0.25"/>
    <path d="M 274.661438 170.033374 
L 273.296759 170.845419 
L 250.669579 134.148026 
L 253.203983 132.639941 
z
" clip-path="url(#p84c1082ec5)" style="fill: #887300; fill-opacity: 0.25"/>
    <path d="M 273.296759 170.845419 
L 271.958394 171.700142 
L 248.184044 135.735369 
L 250.669579 134.148026 
z
" clip-path="url(#p84c1082ec5)" style="fill: #887300; fill-opacity: 0.25"/>
    <path d="M 271.958394 171.700142 
L 270.647678 172.596691 
L 245.749857 137.400388 
L 248.184044 135.735369 
z
" clip-path="url(#p84c1082ec5)" style="fill: #887300; fill-opacity: 0.25"/>
    <path d="M 270.647678 172.596691 
L 269.365917 173.534172 
L 243.369444 139.141424 
L 245.749857 137.400388 
z
" clip-path="url(#p84c1082ec5)" style="fill: #887300; fill-opacity: 0.25"/>
    <path d="M 269.365917 173.534172 
L 268.114389 174.51165 
L 241.045177 140.95674 
L 243.369444 139.141424 
z
" clip-path="url(#p84c1082ec5)" style="fill: #887300; fill-opacity: 0.25"/>
    <path d="M 268.114389 174.51165 
L 266.894341 175.528151 
L 238.779374 142.844527 
L 241.045177 140.95674 
z
" clip-path="url(#p84c1082ec5)" style="fill: #887300; fill-opacity: 0.25"/>
    <path d="M 266.894341 175.528151 
L 265.706989 176.582661 
L 236.574293 144.802904 
L 238.779374 142.844527 
z
" clip-path="url(#p84c1082ec5)" style="fill: #887300; fill-opacity: 0.25"/>
    <path d="M 265.706989 176.582661 
L 264.553518 177.67413 
L 234.432133 146.829918 
L 236.574293 144.802904 
z
" clip-path="url(#p84c1082ec5)" style="fill: #887300; fill-opacity: 0.25"/>
    <path d="M 264.553518 177.67413 
L 263.435077 178.80147 
L 232.355027 148.923549 
L 234.432133 146.829918 
z
" clip-path="url(#p84c1082ec5)" style="fill: #887300; fill-opacity: 0.25"/>
    <path d="M 263.435077 178.80147 
L 262.352781 179.963557 
L 230.345048 151.08171 
L 232.355027 148.923549 
z
" clip-path="url(#p84c1082ec5)" style="fill: #887300; fill-opacity: 0.25"/>
    <path d="M 262.352781 179.963557 
L 261.307708 181.159232 
L 228.404199 153.302249 
L 230.345048 151.08171 
z
" clip-path="url(#p84c1082ec5)" style="fill: #887300; fill-opacity: 0.25"/>
    <path d="M 261.307708 181.159232 
L 260.300901 182.387303 
L 226.534414 155.582953 
L 228.404199 153.302249 
z
" clip-path="url(#p84c1082ec5)" style="fill: #887300; fill-opacity: 0.25"/>
    <path d="M 260.300901 182.387303 
L 259.333362 183.646547 
L 224.737557 157.921548 
L 226.534414 155.582953 
z
" clip-path="url(#p84c1082ec5)" style="fill: #887300; fill-opacity: 0.25"/>
    <path d="M 259.333362 183.646547 
L 258.406058 184.935708 
L 223.01542 160.315704 
L 224.737557 157.921548 
z
" clip-path="url(#p84c1082ec5)" style="fill: #887300; fill-opacity: 0.25"/>
    <path d="M 258.406058 184.935708 
L 257.519911 186.253501 
L 221.369718 162.763034 
L 223.01542 160.315704 
z
" clip-path="url(#p84c1082ec5)" style="fill: #887300; fill-opacity: 0.25"/>
    <path d="M 257.519911 186.253501 
L 256.675805 187.598612 
L 219.802093 165.261098 
L 221.369718 162.763034 
z
" clip-path="url(#p84c1082ec5)" style="fill: #887300; fill-opacity: 0.25"/>
    <path d="M 256.675805 187.598612 
L 255.874582 188.969701 
L 218.314108 167.807406 
L 219.802093 165.261098 
z
" clip-path="url(#p84c1082ec5)" style="fill: #887300; fill-opacity: 0.25"/>
    <path d="M 255.874582 188.969701 
L 255.11704 190.365401 
L 216.907244 170.39942 
L 218.314108 167.807406 
z
" clip-path="url(#p84c1082ec5)" style="fill: #887300; fill-opacity: 0.25"/>
    <path d="M 255.11704 190.365401 
L 254.403935 191.78432 
L 215.582905 173.034556 
L 216.907244 170.39942 
z
" clip-path="url(#p84c1082ec5)" style="fill: #887300; fill-opacity: 0.25"/>
    <path d="M 254.403935 191.78432 
L 253.735976 193.225045 
L 214.342412 175.710188 
L 215.582905 173.034556 
z
" clip-path="url(#p84c1082ec5)" style="fill: #887300; fill-opacity: 0.25"/>
    <path d="M 253.735976 193.225045 
L 253.113831 194.686139 
L 213.186999 178.423648 
L 214.342412 175.710188 
z
" clip-path="url(#p84c1082ec5)" style="fill: #887300; fill-opacity: 0.25"/>
    <path d="M 253.113831 194.686139 
L 252.538119 196.166145 
L 212.11782 181.172231 
L 213.186999 178.423648 
z
" clip-path="url(#p84c1082ec5)" style="fill: #887300; fill-opacity: 0.25"/>
    <path d="M 252.538119 196.166145 
L 252.009415 197.663589 
L 211.13594 183.953197 
L 212.11782 181.172231 
z
" clip-path="url(#p84c1082ec5)" style="fill: #887300; fill-opacity: 0.25"/>
    <path d="M 252.009415 197.663589 
L 251.528244 199.176977 
L 210.242338 186.763776 
L 211.13594 183.953197 
z
" clip-path="url(#p84c1082ec5)" style="fill: #887300; fill-opacity: 0.25"/>
    <path d="M 251.528244 199.176977 
L 251.095087 200.704801 
L 209.437904 189.601164 
L 210.242338 186.763776 
z
" clip-path="url(#p84c1082ec5)" style="fill: #887300; fill-opacity: 0.25"/>
    <path d="M 251.095087 200.704801 
L 250.710376 202.245538 
L 208.72344 192.462533 
L 209.437904 189.601164 
z
" clip-path="url(#p84c1082ec5)" style="fill: #887300; fill-opacity: 0.25"/>
    <path d="M 250.710376 202.245538 
L 250.374494 203.797653 
L 208.099659 195.345032 
L 208.72344 192.462533 
z
" clip-path="url(#p84c1082ec5)" style="fill: #887300; fill-opacity: 0.25"/>
    <path d="M 250.374494 203.797653 
L 250.087776 205.359598 
L 207.567182 198.245786 
L 208.099659 195.345032 
z
" clip-path="url(#p84c1082ec5)" style="fill: #887300; fill-opacity: 0.25"/>
    <path d="M 250.087776 205.359598 
L 249.850507 206.929815 
L 207.126541 201.161904 
L 207.567182 198.245786 
z
" clip-path="url(#p84c1082ec5)" style="fill: #887300; fill-opacity: 0.25"/>
    <path d="M 249.850507 206.929815 
L 249.662925 208.506741 
L 206.778174 204.09048 
L 207.126541 201.161904 
z
" clip-path="url(#p84c1082ec5)" style="fill: #887300; fill-opacity: 0.25"/>
    <path d="M 249.662925 208.506741 
L 249.525216 210.088802 
L 206.522428 207.028595 
L 206.778174 204.09048 
z
" clip-path="url(#p84c1082ec5)" style="fill: #887300; fill-opacity: 0.25"/>
    <path d="M 249.525216 210.088802 
L 249.437517 211.674423 
L 206.359559 209.973318 
L 206.522428 207.028595 
z
" clip-path="url(#p84c1082ec5)" style="fill: #887300; fill-opacity: 0.25"/>
    <path d="M 249.437517 211.674423 
L 249.399917 213.262022 
L 206.28973 212.921716 
L 206.359559 209.973318 
z
" clip-path="url(#p84c1082ec5)" style="fill: #887300; fill-opacity: 0.25"/>
    <path d="M 249.399917 213.262022 
L 249.412451 214.850016 
L 206.313008 215.870848 
L 206.28973 212.921716 
z
" clip-path="url(#p84c1082ec5)" style="fill: #887300; fill-opacity: 0.25"/>
    <path d="M 249.412451 214.850016 
L 249.475109 216.436823 
L 206.429372 218.817776 
L 206.313008 215.870848 
z
" clip-path="url(#p84c1082ec5)" style="fill: #887300; fill-opacity: 0.25"/>
    <path d="M 249.475109 216.436823 
L 249.587827 218.020862 
L 206.638705 221.759562 
L 206.429372 218.817776 
z
" clip-path="url(#p84c1082ec5)" style="fill: #887300; fill-opacity: 0.25"/>
    <path d="M 249.587827 218.020862 
L 249.750493 219.600552 
L 206.940799 224.693272 
L 206.638705 221.759562 
z
" clip-path="url(#p84c1082ec5)" style="fill: #887300; fill-opacity: 0.25"/>
    <path d="M 249.750493 219.600552 
L 249.962945 221.17432 
L 207.335353 227.615984 
L 206.940799 224.693272 
z
" clip-path="url(#p84c1082ec5)" style="fill: #887300; fill-opacity: 0.25"/>
    <path d="M 249.962945 221.17432 
L 250.224971 222.740596 
L 207.821972 230.524783 
L 207.335353 227.615984 
z
" clip-path="url(#p84c1082ec5)" style="fill: #887300; fill-opacity: 0.25"/>
    <path d="M 250.224971 222.740596 
L 250.53631 224.29782 
L 208.400173 233.416769 
L 207.821972 230.524783 
z
" clip-path="url(#p84c1082ec5)" style="fill: #887300; fill-opacity: 0.25"/>
    <path d="M 250.53631 224.29782 
L 250.896651 225.844438 
L 209.069379 236.289061 
L 208.400173 233.416769 
z
" clip-path="url(#p84c1082ec5)" style="fill: #887300; fill-opacity: 0.25"/>
    <path d="M 250.896651 225.844438 
L 251.305636 227.37891 
L 209.828922 239.138795 
L 209.069379 236.289061 
z
" clip-path="url(#p84c1082ec5)" style="fill: #887300; fill-opacity: 0.25"/>
    <path d="M 251.305636 227.37891 
L 251.762857 228.899706 
L 210.678046 241.96313 
L 209.828922 239.138795 
z
" clip-path="url(#p84c1082ec5)" style="fill: #887300; fill-opacity: 0.25"/>
    <path d="M 251.762857 228.899706 
L 252.267857 230.40531 
L 211.615905 244.759251 
L 210.678046 241.96313 
z
" clip-path="url(#p84c1082ec5)" style="fill: #887300; fill-opacity: 0.25"/>
    <path d="M 252.267857 230.40531 
L 252.820134 231.89422 
L 212.641562 247.524371 
L 211.615905 244.759251 
z
" clip-path="url(#p84c1082ec5)" style="fill: #887300; fill-opacity: 0.25"/>
    <path d="M 252.820134 231.89422 
L 253.419137 233.364954 
L 213.753996 250.255732 
L 212.641562 247.524371 
z
" clip-path="url(#p84c1082ec5)" style="fill: #887300; fill-opacity: 0.25"/>
    <path d="M 253.419137 233.364954 
L 254.064269 234.816044 
L 214.952099 252.950614 
L 213.753996 250.255732 
z
" clip-path="url(#p84c1082ec5)" style="fill: #887300; fill-opacity: 0.25"/>
    <path d="M 254.064269 234.816044 
L 254.754887 236.246044 
L 216.234675 255.606329 
L 214.952099 252.950614 
z
" clip-path="url(#p84c1082ec5)" style="fill: #887300; fill-opacity: 0.25"/>
    <path d="M 254.754887 236.246044 
L 255.490303 237.653529 
L 217.600446 258.220229 
L 216.234675 255.606329 
z
" clip-path="url(#p84c1082ec5)" style="fill: #887300; fill-opacity: 0.25"/>
    <path d="M 255.490303 237.653529 
L 256.269782 239.037096 
L 219.048051 260.789711 
L 217.600446 258.220229 
z
" clip-path="url(#p84c1082ec5)" style="fill: #887300; fill-opacity: 0.25"/>
    <path d="M 256.269782 239.037096 
L 257.092549 240.395365 
L 220.576047 263.312211 
L 219.048051 260.789711 
z
" clip-path="url(#p84c1082ec5)" style="fill: #887300; fill-opacity: 0.25"/>
    <path d="M 257.092549 240.395365 
L 257.957783 241.726983 
L 222.18291 265.785216 
L 220.576047 263.312211 
z
" clip-path="url(#p84c1082ec5)" style="fill: #887300; fill-opacity: 0.25"/>
    <path d="M 257.957783 241.726983 
L 258.864622 243.030622 
L 223.86704 268.20626 
L 222.18291 265.785216 
z
" clip-path="url(#p84c1082ec5)" style="fill: #887300; fill-opacity: 0.25"/>
    <path d="M 258.864622 243.030622 
L 259.812162 244.304984 
L 225.626756 270.572931 
L 223.86704 268.20626 
z
" clip-path="url(#p84c1082ec5)" style="fill: #887300; fill-opacity: 0.25"/>
    <path d="M 259.812162 244.304984 
L 260.799458 245.548796 
L 227.460305 272.882869 
L 225.626756 270.572931 
z
" clip-path="url(#p84c1082ec5)" style="fill: #887300; fill-opacity: 0.25"/>
    <path d="M 260.799458 245.548796 
L 261.825525 246.76082 
L 229.36586 275.133771 
L 227.460305 272.882869 
z
" clip-path="url(#p84c1082ec5)" style="fill: #887300; fill-opacity: 0.25"/>
    <path d="M 261.825525 246.76082 
L 262.889343 247.939848 
L 231.34152 277.323394 
L 229.36586 275.133771 
z
" clip-path="url(#p84c1082ec5)" style="fill: #887300; fill-opacity: 0.25"/>
    <path d="M 262.889343 247.939848 
L 263.989848 249.084704 
L 233.385317 279.449554 
L 231.34152 277.323394 
z
" clip-path="url(#p84c1082ec5)" style="fill: #887300; fill-opacity: 0.25"/>
    <path d="M 263.989848 249.084704 
L 265.125946 250.194246 
L 235.495213 281.510134 
L 233.385317 279.449554 
z
" clip-path="url(#p84c1082ec5)" style="fill: #887300; fill-opacity: 0.25"/>
    <path d="M 265.125946 250.194246 
L 266.296503 251.26737 
L 237.669105 283.503077 
L 235.495213 281.510134 
z
" clip-path="url(#p84c1082ec5)" style="fill: #887300; fill-opacity: 0.25"/>
    <path d="M 266.296503 251.26737 
L 267.500353 252.303005 
L 239.904825 285.426399 
L 237.669105 283.503077 
z
" clip-path="url(#p84c1082ec5)" style="fill: #887300; fill-opacity: 0.25"/>
    <path d="M 267.500353 252.303005 
L 268.736295 253.300119 
L 242.200146 287.278182 
L 239.904825 285.426399 
z
" clip-path="url(#p84c1082ec5)" style="fill: #887300; fill-opacity: 0.25"/>
    <path d="M 268.736295 253.300119 
L 270.003097 254.257717 
L 244.552779 289.056579 
L 242.200146 287.278182 
z
" clip-path="url(#p84c1082ec5)" style="fill: #887300; fill-opacity: 0.25"/>
    <path d="M 270.003097 254.257717 
L 271.299497 255.174846 
L 246.960379 290.759819 
L 244.552779 289.056579 
z
" clip-path="url(#p84c1082ec5)" style="fill: #887300; fill-opacity: 0.25"/>
    <path d="M 271.299497 255.174846 
L 272.624203 256.050591 
L 249.420547 292.386202 
L 246.960379 290.759819 
z
" clip-path="url(#p84c1082ec5)" style="fill: #887300; fill-opacity: 0.25"/>
    <path d="M 272.624203 256.050591 
L 273.975893 256.88408 
L 251.930829 293.934109 
L 249.420547 292.386202 
z
" clip-path="url(#p84c1082ec5)" style="fill: #887300; fill-opacity: 0.25"/>
    <path d="M 273.975893 256.88408 
L 275.353221 257.67448 
L 254.488724 295.401996 
L 251.930829 293.934109 
z
" clip-path="url(#p84c1082ec5)" style="fill: #887300; fill-opacity: 0.25"/>
    <path d="M 275.353221 257.67448 
L 276.754814 258.421005 
L 257.091681 296.7884 
L 254.488724 295.401996 
z
" clip-path="url(#p84c1082ec5)" style="fill: #887300; fill-opacity: 0.25"/>
    <path d="M 276.754814 258.421005 
L 278.179274 259.122911 
L 259.737106 298.091938 
L 257.091681 296.7884 
z
" clip-path="url(#p84c1082ec5)" style="fill: #887300; fill-opacity: 0.25"/>
    <path d="M 278.179274 259.122911 
L 279.625181 259.779497 
L 262.422363 299.311313 
L 259.737106 298.091938 
z
" clip-path="url(#p84c1082ec5)" style="fill: #887300; fill-opacity: 0.25"/>
    <path d="M 279.625181 259.779497 
L 281.091094 260.390109 
L 265.144774 300.445307 
L 262.422363 299.311313 
z
" clip-path="url(#p84c1082ec5)" style="fill: #887300; fill-opacity: 0.25"/>
    <path d="M 281.091094 260.390109 
L 282.575553 260.954138 
L 267.901625 301.49279 
L 265.144774 300.445307 
z
" clip-path="url(#p84c1082ec5)" style="fill: #887300; fill-opacity: 0.25"/>
    <path d="M 282.575553 260.954138 
L 284.077076 261.471023 
L 270.690169 302.452719 
L 267.901625 301.49279 
z
" clip-path="url(#p84c1082ec5)" style="fill: #887300; fill-opacity: 0.25"/>
    <path d="M 284.077076 261.471023 
L 285.594168 261.940248 
L 273.507625 303.324137 
L 270.690169 302.452719 
z
" clip-path="url(#p84c1082ec5)" style="fill: #887300; fill-opacity: 0.25"/>
    <path d="M 285.594168 261.940248 
L 287.125317 262.361345 
L 276.351186 304.106174 
L 273.507625 303.324137 
z
" clip-path="url(#p84c1082ec5)" style="fill: #887300; fill-opacity: 0.25"/>
    <path d="M 287.125317 262.361345 
L 288.668995 262.733895 
L 279.218017 304.798052 
L 276.351186 304.106174 
z
" clip-path="url(#p84c1082ec5)" style="fill: #887300; fill-opacity: 0.25"/>
    <path d="M 288.668995 262.733895 
L 290.223664 263.057525 
L 282.10526 305.39908 
L 279.218017 304.798052 
z
" clip-path="url(#p84c1082ec5)" style="fill: #887300; fill-opacity: 0.25"/>
    <path d="M 290.223664 263.057525 
L 291.787774 263.331915 
L 285.010036 305.90866 
L 282.10526 305.39908 
z
" clip-path="url(#p84c1082ec5)" style="fill: #887300; fill-opacity: 0.25"/>
    <path d="M 291.787774 263.331915 
L 293.359767 263.556789 
L 287.929451 306.326284 
L 285.010036 305.90866 
z
" clip-path="url(#p84c1082ec5)" style="fill: #887300; fill-opacity: 0.25"/>
    <path d="M 293.359767 263.556789 
L 294.938075 263.731924 
L 290.860595 306.651534 
L 287.929451 306.326284 
z
" clip-path="url(#p84c1082ec5)" style="fill: #887300; fill-opacity: 0.25"/>
    <path d="M 294.938075 263.731924 
L 296.521125 263.857145 
L 293.800544 306.884088 
L 290.860595 306.651534 
z
" clip-path="url(#p84c1082ec5)" style="fill: #887300; fill-opacity: 0.25"/>
    <path d="M 296.521125 263.857145 
L 298.107339 263.932328 
L 296.74637 307.023713 
L 293.800544 306.884088 
z
" clip-path="url(#p84c1082ec5)" style="fill: #887300; fill-opacity: 0.25"/>
    <path d="M 298.107339 263.932328 
L 299.695135 263.957397 
L 299.695135 307.07027 
L 296.74637 307.023713 
z
" clip-path="url(#p84c1082ec5)" style="fill: #887300; fill-opacity: 0.25"/>
   </g>
   <g id="Path3DCollection_1">
    <defs>
     <path id="m3f64059833" d="M 0 2.236068 
C 0.593012 2.236068 1.161816 2.000462 1.581139 1.581139 
C 2.000462 1.161816 2.236068 0.593012 2.236068 0 
C 2.236068 -0.593012 2.000462 -1.161816 1.581139 -1.581139 
C 1.161816 -2.000462 0.593012 -2.236068 0 -2.236068 
C -0.593012 -2.236068 -1.161816 -2.000462 -1.581139 -1.581139 
C -2.000462 -1.161816 -2.236068 -0.593012 -2.236068 0 
C -2.236068 0.593012 -2.000462 1.161816 -1.581139 1.581139 
C -1.161816 2.000462 -0.593012 2.236068 0 2.236068 
z
" style="stroke: #000000"/>
    </defs>
    <g clip-path="url(#p84c1082ec5)">
     <use xlink:href="#m3f64059833" x="299.695135" y="307.07027" style="stroke: #000000"/>
    </g>
   </g>
   <g id="Path3DCollection_2">
    <g clip-path="url(#p84c1082ec5)">
     <use xlink:href="#m3f64059833" x="299.695135" y="263.957397" style="stroke: #000000"/>
    </g>
   </g>
   <g id="legend_1">
    <g id="patch_3">
     <path d="M 145.68 372.48 
L 249.001972 372.48 
Q 253.801972 372.48 253.801972 367.68 
L 253.801972 302.214692 
Q 253.801972 297.414692 249.001972 297.414692 
L 145.68 297.414692 
Q 140.88 297.414692 140.88 302.214692 
L 140.88 367.68 
Q 140.88 372.48 145.68 372.48 
z
" style="fill: #ffffff; opacity: 0.8; stroke: #cccccc; stroke-linejoin: miter"/>
    </g>
    <g id="line2d_3">
     <path d="M 150.48 315.414692 
L 174.48 315.414692 
L 198.48 315.414692 
" style="fill: none; stroke: #dc143c; stroke-width: 3; stroke-linecap: square"/>
    </g>
    <g id="text_1">
     <!-- $\nu_+$ -->
     <g transform="translate(217.68 323.814692) scale(0.24 -0.24)">
      <defs>
       <path id="LMMathItalic12-Regular-17" d="M 3290 2655 
C 3290 2758 3206 2816 3123 2816 
C 2938 2816 2893 2643 2880 2598 
C 2502 1264 1626 472 774 192 
L 1408 2751 
C 1408 2777 1389 2816 1338 2816 
C 1293 2816 691 2758 595 2751 
C 525 2745 461 2739 461 2623 
C 461 2559 512 2559 602 2559 
C 902 2559 922 2515 922 2445 
C 922 2419 909 2343 902 2317 
L 339 64 
C 339 38 358 0 403 0 
L 538 0 
C 627 0 1600 230 2349 996 
C 3174 1845 3290 2630 3290 2655 
z
" transform="scale(0.015625)"/>
       <path id="CMR10-2b" d="M 2618 1472 
L 4403 1472 
C 4493 1472 4614 1472 4614 1600 
C 4614 1728 4493 1728 4403 1728 
L 2618 1728 
L 2618 3501 
C 2618 3590 2618 3712 2490 3712 
C 2362 3712 2362 3590 2362 3501 
L 2362 1728 
L 570 1728 
C 480 1728 358 1728 358 1600 
C 358 1472 480 1472 570 1472 
L 2362 1472 
L 2362 -308 
C 2362 -397 2362 -519 2490 -519 
C 2618 -519 2618 -397 2618 -308 
L 2618 1472 
z
" transform="scale(0.015625)"/>
      </defs>
      <use xlink:href="#LMMathItalic12-Regular-17" transform="scale(0.996264)"/>
      <use xlink:href="#CMR10-2b" transform="translate(49.1449 -14.943915) scale(0.788955)"/>
     </g>
    </g>
    <g id="line2d_4">
     <path d="M 150.48 349.379148 
L 174.48 349.379148 
L 198.48 349.379148 
" style="fill: none; stroke: #4169e1; stroke-width: 3; stroke-linecap: square"/>
    </g>
    <g id="text_2">
     <!-- $\nu_-$ -->
     <g transform="translate(217.68 357.779148) scale(0.24 -0.24)">
      <defs>
       <path id="LMMathSymbols10-Regular-0" d="M 4442 1600 
C 4442 1728 4320 1728 4230 1728 
L 742 1728 
C 653 1728 531 1728 531 1600 
C 531 1472 653 1472 742 1472 
L 4230 1472 
C 4320 1472 4442 1472 4442 1600 
z
" transform="scale(0.015625)"/>
      </defs>
      <use xlink:href="#LMMathItalic12-Regular-17" transform="scale(0.996264)"/>
      <use xlink:href="#LMMathSymbols10-Regular-0" transform="translate(48.198482 -14.943915) scale(0.757155)"/>
     </g>
    </g>
   </g>
  </g>
 </g>
 <defs>
  <clipPath id="p84c1082ec5">
   <rect x="128.88" y="51.84" width="332.64" height="332.64"/>
  </clipPath>
 </defs>
</svg>
