<?xml version="1.0" encoding="utf-8" standalone="no"?>
<!DOCTYPE svg PUBLIC "-//W3C//DTD SVG 1.1//EN"
  "http://www.w3.org/Graphics/SVG/1.1/DTD/svg11.dtd">
<svg xmlns:xlink="http://www.w3.org/1999/xlink" width="576pt" height="432pt" viewBox="0 0 576 432" xmlns="http://www.w3.org/2000/svg" version="1.1">
 <metadata>
  <rdf:RDF xmlns:dc="http://purl.org/dc/elements/1.1/" xmlns:cc="http://creativecommons.org/ns#" xmlns:rdf="http://www.w3.org/1999/02/22-rdf-syntax-ns#">
   <cc:Work>
    <dc:type rdf:resource="http://purl.org/dc/dcmitype/StillImage"/>
    <dc:date>2025-08-04T14:15:06.588731</dc:date>
    <dc:format>image/svg+xml</dc:format>
    <dc:creator>
     <cc:Agent>
      <dc:title>Matplotlib v3.9.2, https://matplotlib.org/</dc:title>
     </cc:Agent>
    </dc:creator>
   </cc:Work>
  </rdf:RDF>
 </metadata>
 <defs>
  <style type="text/css">*{stroke-linejoin: round; stroke-linecap: butt}</style>
 </defs>
 <g id="figure_1">
  <g id="patch_1">
   <path d="M 0 432 
L 576 432 
L 576 0 
L 0 0 
z
" style="fill: #ffffff"/>
  </g>
  <g id="patch_2">
   <path d="M 128.88 384.48 
L 461.52 384.48 
L 461.52 51.84 
L 128.88 51.84 
z
" style="fill: #ffffff"/>
  </g>
  <g id="axes_1">
   <g id="line2d_1">
    <path d="M 299.695135 307.07027 
L 306.000964 306.963512 
L 312.292812 306.413392 
L 318.541196 305.421574 
L 324.716785 303.991991 
L 330.790571 302.130837 
L 336.734028 299.846532 
L 342.519276 297.149683 
L 348.119241 294.053029 
L 353.507803 290.571364 
L 358.65995 286.721463 
L 363.551914 282.521979 
L 368.16131 277.993344 
L 372.467257 273.157644 
L 376.450495 268.038495 
L 380.09349 262.660908 
L 383.38053 257.051135 
L 386.297808 251.236525 
L 388.833492 245.245356 
L 390.977781 239.106678 
L 392.722956 232.850135 
L 394.063409 226.5058 
L 394.995659 220.103998 
L 395.518361 213.67513 
L 395.632299 207.249501 
L 395.340358 200.857149 
L 394.647494 194.527671 
L 393.560685 188.290063 
L 392.088873 182.172559 
L 390.242887 176.202475 
L 388.035364 170.406068 
L 385.480653 164.808395 
L 382.594714 159.433185 
L 379.395001 154.302724 
L 375.900345 149.437745 
L 372.130826 144.857331 
L 368.107635 140.578837 
L 363.852941 136.617812 
L 359.389744 132.987947 
L 354.741729 129.701024 
L 349.933121 126.766886 
L 344.988535 124.19342 
L 339.932828 121.986546 
L 334.790953 120.150228 
L 329.587816 118.686494 
L 324.348135 117.595461 
L 319.096305 116.875386 
L 313.856264 116.522716 
L 308.651375 116.532153 
L 303.504307 116.896729 
L 298.436922 117.607889 
L 293.47018 118.655583 
L 288.624042 120.028362 
L 283.917394 121.713485 
L 279.367966 123.697029 
L 274.992275 125.964 
L 270.805573 128.498452 
L 266.8218 131.283607 
L 263.053556 134.301973 
L 259.512078 137.535465 
L 256.207225 140.965526 
L 253.147482 144.573246 
L 250.33996 148.339472 
L 247.790416 152.244925 
L 245.503277 156.270306 
L 243.481668 160.396398 
L 241.727459 164.604166 
L 240.2413 168.874842 
L 239.022684 173.190016 
L 238.069993 177.531711 
L 237.380568 181.882452 
L 236.950767 186.22533 
L 236.776038 190.544057 
L 236.850984 194.823013 
L 237.169437 199.047285 
L 237.724526 203.202699 
L 238.508753 207.275845 
L 239.514062 211.254092 
L 240.731903 215.125603 
L 242.153309 218.879332 
L 243.768951 222.505027 
L 245.569205 225.993219 
L 247.544208 229.335209 
L 249.683912 232.523051 
L 251.978134 235.54953 
L 254.416603 238.408136 
L 256.988997 241.093034 
L 259.684982 243.599038 
L 262.494243 245.921577 
L 265.406509 248.056659 
L 268.411575 250.000845 
L 271.499321 251.751207 
L 274.659721 253.305303 
L 277.882856 254.661144 
L 281.158917 255.817162 
L 284.478204 256.772185 
L 287.831126 257.525415 
L 291.208198 258.076401 
L 294.600031 258.425025 
L 297.997325 258.571482 
L 299.695135 258.569044 
L 299.695135 258.569044 
" clip-path="url(#p62f1756ef0)" style="fill: none; stroke: #dc143c; stroke-width: 3; stroke-linecap: square"/>
   </g>
   <g id="line2d_2">
    <path d="M 299.695135 258.569044 
L 303.083352 258.413285 
L 306.454099 258.057167 
L 309.798302 257.501926 
L 313.106924 256.749088 
L 316.37096 255.800479 
L 319.58142 254.658226 
L 322.729331 253.324777 
L 325.805722 251.802906 
L 328.80163 250.095739 
L 331.708091 248.206764 
L 334.516151 246.139858 
L 337.216866 243.89931 
L 339.801317 241.489837 
L 342.26062 238.916618 
L 344.585945 236.18531 
L 346.768534 233.302077 
L 348.799734 230.27361 
L 350.671018 227.107146 
L 352.374021 223.810495 
L 353.900579 220.392046 
L 355.242763 216.860792 
L 356.392929 213.226332 
L 357.343761 209.49888 
L 358.088316 205.689272 
L 358.620082 201.808957 
L 358.933026 197.869992 
L 359.021649 193.885034 
L 358.881039 189.867316 
L 358.506932 185.830627 
L 357.895758 181.789282 
L 357.044705 177.758086 
L 355.951763 173.752294 
L 354.615782 169.787565 
L 353.036516 165.879905 
L 351.214673 162.045614 
L 349.151951 158.301216 
L 346.851084 154.663397 
L 344.315869 151.148924 
L 341.551196 147.774571 
L 338.563074 144.557033 
L 335.358645 141.512843 
L 331.946192 138.658278 
L 328.335151 136.009273 
L 324.536097 133.58132 
L 320.560742 131.389377 
L 316.421913 129.447769 
L 312.133526 127.770094 
L 307.710553 126.369127 
L 303.168982 125.256722 
L 298.525763 124.443727 
L 293.798756 123.939887 
L 289.006666 123.753762 
L 284.168965 123.892647 
L 279.305822 124.362493 
L 274.438008 125.167834 
L 269.586811 126.311729 
L 264.773933 127.795699 
L 260.021387 129.619677 
L 255.35139 131.78197 
L 250.786247 134.279224 
L 246.348239 137.106398 
L 242.059496 140.25675 
L 237.941883 143.721834 
L 234.016869 147.491506 
L 230.30541 151.553936 
L 226.827816 155.895635 
L 223.603636 160.501496 
L 220.651533 165.354834 
L 217.989162 170.437451 
L 215.633059 175.7297 
L 213.598528 181.210563 
L 211.899532 186.857741 
L 210.548597 192.64775 
L 209.556714 198.556029 
L 208.933255 204.557052 
L 208.685895 210.624455 
L 208.820538 216.731163 
L 209.341262 222.849527 
L 210.250265 228.951468 
L 211.547826 235.008622 
L 213.232277 240.992496 
L 215.299983 246.874615 
L 217.745336 252.626687 
L 220.560761 258.220753 
L 223.736735 263.629354 
L 227.261809 268.825681 
L 231.122659 273.783732 
L 235.30413 278.478467 
L 239.789307 282.885958 
L 244.559586 286.983525 
L 249.594764 290.749883 
L 254.873136 294.165266 
L 260.3716 297.211555 
L 266.06578 299.872389 
L 271.930142 302.133269 
L 277.93814 303.981656 
L 284.062347 305.407052 
L 290.274609 306.401069 
L 296.546194 306.957493 
L 299.695135 307.07027 
L 299.695135 307.07027 
" clip-path="url(#p62f1756ef0)" style="fill: none; stroke: #4169e1; stroke-width: 3; stroke-linecap: square"/>
   </g>
   <g id="Path3DCollection_1">
    <defs>
     <path id="ma928f4b254" d="M 0 2.236068 
C 0.593012 2.236068 1.161816 2.000462 1.581139 1.581139 
C 2.000462 1.161816 2.236068 0.593012 2.236068 0 
C 2.236068 -0.593012 2.000462 -1.161816 1.581139 -1.581139 
C 1.161816 -2.000462 0.593012 -2.236068 0 -2.236068 
C -0.593012 -2.236068 -1.161816 -2.000462 -1.581139 -1.581139 
C -2.000462 -1.161816 -2.236068 -0.593012 -2.236068 0 
C -2.236068 0.593012 -2.000462 1.161816 -1.581139 1.581139 
C -1.161816 2.000462 -0.593012 2.236068 0 2.236068 
z
" style="stroke: #000000"/>
    </defs>
    <g clip-path="url(#p62f1756ef0)">
     <use xlink:href="#ma928f4b254" x="299.695135" y="307.07027" style="stroke: #000000"/>
    </g>
   </g>
   <g id="Path3DCollection_2">
    <g clip-path="url(#p62f1756ef0)">
     <use xlink:href="#ma928f4b254" x="299.695135" y="258.569044" style="stroke: #000000"/>
    </g>
   </g>
   <g id="Poly3DCollection_1">
    <path d="M 299.695135 258.569044 
L 301.390858 258.516275 
L 302.847953 307.072326 
L 299.695135 307.07027 
z
" clip-path="url(#p62f1756ef0)" style="fill: #947d00; fill-opacity: 0.25"/>
    <path d="M 296.546194 306.957493 
L 299.695135 307.07027 
L 299.695135 258.569044 
L 297.997325 258.571482 
z
" clip-path="url(#p62f1756ef0)" style="fill: #caaa00; fill-opacity: 0.25"/>
    <path d="M 301.390858 258.516275 
L 303.083352 258.413285 
L 306.000964 306.963512 
L 302.847953 307.072326 
z
" clip-path="url(#p62f1756ef0)" style="fill: #927b00; fill-opacity: 0.25"/>
    <path d="M 293.4048 306.734282 
L 296.546194 306.957493 
L 297.997325 258.571482 
L 296.298573 258.5235 
z
" clip-path="url(#p62f1756ef0)" style="fill: #c9aa00; fill-opacity: 0.25"/>
    <path d="M 303.083352 258.413285 
L 304.771478 258.260201 
L 309.15048 306.743822 
L 306.000964 306.963512 
z
" clip-path="url(#p62f1756ef0)" style="fill: #917a00; fill-opacity: 0.25"/>
    <path d="M 290.274609 306.401069 
L 293.4048 306.734282 
L 296.298573 258.5235 
L 294.600031 258.425025 
z
" clip-path="url(#p62f1756ef0)" style="fill: #c9a900; fill-opacity: 0.25"/>
    <path d="M 304.771478 258.260201 
L 306.454099 258.057167 
L 312.292812 306.413392 
L 309.15048 306.743822 
z
" clip-path="url(#p62f1756ef0)" style="fill: #8f7900; fill-opacity: 0.25"/>
    <path d="M 287.159255 305.958423 
L 290.274609 306.401069 
L 294.600031 258.425025 
L 292.902852 258.276003 
z
" clip-path="url(#p62f1756ef0)" style="fill: #c8a900; fill-opacity: 0.25"/>
    <path d="M 306.454099 258.057167 
L 308.130084 257.804349 
L 315.424276 305.972503 
L 312.292812 306.413392 
z
" clip-path="url(#p62f1756ef0)" style="fill: #8e7800; fill-opacity: 0.25"/>
    <path d="M 284.062347 305.407052 
L 287.159255 305.958423 
L 292.902852 258.276003 
L 291.208198 258.076401 
z
" clip-path="url(#p62f1756ef0)" style="fill: #c8a800; fill-opacity: 0.25"/>
    <path d="M 308.130084 257.804349 
L 309.798302 257.501926 
L 318.541196 305.421574 
L 315.424276 305.972503 
z
" clip-path="url(#p62f1756ef0)" style="fill: #8c7600; fill-opacity: 0.25"/>
    <path d="M 280.987462 304.747802 
L 284.062347 305.407052 
L 291.208198 258.076401 
L 289.517232 257.826204 
z
" clip-path="url(#p62f1756ef0)" style="fill: #c7a800; fill-opacity: 0.25"/>
    <path d="M 309.798302 257.501926 
L 311.457624 257.1501 
L 321.639912 304.761169 
L 318.541196 305.421574 
z
" clip-path="url(#p62f1756ef0)" style="fill: #8b7500; fill-opacity: 0.25"/>
    <path d="M 277.93814 303.981656 
L 280.987462 304.747802 
L 289.517232 257.826204 
L 287.831126 257.525415 
z
" clip-path="url(#p62f1756ef0)" style="fill: #c7a800; fill-opacity: 0.25"/>
    <path d="M 311.457624 257.1501 
L 313.106924 256.749088 
L 324.716785 303.991991 
L 321.639912 304.761169 
z
" clip-path="url(#p62f1756ef0)" style="fill: #897400; fill-opacity: 0.25"/>
    <path d="M 274.917882 303.109729 
L 277.93814 303.981656 
L 287.831126 257.525415 
L 286.151055 257.174061 
z
" clip-path="url(#p62f1756ef0)" style="fill: #c6a700; fill-opacity: 0.25"/>
    <path d="M 313.106924 256.749088 
L 314.745077 256.299129 
L 327.768199 303.114886 
L 324.716785 303.991991 
z
" clip-path="url(#p62f1756ef0)" style="fill: #877200; fill-opacity: 0.25"/>
    <path d="M 271.930142 302.133269 
L 274.917882 303.109729 
L 286.151055 257.174061 
L 284.478204 256.772185 
z
" clip-path="url(#p62f1756ef0)" style="fill: #c6a700; fill-opacity: 0.25"/>
    <path d="M 268.978325 301.053654 
L 271.930142 302.133269 
L 284.478204 256.772185 
L 282.813759 256.319856 
z
" clip-path="url(#p62f1756ef0)" style="fill: #c6a700; fill-opacity: 0.25"/>
    <path d="M 314.745077 256.299129 
L 316.37096 255.800479 
L 330.790571 302.130837 
L 327.768199 303.114886 
z
" clip-path="url(#p62f1756ef0)" style="fill: #867100; fill-opacity: 0.25"/>
    <path d="M 316.37096 255.800479 
L 317.983448 255.253412 
L 333.78035 301.040966 
L 330.790571 302.130837 
z
" clip-path="url(#p62f1756ef0)" style="fill: #846f00; fill-opacity: 0.25"/>
    <path d="M 266.06578 299.872389 
L 268.978325 301.053654 
L 282.813759 256.319856 
L 281.158917 255.817162 
z
" clip-path="url(#p62f1756ef0)" style="fill: #c6a700; fill-opacity: 0.25"/>
    <path d="M 317.983448 255.253412 
L 319.58142 254.658226 
L 336.734028 299.846532 
L 333.78035 301.040966 
z
" clip-path="url(#p62f1756ef0)" style="fill: #826e00; fill-opacity: 0.25"/>
    <path d="M 263.195796 298.591105 
L 266.06578 299.872389 
L 281.158917 255.817162 
L 279.51488 255.264213 
z
" clip-path="url(#p62f1756ef0)" style="fill: #c6a700; fill-opacity: 0.25"/>
    <path d="M 319.58142 254.658226 
L 321.163755 254.015235 
L 339.648141 298.548928 
L 336.734028 299.846532 
z
" clip-path="url(#p62f1756ef0)" style="fill: #806c00; fill-opacity: 0.25"/>
    <path d="M 260.3716 297.211555 
L 263.195796 298.591105 
L 279.51488 255.264213 
L 277.882856 254.661144 
z
" clip-path="url(#p62f1756ef0)" style="fill: #c6a700; fill-opacity: 0.25"/>
    <path d="M 321.163755 254.015235 
L 322.729331 253.324777 
L 342.519276 297.149683 
L 339.648141 298.548928 
z
" clip-path="url(#p62f1756ef0)" style="fill: #7e6b00; fill-opacity: 0.25"/>
    <path d="M 257.596352 295.735613 
L 260.3716 297.211555 
L 277.882856 254.661144 
L 276.264063 254.008113 
z
" clip-path="url(#p62f1756ef0)" style="fill: #c6a700; fill-opacity: 0.25"/>
    <path d="M 322.729331 253.324777 
L 324.277027 252.587207 
L 345.344076 295.650455 
L 342.519276 297.149683 
z
" clip-path="url(#p62f1756ef0)" style="fill: #7d6900; fill-opacity: 0.25"/>
    <path d="M 254.873136 294.165266 
L 257.596352 295.735613 
L 276.264063 254.008113 
L 274.659721 253.305303 
z
" clip-path="url(#p62f1756ef0)" style="fill: #c6a700; fill-opacity: 0.25"/>
    <path d="M 324.277027 252.587207 
L 325.805722 251.802906 
L 348.119241 294.053029 
L 345.344076 295.650455 
z
" clip-path="url(#p62f1756ef0)" style="fill: #7b6700; fill-opacity: 0.25"/>
    <path d="M 252.204963 292.502619 
L 254.873136 294.165266 
L 274.659721 253.305303 
L 273.071061 252.552923 
z
" clip-path="url(#p62f1756ef0)" style="fill: #c6a700; fill-opacity: 0.25"/>
    <path d="M 325.805722 251.802906 
L 327.314297 250.972276 
L 350.841538 292.35932 
L 348.119241 294.053029 
z
" clip-path="url(#p62f1756ef0)" style="fill: #796600; fill-opacity: 0.25"/>
    <path d="M 249.594764 290.749883 
L 252.204963 292.502619 
L 273.071061 252.552923 
L 271.499321 251.751207 
z
" clip-path="url(#p62f1756ef0)" style="fill: #c6a700; fill-opacity: 0.25"/>
    <path d="M 327.314297 250.972276 
L 328.80163 250.095739 
L 353.507803 290.571364 
L 350.841538 292.35932 
z
" clip-path="url(#p62f1756ef0)" style="fill: #776400; fill-opacity: 0.25"/>
    <path d="M 247.045385 288.909378 
L 249.594764 290.749883 
L 271.499321 251.751207 
L 269.945742 250.900417 
z
" clip-path="url(#p62f1756ef0)" style="fill: #c7a700; fill-opacity: 0.25"/>
    <path d="M 244.559586 286.983525 
L 247.045385 288.909378 
L 269.945742 250.900417 
L 268.411575 250.000845 
z
" clip-path="url(#p62f1756ef0)" style="fill: #c7a800; fill-opacity: 0.25"/>
    <path d="M 328.80163 250.095739 
L 330.266601 249.173744 
L 356.114945 288.69132 
L 353.507803 290.571364 
z
" clip-path="url(#p62f1756ef0)" style="fill: #756300; fill-opacity: 0.25"/>
    <path d="M 330.266601 249.173744 
L 331.708091 248.206764 
L 358.65995 286.721463 
L 356.114945 288.69132 
z
" clip-path="url(#p62f1756ef0)" style="fill: #746100; fill-opacity: 0.25"/>
    <path d="M 242.140035 284.974846 
L 244.559586 286.983525 
L 268.411575 250.000845 
L 266.898077 249.052809 
z
" clip-path="url(#p62f1756ef0)" style="fill: #c7a800; fill-opacity: 0.25"/>
    <path d="M 239.789307 282.885958 
L 242.140035 284.974846 
L 266.898077 249.052809 
L 265.406509 248.056659 
z
" clip-path="url(#p62f1756ef0)" style="fill: #c8a900; fill-opacity: 0.25"/>
    <path d="M 331.708091 248.206764 
L 333.12498 247.195294 
L 361.139888 284.664182 
L 358.65995 286.721463 
z
" clip-path="url(#p62f1756ef0)" style="fill: #726000; fill-opacity: 0.25"/>
    <path d="M 333.12498 247.195294 
L 334.516151 246.139858 
L 363.551914 282.521979 
L 361.139888 284.664182 
z
" clip-path="url(#p62f1756ef0)" style="fill: #705f00; fill-opacity: 0.25"/>
    <path d="M 237.509879 280.719567 
L 239.789307 282.885958 
L 265.406509 248.056659 
L 263.93814 247.012778 
z
" clip-path="url(#p62f1756ef0)" style="fill: #c8a900; fill-opacity: 0.25"/>
    <path d="M 334.516151 246.139858 
L 335.880485 245.041005 
L 365.893275 280.297462 
L 363.551914 282.521979 
z
" clip-path="url(#p62f1756ef0)" style="fill: #6e5d00; fill-opacity: 0.25"/>
    <path d="M 235.30413 278.478467 
L 237.509879 280.719567 
L 263.93814 247.012778 
L 262.494243 245.921577 
z
" clip-path="url(#p62f1756ef0)" style="fill: #c9aa00; fill-opacity: 0.25"/>
    <path d="M 233.174333 276.165537 
L 235.30413 278.478467 
L 262.494243 245.921577 
L 261.076097 244.783503 
z
" clip-path="url(#p62f1756ef0)" style="fill: #caaa00; fill-opacity: 0.25"/>
    <path d="M 335.880485 245.041005 
L 337.216866 243.89931 
L 368.16131 277.993344 
L 365.893275 280.297462 
z
" clip-path="url(#p62f1756ef0)" style="fill: #6d5c00; fill-opacity: 0.25"/>
    <path d="M 337.216866 243.89931 
L 338.524181 242.715376 
L 370.353458 275.612435 
L 368.16131 277.993344 
z
" clip-path="url(#p62f1756ef0)" style="fill: #6b5a00; fill-opacity: 0.25"/>
    <path d="M 231.122659 273.783732 
L 233.174333 276.165537 
L 261.076097 244.783503 
L 259.684982 243.599038 
z
" clip-path="url(#p62f1756ef0)" style="fill: #cbab00; fill-opacity: 0.25"/>
    <path d="M 229.151167 271.33608 
L 231.122659 273.783732 
L 259.684982 243.599038 
L 258.322186 242.368698 
z
" clip-path="url(#p62f1756ef0)" style="fill: #cbac00; fill-opacity: 0.25"/>
    <path d="M 338.524181 242.715376 
L 339.801317 241.489837 
L 372.467257 273.157644 
L 370.353458 275.612435 
z
" clip-path="url(#p62f1756ef0)" style="fill: #6a5900; fill-opacity: 0.25"/>
    <path d="M 339.801317 241.489837 
L 341.047166 240.223354 
L 374.500352 270.631968 
L 372.467257 273.157644 
z
" clip-path="url(#p62f1756ef0)" style="fill: #685800; fill-opacity: 0.25"/>
    <path d="M 227.261809 268.825681 
L 229.151167 271.33608 
L 258.322186 242.368698 
L 256.988997 241.093034 
z
" clip-path="url(#p62f1756ef0)" style="fill: #ccac00; fill-opacity: 0.25"/>
    <path d="M 341.047166 240.223354 
L 342.26062 238.916618 
L 376.450495 268.038495 
L 374.500352 270.631968 
z
" clip-path="url(#p62f1756ef0)" style="fill: #675700; fill-opacity: 0.25"/>
    <path d="M 225.456424 266.255698 
L 227.261809 268.825681 
L 256.988997 241.093034 
L 255.686705 239.772637 
z
" clip-path="url(#p62f1756ef0)" style="fill: #cdad00; fill-opacity: 0.25"/>
    <path d="M 342.26062 238.916618 
L 343.440579 237.570352 
L 378.315548 265.380393 
L 376.450495 268.038495 
z
" clip-path="url(#p62f1756ef0)" style="fill: #655500; fill-opacity: 0.25"/>
    <path d="M 223.736735 263.629354 
L 225.456424 266.255698 
L 255.686705 239.772637 
L 254.416603 238.408136 
z
" clip-path="url(#p62f1756ef0)" style="fill: #ceae00; fill-opacity: 0.25"/>
    <path d="M 343.440579 237.570352 
L 344.585945 236.18531 
L 380.09349 262.660908 
L 378.315548 265.380393 
z
" clip-path="url(#p62f1756ef0)" style="fill: #645400; fill-opacity: 0.25"/>
    <path d="M 222.10435 260.94993 
L 223.736735 263.629354 
L 254.416603 238.408136 
L 253.179982 237.000197 
z
" clip-path="url(#p62f1756ef0)" style="fill: #cfaf00; fill-opacity: 0.25"/>
    <path d="M 344.585945 236.18531 
L 345.695625 234.762279 
L 381.782413 259.883359 
L 380.09349 262.660908 
z
" clip-path="url(#p62f1756ef0)" style="fill: #635300; fill-opacity: 0.25"/>
    <path d="M 220.560761 258.220753 
L 222.10435 260.94993 
L 253.179982 237.000197 
L 251.978134 235.54953 
z
" clip-path="url(#p62f1756ef0)" style="fill: #d1b000; fill-opacity: 0.25"/>
    <path d="M 345.695625 234.762279 
L 346.768534 233.302077 
L 383.38053 257.051135 
L 381.782413 259.883359 
z
" clip-path="url(#p62f1756ef0)" style="fill: #625200; fill-opacity: 0.25"/>
    <path d="M 219.107339 255.4452 
L 220.560761 258.220753 
L 251.978134 235.54953 
L 250.812349 234.056884 
z
" clip-path="url(#p62f1756ef0)" style="fill: #d2b100; fill-opacity: 0.25"/>
    <path d="M 346.768534 233.302077 
L 347.803594 231.805559 
L 384.886176 254.167687 
L 383.38053 257.051135 
z
" clip-path="url(#p62f1756ef0)" style="fill: #605100; fill-opacity: 0.25"/>
    <path d="M 217.745336 252.626687 
L 219.107339 255.4452 
L 250.812349 234.056884 
L 249.683912 232.523051 
z
" clip-path="url(#p62f1756ef0)" style="fill: #d3b200; fill-opacity: 0.25"/>
    <path d="M 347.803594 231.805559 
L 348.799734 230.27361 
L 386.297808 251.236525 
L 384.886176 254.167687 
z
" clip-path="url(#p62f1756ef0)" style="fill: #5f5000; fill-opacity: 0.25"/>
    <path d="M 216.475881 249.768664 
L 217.745336 252.626687 
L 249.683912 232.523051 
L 248.594106 230.948866 
z
" clip-path="url(#p62f1756ef0)" style="fill: #d4b300; fill-opacity: 0.25"/>
    <path d="M 348.799734 230.27361 
L 349.755893 228.707153 
L 387.61401 248.261211 
L 386.297808 251.236525 
z
" clip-path="url(#p62f1756ef0)" style="fill: #5e5000; fill-opacity: 0.25"/>
    <path d="M 215.299983 246.874615 
L 216.475881 249.768664 
L 248.594106 230.948866 
L 247.544208 229.335209 
z
" clip-path="url(#p62f1756ef0)" style="fill: #d5b400; fill-opacity: 0.25"/>
    <path d="M 349.755893 228.707153 
L 350.671018 227.107146 
L 388.833492 245.245356 
L 387.61401 248.261211 
z
" clip-path="url(#p62f1756ef0)" style="fill: #5e4f00; fill-opacity: 0.25"/>
    <path d="M 214.218527 243.948049 
L 215.299983 246.874615 
L 247.544208 229.335209 
L 246.535487 227.683003 
z
" clip-path="url(#p62f1756ef0)" style="fill: #d7b500; fill-opacity: 0.25"/>
    <path d="M 350.671018 227.107146 
L 351.54407 225.474584 
L 389.955092 242.192615 
L 388.833492 245.245356 
z
" clip-path="url(#p62f1756ef0)" style="fill: #5d4e00; fill-opacity: 0.25"/>
    <path d="M 213.232277 240.992496 
L 214.218527 243.948049 
L 246.535487 227.683003 
L 245.569205 225.993219 
z
" clip-path="url(#p62f1756ef0)" style="fill: #d8b600; fill-opacity: 0.25"/>
    <path d="M 351.54407 225.474584 
L 352.374021 223.810495 
L 390.977781 239.106678 
L 389.955092 242.192615 
z
" clip-path="url(#p62f1756ef0)" style="fill: #5c4e00; fill-opacity: 0.25"/>
    <path d="M 212.341871 238.011501 
L 213.232277 240.992496 
L 245.569205 225.993219 
L 244.646613 224.266872 
z
" clip-path="url(#p62f1756ef0)" style="fill: #dab700; fill-opacity: 0.25"/>
    <path d="M 352.374021 223.810495 
L 353.159857 222.115947 
L 391.900658 235.991268 
L 390.977781 239.106678 
z
" clip-path="url(#p62f1756ef0)" style="fill: #5c4d00; fill-opacity: 0.25"/>
    <path d="M 211.547826 235.008622 
L 212.341871 238.011501 
L 244.646613 224.266872 
L 243.768951 222.505027 
z
" clip-path="url(#p62f1756ef0)" style="fill: #dbb900; fill-opacity: 0.25"/>
    <path d="M 353.159857 222.115947 
L 353.900579 220.392046 
L 392.722956 232.850135 
L 391.900658 235.991268 
z
" clip-path="url(#p62f1756ef0)" style="fill: #5b4d00; fill-opacity: 0.25"/>
    <path d="M 210.850534 231.987423 
L 211.547826 235.008622 
L 243.768951 222.505027 
L 242.937446 220.708794 
z
" clip-path="url(#p62f1756ef0)" style="fill: #dcba00; fill-opacity: 0.25"/>
    <path d="M 353.900579 220.392046 
L 354.595202 218.639934 
L 393.44404 229.68705 
L 392.722956 232.850135 
z
" clip-path="url(#p62f1756ef0)" style="fill: #5b4d00; fill-opacity: 0.25"/>
    <path d="M 210.250265 228.951468 
L 210.850534 231.987423 
L 242.937446 220.708794 
L 242.153309 218.879332 
z
" clip-path="url(#p62f1756ef0)" style="fill: #debb00; fill-opacity: 0.25"/>
    <path d="M 354.595202 218.639934 
L 355.242763 216.860792 
L 394.063409 226.5058 
L 393.44404 229.68705 
z
" clip-path="url(#p62f1756ef0)" style="fill: #5b4c00; fill-opacity: 0.25"/>
    <path d="M 209.747165 225.904318 
L 210.250265 228.951468 
L 242.153309 218.879332 
L 241.417736 217.017849 
z
" clip-path="url(#p62f1756ef0)" style="fill: #dfbc00; fill-opacity: 0.25"/>
    <path d="M 355.242763 216.860792 
L 355.842314 215.055839 
L 394.580693 223.310182 
L 394.063409 226.5058 
z
" clip-path="url(#p62f1756ef0)" style="fill: #5a4c00; fill-opacity: 0.25"/>
    <path d="M 209.341262 222.849527 
L 209.747165 225.904318 
L 241.417736 217.017849 
L 240.731903 215.125603 
z
" clip-path="url(#p62f1756ef0)" style="fill: #e1be00; fill-opacity: 0.25"/>
    <path d="M 355.842314 215.055839 
L 356.392929 213.226332 
L 394.995659 220.103998 
L 394.580693 223.310182 
z
" clip-path="url(#p62f1756ef0)" style="fill: #5a4c00; fill-opacity: 0.25"/>
    <path d="M 209.032458 219.790634 
L 209.341262 222.849527 
L 240.731903 215.125603 
L 240.096967 213.203898 
z
" clip-path="url(#p62f1756ef0)" style="fill: #e2bf00; fill-opacity: 0.25"/>
    <path d="M 356.392929 213.226332 
L 356.893705 211.373567 
L 395.308204 216.891049 
L 394.995659 220.103998 
z
" clip-path="url(#p62f1756ef0)" style="fill: #5a4c00; fill-opacity: 0.25"/>
    <path d="M 208.820538 216.731163 
L 209.032458 219.790634 
L 240.096967 213.203898 
L 239.514062 211.254092 
z
" clip-path="url(#p62f1756ef0)" style="fill: #e4c000; fill-opacity: 0.25"/>
    <path d="M 356.893705 211.373567 
L 357.343761 209.49888 
L 395.518361 213.67513 
L 395.308204 216.891049 
z
" clip-path="url(#p62f1756ef0)" style="fill: #5b4c00; fill-opacity: 0.25"/>
    <path d="M 208.705168 213.674612 
L 208.820538 216.731163 
L 239.514062 211.254092 
L 238.984296 209.277589 
z
" clip-path="url(#p62f1756ef0)" style="fill: #e5c100; fill-opacity: 0.25"/>
    <path d="M 357.343761 209.49888 
L 357.74224 207.603645 
L 395.626294 210.460025 
L 395.518361 213.67513 
z
" clip-path="url(#p62f1756ef0)" style="fill: #5b4d00; fill-opacity: 0.25"/>
    <path d="M 208.685895 210.624455 
L 208.705168 213.674612 
L 238.984296 209.277589 
L 238.508753 207.275845 
z
" clip-path="url(#p62f1756ef0)" style="fill: #e7c300; fill-opacity: 0.25"/>
    <path d="M 357.74224 207.603645 
L 358.088316 205.689272 
L 395.632299 207.249501 
L 395.626294 210.460025 
z
" clip-path="url(#p62f1756ef0)" style="fill: #5b4d00; fill-opacity: 0.25"/>
    <path d="M 208.762152 207.584133 
L 208.685895 210.624455 
L 238.508753 207.275845 
L 238.088489 205.250363 
z
" clip-path="url(#p62f1756ef0)" style="fill: #e8c400; fill-opacity: 0.25"/>
    <path d="M 358.088316 205.689272 
L 358.381187 203.757213 
L 395.536801 204.047303 
L 395.632299 207.249501 
z
" clip-path="url(#p62f1756ef0)" style="fill: #5c4d00; fill-opacity: 0.25"/>
    <path d="M 208.933255 204.557052 
L 208.762152 207.584133 
L 238.088489 205.250363 
L 237.724526 203.202699 
z
" clip-path="url(#p62f1756ef0)" style="fill: #eac500; fill-opacity: 0.25"/>
    <path d="M 358.381187 203.757213 
L 358.620082 201.808957 
L 395.340358 200.857149 
L 395.536801 204.047303 
z
" clip-path="url(#p62f1756ef0)" style="fill: #5c4e00; fill-opacity: 0.25"/>
    <path d="M 209.198411 201.546577 
L 208.933255 204.557052 
L 237.724526 203.202699 
L 237.417857 201.134456 
z
" clip-path="url(#p62f1756ef0)" style="fill: #ebc600; fill-opacity: 0.25"/>
    <path d="M 358.620082 201.808957 
L 358.804264 199.846028 
L 395.043652 197.682722 
L 395.340358 200.857149 
z
" clip-path="url(#p62f1756ef0)" style="fill: #5d4e00; fill-opacity: 0.25"/>
    <path d="M 209.556714 198.556029 
L 209.198411 201.546577 
L 237.417857 201.134456 
L 237.169437 199.047285 
z
" clip-path="url(#p62f1756ef0)" style="fill: #edc800; fill-opacity: 0.25"/>
    <path d="M 210.007149 195.58868 
L 209.556714 198.556029 
L 237.169437 199.047285 
L 236.980186 196.942888 
z
" clip-path="url(#p62f1756ef0)" style="fill: #eec900; fill-opacity: 0.25"/>
    <path d="M 358.804264 199.846028 
L 358.933026 197.869992 
L 394.647494 194.527671 
L 395.043652 197.682722 
z
" clip-path="url(#p62f1756ef0)" style="fill: #5e4f00; fill-opacity: 0.25"/>
    <path d="M 358.933026 197.869992 
L 359.005699 195.882449 
L 394.152819 191.395599 
L 394.647494 194.527671 
z
" clip-path="url(#p62f1756ef0)" style="fill: #5f5000; fill-opacity: 0.25"/>
    <path d="M 210.548597 192.64775 
L 210.007149 195.58868 
L 236.980186 196.942888 
L 236.850984 194.823013 
z
" clip-path="url(#p62f1756ef0)" style="fill: #efca00; fill-opacity: 0.25"/>
    <path d="M 359.005699 195.882449 
L 359.021649 193.885034 
L 393.560685 188.290063 
L 394.152819 191.395599 
z
" clip-path="url(#p62f1756ef0)" style="fill: #605100; fill-opacity: 0.25"/>
    <path d="M 211.179833 189.736403 
L 210.548597 192.64775 
L 236.850984 194.823013 
L 236.78267 192.689456 
z
" clip-path="url(#p62f1756ef0)" style="fill: #f1cb00; fill-opacity: 0.25"/>
    <path d="M 359.021649 193.885034 
L 358.98028 191.879421 
L 392.872271 185.214567 
L 393.560685 188.290063 
z
" clip-path="url(#p62f1756ef0)" style="fill: #615200; fill-opacity: 0.25"/>
    <path d="M 211.899532 186.857741 
L 211.179833 189.736403 
L 236.78267 192.689456 
L 236.776038 190.544057 
z
" clip-path="url(#p62f1756ef0)" style="fill: #f2cc00; fill-opacity: 0.25"/>
    <path d="M 358.98028 191.879421 
L 358.881039 189.867316 
L 392.088873 182.172559 
L 392.872271 185.214567 
z
" clip-path="url(#p62f1756ef0)" style="fill: #625300; fill-opacity: 0.25"/>
    <path d="M 212.70627 184.014804 
L 211.899532 186.857741 
L 236.776038 190.544057 
L 236.831837 188.388705 
z
" clip-path="url(#p62f1756ef0)" style="fill: #f3cd00; fill-opacity: 0.25"/>
    <path d="M 358.881039 189.867316 
L 358.723413 187.85046 
L 391.211903 179.167422 
L 392.088873 182.172559 
z
" clip-path="url(#p62f1756ef0)" style="fill: #645400; fill-opacity: 0.25"/>
    <path d="M 213.598528 181.210563 
L 212.70627 184.014804 
L 236.831837 188.388705 
L 236.950767 186.22533 
z
" clip-path="url(#p62f1756ef0)" style="fill: #f4ce00; fill-opacity: 0.25"/>
    <path d="M 358.723413 187.85046 
L 358.506932 185.830627 
L 390.242887 176.202475 
L 391.211903 179.167422 
z
" clip-path="url(#p62f1756ef0)" style="fill: #655500; fill-opacity: 0.25"/>
    <path d="M 214.574692 178.447919 
L 213.598528 181.210563 
L 236.950767 186.22533 
L 237.133478 184.055907 
z
" clip-path="url(#p62f1756ef0)" style="fill: #f6cf00; fill-opacity: 0.25"/>
    <path d="M 358.506932 185.830627 
L 358.231172 183.809622 
L 389.18346 173.280966 
L 390.242887 176.202475 
z
" clip-path="url(#p62f1756ef0)" style="fill: #675700; fill-opacity: 0.25"/>
    <path d="M 215.633059 175.7297 
L 214.574692 178.447919 
L 237.133478 184.055907 
L 237.380568 181.882452 
z
" clip-path="url(#p62f1756ef0)" style="fill: #f7d000; fill-opacity: 0.25"/>
    <path d="M 358.231172 183.809622 
L 357.895758 181.789282 
L 388.035364 170.406068 
L 389.18346 173.280966 
z
" clip-path="url(#p62f1756ef0)" style="fill: #685800; fill-opacity: 0.25"/>
    <path d="M 216.77184 173.058654 
L 215.633059 175.7297 
L 237.380568 181.882452 
L 237.692577 179.707021 
z
" clip-path="url(#p62f1756ef0)" style="fill: #f8d100; fill-opacity: 0.25"/>
    <path d="M 357.895758 181.789282 
L 357.500362 179.771472 
L 386.800446 167.580874 
L 388.035364 170.406068 
z
" clip-path="url(#p62f1756ef0)" style="fill: #6a5a00; fill-opacity: 0.25"/>
    <path d="M 217.989162 170.437451 
L 216.77184 173.058654 
L 237.692577 179.707021 
L 238.069993 177.531711 
z
" clip-path="url(#p62f1756ef0)" style="fill: #f9d200; fill-opacity: 0.25"/>
    <path d="M 357.500362 179.771472 
L 357.044705 177.758086 
L 385.480653 164.808395 
L 386.800446 167.580874 
z
" clip-path="url(#p62f1756ef0)" style="fill: #6c5b00; fill-opacity: 0.25"/>
    <path d="M 219.28307 167.868678 
L 217.989162 170.437451 
L 238.069993 177.531711 
L 238.51324 175.358653 
z
" clip-path="url(#p62f1756ef0)" style="fill: #fad200; fill-opacity: 0.25"/>
    <path d="M 357.044705 177.758086 
L 356.528563 175.751045 
L 384.07803 162.091554 
L 385.480653 164.808395 
z
" clip-path="url(#p62f1756ef0)" style="fill: #6e5d00; fill-opacity: 0.25"/>
    <path d="M 220.651533 165.354834 
L 219.28307 167.868678 
L 238.51324 175.358653 
L 239.022684 173.190016 
z
" clip-path="url(#p62f1756ef0)" style="fill: #fad300; fill-opacity: 0.25"/>
    <path d="M 222.092447 162.898333 
L 220.651533 165.354834 
L 239.022684 173.190016 
L 239.598625 171.028001 
z
" clip-path="url(#p62f1756ef0)" style="fill: #fbd400; fill-opacity: 0.25"/>
    <path d="M 356.528563 175.751045 
L 355.951763 173.752294 
L 382.594714 159.433185 
L 384.07803 162.091554 
z
" clip-path="url(#p62f1756ef0)" style="fill: #705f00; fill-opacity: 0.25"/>
    <path d="M 355.951763 173.752294 
L 355.31419 171.763804 
L 381.032933 156.836028 
L 382.594714 159.433185 
z
" clip-path="url(#p62f1756ef0)" style="fill: #726000; fill-opacity: 0.25"/>
    <path d="M 223.603636 160.501496 
L 222.092447 162.898333 
L 239.598625 171.028001 
L 240.2413 168.874842 
z
" clip-path="url(#p62f1756ef0)" style="fill: #fcd400; fill-opacity: 0.25"/>
    <path d="M 355.31419 171.763804 
L 354.615782 169.787565 
L 379.395001 154.302724 
L 381.032933 156.836028 
z
" clip-path="url(#p62f1756ef0)" style="fill: #756200; fill-opacity: 0.25"/>
    <path d="M 225.182861 158.166552 
L 223.603636 160.501496 
L 240.2413 168.874842 
L 240.950878 166.7328 
z
" clip-path="url(#p62f1756ef0)" style="fill: #fdd500; fill-opacity: 0.25"/>
    <path d="M 354.615782 169.787565 
L 353.856538 167.825589 
L 377.683313 151.835817 
L 379.395001 154.302724 
z
" clip-path="url(#p62f1756ef0)" style="fill: #776400; fill-opacity: 0.25"/>
    <path d="M 226.827816 155.895635 
L 225.182861 158.166552 
L 240.950878 166.7328 
L 241.727459 164.604166 
z
" clip-path="url(#p62f1756ef0)" style="fill: #fdd500; fill-opacity: 0.25"/>
    <path d="M 353.856538 167.825589 
L 353.036516 165.879905 
L 375.900345 149.437745 
L 377.683313 151.835817 
z
" clip-path="url(#p62f1756ef0)" style="fill: #796600; fill-opacity: 0.25"/>
    <path d="M 228.536138 153.690784 
L 226.827816 155.895635 
L 241.727459 164.604166 
L 242.57107 162.491253 
z
" clip-path="url(#p62f1756ef0)" style="fill: #fed600; fill-opacity: 0.25"/>
    <path d="M 353.036516 165.879905 
L 352.155834 163.95256 
L 374.048643 147.110841 
L 375.900345 149.437745 
z
" clip-path="url(#p62f1756ef0)" style="fill: #7c6800; fill-opacity: 0.25"/>
    <path d="M 230.30541 151.553936 
L 228.536138 153.690784 
L 242.57107 162.491253 
L 243.481668 160.396398 
z
" clip-path="url(#p62f1756ef0)" style="fill: #fed600; fill-opacity: 0.25"/>
    <path d="M 352.155834 163.95256 
L 351.214673 162.045614 
L 372.130826 144.857331 
L 374.048643 147.110841 
z
" clip-path="url(#p62f1756ef0)" style="fill: #7e6b00; fill-opacity: 0.25"/>
    <path d="M 232.133159 149.486931 
L 230.30541 151.553936 
L 243.481668 160.396398 
L 244.459135 158.321958 
z
" clip-path="url(#p62f1756ef0)" style="fill: #fed600; fill-opacity: 0.25"/>
    <path d="M 351.214673 162.045614 
L 350.213276 160.161138 
L 370.149575 142.679329 
L 372.130826 144.857331 
z
" clip-path="url(#p62f1756ef0)" style="fill: #816d00; fill-opacity: 0.25"/>
    <path d="M 234.016869 147.491506 
L 232.133159 149.486931 
L 244.459135 158.321958 
L 245.503277 156.270306 
z
" clip-path="url(#p62f1756ef0)" style="fill: #fed600; fill-opacity: 0.25"/>
    <path d="M 235.953978 145.569297 
L 234.016869 147.491506 
L 245.503277 156.270306 
L 246.61382 154.243829 
z
" clip-path="url(#p62f1756ef0)" style="fill: #fed700; fill-opacity: 0.25"/>
    <path d="M 350.213276 160.161138 
L 349.151951 158.301216 
L 368.107635 140.578837 
L 370.149575 142.679329 
z
" clip-path="url(#p62f1756ef0)" style="fill: #846f00; fill-opacity: 0.25"/>
    <path d="M 349.151951 158.301216 
L 348.031074 156.467937 
L 366.007806 138.557741 
L 368.107635 140.578837 
z
" clip-path="url(#p62f1756ef0)" style="fill: #877100; fill-opacity: 0.25"/>
    <path d="M 237.941883 143.721834 
L 235.953978 145.569297 
L 246.61382 154.243829 
L 247.790416 152.244925 
z
" clip-path="url(#p62f1756ef0)" style="fill: #fed600; fill-opacity: 0.25"/>
    <path d="M 348.031074 156.467937 
L 346.851084 154.663397 
L 363.852941 136.617812 
L 366.007806 138.557741 
z
" clip-path="url(#p62f1756ef0)" style="fill: #897400; fill-opacity: 0.25"/>
    <path d="M 239.977946 141.950545 
L 237.941883 143.721834 
L 247.790416 152.244925 
L 249.032633 150.276002 
z
" clip-path="url(#p62f1756ef0)" style="fill: #fed600; fill-opacity: 0.25"/>
    <path d="M 346.851084 154.663397 
L 345.61249 152.889693 
L 361.645939 134.760703 
L 363.852941 136.617812 
z
" clip-path="url(#p62f1756ef0)" style="fill: #8c7600; fill-opacity: 0.25"/>
    <path d="M 242.059496 140.25675 
L 239.977946 141.950545 
L 249.032633 150.276002 
L 250.33996 148.339472 
z
" clip-path="url(#p62f1756ef0)" style="fill: #fed600; fill-opacity: 0.25"/>
    <path d="M 345.61249 152.889693 
L 344.315869 151.148924 
L 359.389744 132.987947 
L 361.645939 134.760703 
z
" clip-path="url(#p62f1756ef0)" style="fill: #8f7900; fill-opacity: 0.25"/>
    <path d="M 244.183835 138.641664 
L 242.059496 140.25675 
L 250.33996 148.339472 
L 251.711802 146.437749 
z
" clip-path="url(#p62f1756ef0)" style="fill: #fed600; fill-opacity: 0.25"/>
    <path d="M 344.315869 151.148924 
L 342.961865 149.443186 
L 357.087335 131.300957 
L 359.389744 132.987947 
z
" clip-path="url(#p62f1756ef0)" style="fill: #927b00; fill-opacity: 0.25"/>
    <path d="M 246.348239 137.106398 
L 244.183835 138.641664 
L 251.711802 146.437749 
L 253.147482 144.573246 
z
" clip-path="url(#p62f1756ef0)" style="fill: #fdd600; fill-opacity: 0.25"/>
    <path d="M 342.961865 149.443186 
L 341.551196 147.774571 
L 354.741729 129.701024 
L 357.087335 131.300957 
z
" clip-path="url(#p62f1756ef0)" style="fill: #957e00; fill-opacity: 0.25"/>
    <path d="M 248.549963 135.651952 
L 246.348239 137.106398 
L 253.147482 144.573246 
L 254.646238 142.748372 
z
" clip-path="url(#p62f1756ef0)" style="fill: #fdd500; fill-opacity: 0.25"/>
    <path d="M 341.551196 147.774571 
L 340.084647 146.145162 
L 352.355968 128.189318 
L 354.741729 129.701024 
z
" clip-path="url(#p62f1756ef0)" style="fill: #988000; fill-opacity: 0.25"/>
    <path d="M 250.786247 134.279224 
L 248.549963 135.651952 
L 254.646238 142.748372 
L 256.207225 140.965526 
z
" clip-path="url(#p62f1756ef0)" style="fill: #fcd500; fill-opacity: 0.25"/>
    <path d="M 340.084647 146.145162 
L 338.563074 144.557033 
L 349.933121 126.766886 
L 352.355968 128.189318 
z
" clip-path="url(#p62f1756ef0)" style="fill: #9b8300; fill-opacity: 0.25"/>
    <path d="M 253.054317 132.989003 
L 250.786247 134.279224 
L 256.207225 140.965526 
L 257.829511 139.227099 
z
" clip-path="url(#p62f1756ef0)" style="fill: #fbd400; fill-opacity: 0.25"/>
    <path d="M 338.563074 144.557033 
L 336.987407 143.012245 
L 347.476275 125.434653 
L 349.933121 126.766886 
z
" clip-path="url(#p62f1756ef0)" style="fill: #9f8600; fill-opacity: 0.25"/>
    <path d="M 255.35139 131.78197 
L 253.054317 132.989003 
L 257.829511 139.227099 
L 259.512078 137.535465 
z
" clip-path="url(#p62f1756ef0)" style="fill: #fbd300; fill-opacity: 0.25"/>
    <path d="M 336.987407 143.012245 
L 335.358645 141.512843 
L 344.988535 124.19342 
L 347.476275 125.434653 
z
" clip-path="url(#p62f1756ef0)" style="fill: #a28800; fill-opacity: 0.25"/>
    <path d="M 257.674676 130.658705 
L 255.35139 131.78197 
L 259.512078 137.535465 
L 261.253823 135.892978 
z
" clip-path="url(#p62f1756ef0)" style="fill: #fad300; fill-opacity: 0.25"/>
    <path d="M 335.358645 141.512843 
L 333.677859 140.060852 
L 342.473012 123.043865 
L 344.988535 124.19342 
z
" clip-path="url(#p62f1756ef0)" style="fill: #a58b00; fill-opacity: 0.25"/>
    <path d="M 260.021387 129.619677 
L 257.674676 130.658705 
L 261.253823 135.892978 
L 263.053556 134.301973 
z
" clip-path="url(#p62f1756ef0)" style="fill: #f9d200; fill-opacity: 0.25"/>
    <path d="M 333.677859 140.060852 
L 331.946192 138.658278 
L 339.932828 121.986546 
L 342.473012 123.043865 
z
" clip-path="url(#p62f1756ef0)" style="fill: #a88e00; fill-opacity: 0.25"/>
    <path d="M 262.388733 128.665254 
L 260.021387 129.619677 
L 263.053556 134.301973 
L 264.910003 132.764756 
z
" clip-path="url(#p62f1756ef0)" style="fill: #f8d100; fill-opacity: 0.25"/>
    <path d="M 331.946192 138.658278 
L 330.164861 137.307101 
L 337.371102 121.021896 
L 339.932828 121.986546 
z
" clip-path="url(#p62f1756ef0)" style="fill: #ab9000; fill-opacity: 0.25"/>
    <path d="M 264.773933 127.795699 
L 262.388733 128.665254 
L 264.910003 132.764756 
L 266.8218 131.283607 
z
" clip-path="url(#p62f1756ef0)" style="fill: #f6d000; fill-opacity: 0.25"/>
    <path d="M 330.164861 137.307101 
L 328.335151 136.009273 
L 334.790953 120.150228 
L 337.371102 121.021896 
z
" clip-path="url(#p62f1756ef0)" style="fill: #ae9300; fill-opacity: 0.25"/>
    <path d="M 267.174213 127.011171 
L 264.773933 127.795699 
L 266.8218 131.283607 
L 268.787501 129.86077 
z
" clip-path="url(#p62f1756ef0)" style="fill: #f5ce00; fill-opacity: 0.25"/>
    <path d="M 328.335151 136.009273 
L 326.45842 134.766717 
L 332.195492 119.371737 
L 334.790953 120.150228 
z
" clip-path="url(#p62f1756ef0)" style="fill: #b19600; fill-opacity: 0.25"/>
    <path d="M 269.586811 126.311729 
L 267.174213 127.011171 
L 268.787501 129.86077 
L 270.805573 128.498452 
z
" clip-path="url(#p62f1756ef0)" style="fill: #f3cd00; fill-opacity: 0.25"/>
    <path d="M 326.45842 134.766717 
L 324.536097 133.58132 
L 329.587816 118.686494 
L 332.195492 119.371737 
z
" clip-path="url(#p62f1756ef0)" style="fill: #b59800; fill-opacity: 0.25"/>
    <path d="M 272.008985 125.697331 
L 269.586811 126.311729 
L 270.805573 128.498452 
L 272.874398 127.198821 
z
" clip-path="url(#p62f1756ef0)" style="fill: #f2cc00; fill-opacity: 0.25"/>
    <path d="M 324.536097 133.58132 
L 322.569681 132.454936 
L 326.97101 118.094456 
L 329.587816 118.686494 
z
" clip-path="url(#p62f1756ef0)" style="fill: #b89b00; fill-opacity: 0.25"/>
    <path d="M 274.438008 125.167834 
L 272.008985 125.697331 
L 272.874398 127.198821 
L 274.992275 125.964 
z
" clip-path="url(#p62f1756ef0)" style="fill: #f0cb00; fill-opacity: 0.25"/>
    <path d="M 322.569681 132.454936 
L 320.560742 131.389377 
L 324.348135 117.595461 
L 326.97101 118.094456 
z
" clip-path="url(#p62f1756ef0)" style="fill: #bb9e00; fill-opacity: 0.25"/>
    <path d="M 276.871179 124.723 
L 274.438008 125.167834 
L 274.992275 125.964 
L 277.15742 124.796062 
z
" clip-path="url(#p62f1756ef0)" style="fill: #eec900; fill-opacity: 0.25"/>
    <path d="M 320.560742 131.389377 
L 318.510917 130.386413 
L 321.72223 117.189234 
L 324.348135 117.595461 
z
" clip-path="url(#p62f1756ef0)" style="fill: #bea000; fill-opacity: 0.25"/>
    <path d="M 279.305822 124.362493 
L 276.871179 124.723 
L 277.15742 124.796062 
L 279.367966 123.697029 
z
" clip-path="url(#p62f1756ef0)" style="fill: #edc700; fill-opacity: 0.25"/>
    <path d="M 318.510917 130.386413 
L 316.421913 129.447769 
L 319.096305 116.875386 
L 321.72223 117.189234 
z
" clip-path="url(#p62f1756ef0)" style="fill: #c1a300; fill-opacity: 0.25"/>
    <path d="M 281.739289 124.085883 
L 279.305822 124.362493 
L 279.367966 123.697029 
L 281.621966 122.668868 
z
" clip-path="url(#p62f1756ef0)" style="fill: #ebc600; fill-opacity: 0.25"/>
    <path d="M 316.421913 129.447769 
L 314.295503 128.575121 
L 316.473335 116.653417 
L 319.096305 116.875386 
z
" clip-path="url(#p62f1756ef0)" style="fill: #c4a500; fill-opacity: 0.25"/>
    <path d="M 284.168965 123.892647 
L 281.739289 124.085883 
L 281.621966 122.668868 
L 283.917394 121.713485 
z
" clip-path="url(#p62f1756ef0)" style="fill: #e9c400; fill-opacity: 0.25"/>
    <path d="M 314.295503 128.575121 
L 312.133526 127.770094 
L 313.856264 116.522716 
L 316.473335 116.653417 
z
" clip-path="url(#p62f1756ef0)" style="fill: #c7a800; fill-opacity: 0.25"/>
    <path d="M 286.592271 123.782174 
L 284.168965 123.892647 
L 283.917394 121.713485 
L 286.252146 120.832724 
z
" clip-path="url(#p62f1756ef0)" style="fill: #e6c200; fill-opacity: 0.25"/>
    <path d="M 312.133526 127.770094 
L 309.937887 127.034258 
L 311.247991 116.482569 
L 313.856264 116.522716 
z
" clip-path="url(#p62f1756ef0)" style="fill: #caaa00; fill-opacity: 0.25"/>
    <path d="M 289.006666 123.753762 
L 286.592271 123.782174 
L 286.252146 120.832724 
L 288.624042 120.028362 
z
" clip-path="url(#p62f1756ef0)" style="fill: #e4c000; fill-opacity: 0.25"/>
    <path d="M 309.937887 127.034258 
L 307.710553 126.369127 
L 308.651375 116.532153 
L 311.247991 116.482569 
z
" clip-path="url(#p62f1756ef0)" style="fill: #cdad00; fill-opacity: 0.25"/>
    <path d="M 291.409647 123.806623 
L 289.006666 123.753762 
L 288.624042 120.028362 
L 291.030829 119.302104 
z
" clip-path="url(#p62f1756ef0)" style="fill: #e2bf00; fill-opacity: 0.25"/>
    <path d="M 307.710553 126.369127 
L 305.453555 125.776151 
L 306.069227 116.670547 
L 308.651375 116.532153 
z
" clip-path="url(#p62f1756ef0)" style="fill: #d0af00; fill-opacity: 0.25"/>
    <path d="M 293.798756 123.939887 
L 291.409647 123.806623 
L 291.030829 119.302104 
L 293.47018 118.655583 
z
" clip-path="url(#p62f1756ef0)" style="fill: #e0bd00; fill-opacity: 0.25"/>
    <path d="M 305.453555 125.776151 
L 303.168982 125.256722 
L 303.504307 116.896729 
L 306.069227 116.670547 
z
" clip-path="url(#p62f1756ef0)" style="fill: #d3b200; fill-opacity: 0.25"/>
    <path d="M 296.171583 124.152599 
L 293.798756 123.939887 
L 293.47018 118.655583 
L 295.939698 118.090353 
z
" clip-path="url(#p62f1756ef0)" style="fill: #ddba00; fill-opacity: 0.25"/>
    <path d="M 298.525763 124.443727 
L 296.171583 124.152599 
L 295.939698 118.090353 
L 298.436922 117.607889 
z
" clip-path="url(#p62f1756ef0)" style="fill: #dbb800; fill-opacity: 0.25"/>
    <path d="M 303.168982 125.256722 
L 300.858982 124.812163 
L 300.959322 117.209581 
L 303.504307 116.896729 
z
" clip-path="url(#p62f1756ef0)" style="fill: #d5b400; fill-opacity: 0.25"/>
    <path d="M 300.858982 124.812163 
L 298.525763 124.443727 
L 298.436922 117.607889 
L 300.959322 117.209581 
z
" clip-path="url(#p62f1756ef0)" style="fill: #d8b600; fill-opacity: 0.25"/>
   </g>
   <g id="legend_1">
    <g id="patch_3">
     <path d="M 145.68 372.48 
L 249.001972 372.48 
Q 253.801972 372.48 253.801972 367.68 
L 253.801972 302.214692 
Q 253.801972 297.414692 249.001972 297.414692 
L 145.68 297.414692 
Q 140.88 297.414692 140.88 302.214692 
L 140.88 367.68 
Q 140.88 372.48 145.68 372.48 
z
" style="fill: #ffffff; opacity: 0.8; stroke: #cccccc; stroke-linejoin: miter"/>
    </g>
    <g id="line2d_3">
     <path d="M 150.48 315.414692 
L 174.48 315.414692 
L 198.48 315.414692 
" style="fill: none; stroke: #dc143c; stroke-width: 3; stroke-linecap: square"/>
    </g>
    <g id="text_1">
     <!-- $\nu_+$ -->
     <g transform="translate(217.68 323.814692) scale(0.24 -0.24)">
      <defs>
       <path id="LMMathItalic12-Regular-17" d="M 3290 2655 
C 3290 2758 3206 2816 3123 2816 
C 2938 2816 2893 2643 2880 2598 
C 2502 1264 1626 472 774 192 
L 1408 2751 
C 1408 2777 1389 2816 1338 2816 
C 1293 2816 691 2758 595 2751 
C 525 2745 461 2739 461 2623 
C 461 2559 512 2559 602 2559 
C 902 2559 922 2515 922 2445 
C 922 2419 909 2343 902 2317 
L 339 64 
C 339 38 358 0 403 0 
L 538 0 
C 627 0 1600 230 2349 996 
C 3174 1845 3290 2630 3290 2655 
z
" transform="scale(0.015625)"/>
       <path id="CMR10-2b" d="M 2618 1472 
L 4403 1472 
C 4493 1472 4614 1472 4614 1600 
C 4614 1728 4493 1728 4403 1728 
L 2618 1728 
L 2618 3501 
C 2618 3590 2618 3712 2490 3712 
C 2362 3712 2362 3590 2362 3501 
L 2362 1728 
L 570 1728 
C 480 1728 358 1728 358 1600 
C 358 1472 480 1472 570 1472 
L 2362 1472 
L 2362 -308 
C 2362 -397 2362 -519 2490 -519 
C 2618 -519 2618 -397 2618 -308 
L 2618 1472 
z
" transform="scale(0.015625)"/>
      </defs>
      <use xlink:href="#LMMathItalic12-Regular-17" transform="scale(0.996264)"/>
      <use xlink:href="#CMR10-2b" transform="translate(49.1449 -14.943915) scale(0.788955)"/>
     </g>
    </g>
    <g id="line2d_4">
     <path d="M 150.48 349.379148 
L 174.48 349.379148 
L 198.48 349.379148 
" style="fill: none; stroke: #4169e1; stroke-width: 3; stroke-linecap: square"/>
    </g>
    <g id="text_2">
     <!-- $\nu_-$ -->
     <g transform="translate(217.68 357.779148) scale(0.24 -0.24)">
      <defs>
       <path id="LMMathSymbols10-Regular-0" d="M 4442 1600 
C 4442 1728 4320 1728 4230 1728 
L 742 1728 
C 653 1728 531 1728 531 1600 
C 531 1472 653 1472 742 1472 
L 4230 1472 
C 4320 1472 4442 1472 4442 1600 
z
" transform="scale(0.015625)"/>
      </defs>
      <use xlink:href="#LMMathItalic12-Regular-17" transform="scale(0.996264)"/>
      <use xlink:href="#LMMathSymbols10-Regular-0" transform="translate(48.198482 -14.943915) scale(0.757155)"/>
     </g>
    </g>
   </g>
  </g>
 </g>
 <defs>
  <clipPath id="p62f1756ef0">
   <rect x="128.88" y="51.84" width="332.64" height="332.64"/>
  </clipPath>
 </defs>
</svg>
