<?xml version="1.0" encoding="utf-8" standalone="no"?>
<!DOCTYPE svg PUBLIC "-//W3C//DTD SVG 1.1//EN"
  "http://www.w3.org/Graphics/SVG/1.1/DTD/svg11.dtd">
<svg xmlns:xlink="http://www.w3.org/1999/xlink" width="289.8pt" height="248.4pt" viewBox="0 0 289.8 248.4" xmlns="http://www.w3.org/2000/svg" version="1.1">
 <metadata>
  <rdf:RDF xmlns:dc="http://purl.org/dc/elements/1.1/" xmlns:cc="http://creativecommons.org/ns#" xmlns:rdf="http://www.w3.org/1999/02/22-rdf-syntax-ns#">
   <cc:Work>
    <dc:type rdf:resource="http://purl.org/dc/dcmitype/StillImage"/>
    <dc:date>2025-12-11T16:22:36.762613</dc:date>
    <dc:format>image/svg+xml</dc:format>
    <dc:creator>
     <cc:Agent>
      <dc:title>Matplotlib v3.9.2, https://matplotlib.org/</dc:title>
     </cc:Agent>
    </dc:creator>
   </cc:Work>
  </rdf:RDF>
 </metadata>
 <defs>
  <style type="text/css">*{stroke-linejoin: round; stroke-linecap: butt}</style>
 </defs>
 <g id="figure_1">
  <g id="patch_1">
   <path d="M 0 248.4 
L 289.8 248.4 
L 289.8 0 
L 0 0 
z
" style="fill: #ffffff"/>
  </g>
  <g id="axes_1">
   <g id="patch_2">
    <path d="M 77.523502 200.936625 
L 262.750984 200.936625 
L 262.750984 24.44 
L 77.523502 24.44 
z
" style="fill: #ffffff"/>
   </g>
   <g id="PathCollection_1">
    <defs>
     <path id="m663facf4a1" d="M 6.123724 0 
L -6.123724 -0 
" style="stroke: #1f77b4; stroke-width: 1.5"/>
    </defs>
    <g clip-path="url(#p11d9d0f8df)">
     <use xlink:href="#m663facf4a1" x="254.331553" y="192.914051" style="fill: #1f77b4; stroke: #1f77b4; stroke-width: 1.5"/>
     <use xlink:href="#m663facf4a1" x="254.331553" y="184.891477" style="fill: #1f77b4; stroke: #1f77b4; stroke-width: 1.5"/>
     <use xlink:href="#m663facf4a1" x="254.331553" y="176.868903" style="fill: #1f77b4; stroke: #1f77b4; stroke-width: 1.5"/>
     <use xlink:href="#m663facf4a1" x="254.331553" y="168.846329" style="fill: #1f77b4; stroke: #1f77b4; stroke-width: 1.5"/>
     <use xlink:href="#m663facf4a1" x="254.331553" y="160.823755" style="fill: #1f77b4; stroke: #1f77b4; stroke-width: 1.5"/>
     <use xlink:href="#m663facf4a1" x="254.331553" y="152.801181" style="fill: #1f77b4; stroke: #1f77b4; stroke-width: 1.5"/>
     <use xlink:href="#m663facf4a1" x="254.331553" y="144.778608" style="fill: #1f77b4; stroke: #1f77b4; stroke-width: 1.5"/>
     <use xlink:href="#m663facf4a1" x="254.331553" y="136.756034" style="fill: #1f77b4; stroke: #1f77b4; stroke-width: 1.5"/>
     <use xlink:href="#m663facf4a1" x="254.331553" y="128.73346" style="fill: #1f77b4; stroke: #1f77b4; stroke-width: 1.5"/>
     <use xlink:href="#m663facf4a1" x="254.331553" y="120.710886" style="fill: #1f77b4; stroke: #1f77b4; stroke-width: 1.5"/>
     <use xlink:href="#m663facf4a1" x="254.331553" y="112.688312" style="fill: #1f77b4; stroke: #1f77b4; stroke-width: 1.5"/>
     <use xlink:href="#m663facf4a1" x="254.331553" y="104.665738" style="fill: #1f77b4; stroke: #1f77b4; stroke-width: 1.5"/>
     <use xlink:href="#m663facf4a1" x="254.331553" y="96.643165" style="fill: #1f77b4; stroke: #1f77b4; stroke-width: 1.5"/>
     <use xlink:href="#m663facf4a1" x="254.331553" y="88.620591" style="fill: #1f77b4; stroke: #1f77b4; stroke-width: 1.5"/>
     <use xlink:href="#m663facf4a1" x="254.331553" y="80.598017" style="fill: #1f77b4; stroke: #1f77b4; stroke-width: 1.5"/>
     <use xlink:href="#m663facf4a1" x="254.331553" y="72.575443" style="fill: #1f77b4; stroke: #1f77b4; stroke-width: 1.5"/>
     <use xlink:href="#m663facf4a1" x="254.331553" y="64.552869" style="fill: #1f77b4; stroke: #1f77b4; stroke-width: 1.5"/>
     <use xlink:href="#m663facf4a1" x="254.331553" y="56.530295" style="fill: #1f77b4; stroke: #1f77b4; stroke-width: 1.5"/>
     <use xlink:href="#m663facf4a1" x="254.331553" y="48.507722" style="fill: #1f77b4; stroke: #1f77b4; stroke-width: 1.5"/>
     <use xlink:href="#m663facf4a1" x="254.331553" y="40.485148" style="fill: #1f77b4; stroke: #1f77b4; stroke-width: 1.5"/>
     <use xlink:href="#m663facf4a1" x="254.331553" y="32.462574" style="fill: #1f77b4; stroke: #1f77b4; stroke-width: 1.5"/>
     <use xlink:href="#m663facf4a1" x="237.492691" y="184.891477" style="fill: #1f77b4; stroke: #1f77b4; stroke-width: 1.5"/>
     <use xlink:href="#m663facf4a1" x="237.492691" y="176.868903" style="fill: #1f77b4; stroke: #1f77b4; stroke-width: 1.5"/>
     <use xlink:href="#m663facf4a1" x="237.492691" y="168.846329" style="fill: #1f77b4; stroke: #1f77b4; stroke-width: 1.5"/>
     <use xlink:href="#m663facf4a1" x="237.492691" y="160.823755" style="fill: #1f77b4; stroke: #1f77b4; stroke-width: 1.5"/>
     <use xlink:href="#m663facf4a1" x="237.492691" y="152.801181" style="fill: #1f77b4; stroke: #1f77b4; stroke-width: 1.5"/>
     <use xlink:href="#m663facf4a1" x="237.492691" y="144.778608" style="fill: #1f77b4; stroke: #1f77b4; stroke-width: 1.5"/>
     <use xlink:href="#m663facf4a1" x="237.492691" y="136.756034" style="fill: #1f77b4; stroke: #1f77b4; stroke-width: 1.5"/>
     <use xlink:href="#m663facf4a1" x="237.492691" y="128.73346" style="fill: #1f77b4; stroke: #1f77b4; stroke-width: 1.5"/>
     <use xlink:href="#m663facf4a1" x="237.492691" y="120.710886" style="fill: #1f77b4; stroke: #1f77b4; stroke-width: 1.5"/>
     <use xlink:href="#m663facf4a1" x="237.492691" y="112.688312" style="fill: #1f77b4; stroke: #1f77b4; stroke-width: 1.5"/>
     <use xlink:href="#m663facf4a1" x="237.492691" y="104.665738" style="fill: #1f77b4; stroke: #1f77b4; stroke-width: 1.5"/>
     <use xlink:href="#m663facf4a1" x="237.492691" y="96.643165" style="fill: #1f77b4; stroke: #1f77b4; stroke-width: 1.5"/>
     <use xlink:href="#m663facf4a1" x="237.492691" y="88.620591" style="fill: #1f77b4; stroke: #1f77b4; stroke-width: 1.5"/>
     <use xlink:href="#m663facf4a1" x="237.492691" y="80.598017" style="fill: #1f77b4; stroke: #1f77b4; stroke-width: 1.5"/>
     <use xlink:href="#m663facf4a1" x="237.492691" y="72.575443" style="fill: #1f77b4; stroke: #1f77b4; stroke-width: 1.5"/>
     <use xlink:href="#m663facf4a1" x="237.492691" y="64.552869" style="fill: #1f77b4; stroke: #1f77b4; stroke-width: 1.5"/>
     <use xlink:href="#m663facf4a1" x="237.492691" y="56.530295" style="fill: #1f77b4; stroke: #1f77b4; stroke-width: 1.5"/>
     <use xlink:href="#m663facf4a1" x="237.492691" y="48.507722" style="fill: #1f77b4; stroke: #1f77b4; stroke-width: 1.5"/>
     <use xlink:href="#m663facf4a1" x="237.492691" y="40.485148" style="fill: #1f77b4; stroke: #1f77b4; stroke-width: 1.5"/>
     <use xlink:href="#m663facf4a1" x="220.653829" y="176.868903" style="fill: #1f77b4; stroke: #1f77b4; stroke-width: 1.5"/>
     <use xlink:href="#m663facf4a1" x="220.653829" y="168.846329" style="fill: #1f77b4; stroke: #1f77b4; stroke-width: 1.5"/>
     <use xlink:href="#m663facf4a1" x="220.653829" y="160.823755" style="fill: #1f77b4; stroke: #1f77b4; stroke-width: 1.5"/>
     <use xlink:href="#m663facf4a1" x="220.653829" y="152.801181" style="fill: #1f77b4; stroke: #1f77b4; stroke-width: 1.5"/>
     <use xlink:href="#m663facf4a1" x="220.653829" y="144.778608" style="fill: #1f77b4; stroke: #1f77b4; stroke-width: 1.5"/>
     <use xlink:href="#m663facf4a1" x="220.653829" y="136.756034" style="fill: #1f77b4; stroke: #1f77b4; stroke-width: 1.5"/>
     <use xlink:href="#m663facf4a1" x="220.653829" y="128.73346" style="fill: #1f77b4; stroke: #1f77b4; stroke-width: 1.5"/>
     <use xlink:href="#m663facf4a1" x="220.653829" y="120.710886" style="fill: #1f77b4; stroke: #1f77b4; stroke-width: 1.5"/>
     <use xlink:href="#m663facf4a1" x="220.653829" y="112.688312" style="fill: #1f77b4; stroke: #1f77b4; stroke-width: 1.5"/>
     <use xlink:href="#m663facf4a1" x="220.653829" y="104.665738" style="fill: #1f77b4; stroke: #1f77b4; stroke-width: 1.5"/>
     <use xlink:href="#m663facf4a1" x="220.653829" y="96.643165" style="fill: #1f77b4; stroke: #1f77b4; stroke-width: 1.5"/>
     <use xlink:href="#m663facf4a1" x="220.653829" y="88.620591" style="fill: #1f77b4; stroke: #1f77b4; stroke-width: 1.5"/>
     <use xlink:href="#m663facf4a1" x="220.653829" y="80.598017" style="fill: #1f77b4; stroke: #1f77b4; stroke-width: 1.5"/>
     <use xlink:href="#m663facf4a1" x="220.653829" y="72.575443" style="fill: #1f77b4; stroke: #1f77b4; stroke-width: 1.5"/>
     <use xlink:href="#m663facf4a1" x="220.653829" y="64.552869" style="fill: #1f77b4; stroke: #1f77b4; stroke-width: 1.5"/>
     <use xlink:href="#m663facf4a1" x="220.653829" y="56.530295" style="fill: #1f77b4; stroke: #1f77b4; stroke-width: 1.5"/>
     <use xlink:href="#m663facf4a1" x="220.653829" y="48.507722" style="fill: #1f77b4; stroke: #1f77b4; stroke-width: 1.5"/>
     <use xlink:href="#m663facf4a1" x="203.814967" y="168.846329" style="fill: #1f77b4; stroke: #1f77b4; stroke-width: 1.5"/>
     <use xlink:href="#m663facf4a1" x="203.814967" y="160.823755" style="fill: #1f77b4; stroke: #1f77b4; stroke-width: 1.5"/>
     <use xlink:href="#m663facf4a1" x="203.814967" y="152.801181" style="fill: #1f77b4; stroke: #1f77b4; stroke-width: 1.5"/>
     <use xlink:href="#m663facf4a1" x="203.814967" y="144.778608" style="fill: #1f77b4; stroke: #1f77b4; stroke-width: 1.5"/>
     <use xlink:href="#m663facf4a1" x="203.814967" y="136.756034" style="fill: #1f77b4; stroke: #1f77b4; stroke-width: 1.5"/>
     <use xlink:href="#m663facf4a1" x="203.814967" y="128.73346" style="fill: #1f77b4; stroke: #1f77b4; stroke-width: 1.5"/>
     <use xlink:href="#m663facf4a1" x="203.814967" y="120.710886" style="fill: #1f77b4; stroke: #1f77b4; stroke-width: 1.5"/>
     <use xlink:href="#m663facf4a1" x="203.814967" y="112.688312" style="fill: #1f77b4; stroke: #1f77b4; stroke-width: 1.5"/>
     <use xlink:href="#m663facf4a1" x="203.814967" y="104.665738" style="fill: #1f77b4; stroke: #1f77b4; stroke-width: 1.5"/>
     <use xlink:href="#m663facf4a1" x="203.814967" y="96.643165" style="fill: #1f77b4; stroke: #1f77b4; stroke-width: 1.5"/>
     <use xlink:href="#m663facf4a1" x="203.814967" y="88.620591" style="fill: #1f77b4; stroke: #1f77b4; stroke-width: 1.5"/>
     <use xlink:href="#m663facf4a1" x="203.814967" y="80.598017" style="fill: #1f77b4; stroke: #1f77b4; stroke-width: 1.5"/>
     <use xlink:href="#m663facf4a1" x="203.814967" y="72.575443" style="fill: #1f77b4; stroke: #1f77b4; stroke-width: 1.5"/>
     <use xlink:href="#m663facf4a1" x="203.814967" y="64.552869" style="fill: #1f77b4; stroke: #1f77b4; stroke-width: 1.5"/>
     <use xlink:href="#m663facf4a1" x="203.814967" y="56.530295" style="fill: #1f77b4; stroke: #1f77b4; stroke-width: 1.5"/>
     <use xlink:href="#m663facf4a1" x="186.976105" y="160.823755" style="fill: #1f77b4; stroke: #1f77b4; stroke-width: 1.5"/>
     <use xlink:href="#m663facf4a1" x="186.976105" y="152.801181" style="fill: #1f77b4; stroke: #1f77b4; stroke-width: 1.5"/>
     <use xlink:href="#m663facf4a1" x="186.976105" y="144.778608" style="fill: #1f77b4; stroke: #1f77b4; stroke-width: 1.5"/>
     <use xlink:href="#m663facf4a1" x="186.976105" y="136.756034" style="fill: #1f77b4; stroke: #1f77b4; stroke-width: 1.5"/>
     <use xlink:href="#m663facf4a1" x="186.976105" y="128.73346" style="fill: #1f77b4; stroke: #1f77b4; stroke-width: 1.5"/>
     <use xlink:href="#m663facf4a1" x="186.976105" y="120.710886" style="fill: #1f77b4; stroke: #1f77b4; stroke-width: 1.5"/>
     <use xlink:href="#m663facf4a1" x="186.976105" y="112.688312" style="fill: #1f77b4; stroke: #1f77b4; stroke-width: 1.5"/>
     <use xlink:href="#m663facf4a1" x="186.976105" y="104.665738" style="fill: #1f77b4; stroke: #1f77b4; stroke-width: 1.5"/>
     <use xlink:href="#m663facf4a1" x="186.976105" y="96.643165" style="fill: #1f77b4; stroke: #1f77b4; stroke-width: 1.5"/>
     <use xlink:href="#m663facf4a1" x="186.976105" y="88.620591" style="fill: #1f77b4; stroke: #1f77b4; stroke-width: 1.5"/>
     <use xlink:href="#m663facf4a1" x="186.976105" y="80.598017" style="fill: #1f77b4; stroke: #1f77b4; stroke-width: 1.5"/>
     <use xlink:href="#m663facf4a1" x="186.976105" y="72.575443" style="fill: #1f77b4; stroke: #1f77b4; stroke-width: 1.5"/>
     <use xlink:href="#m663facf4a1" x="186.976105" y="64.552869" style="fill: #1f77b4; stroke: #1f77b4; stroke-width: 1.5"/>
     <use xlink:href="#m663facf4a1" x="170.137243" y="152.801181" style="fill: #1f77b4; stroke: #1f77b4; stroke-width: 1.5"/>
     <use xlink:href="#m663facf4a1" x="170.137243" y="144.778608" style="fill: #1f77b4; stroke: #1f77b4; stroke-width: 1.5"/>
     <use xlink:href="#m663facf4a1" x="170.137243" y="136.756034" style="fill: #1f77b4; stroke: #1f77b4; stroke-width: 1.5"/>
     <use xlink:href="#m663facf4a1" x="170.137243" y="128.73346" style="fill: #1f77b4; stroke: #1f77b4; stroke-width: 1.5"/>
     <use xlink:href="#m663facf4a1" x="170.137243" y="120.710886" style="fill: #1f77b4; stroke: #1f77b4; stroke-width: 1.5"/>
     <use xlink:href="#m663facf4a1" x="170.137243" y="112.688312" style="fill: #1f77b4; stroke: #1f77b4; stroke-width: 1.5"/>
     <use xlink:href="#m663facf4a1" x="170.137243" y="104.665738" style="fill: #1f77b4; stroke: #1f77b4; stroke-width: 1.5"/>
     <use xlink:href="#m663facf4a1" x="170.137243" y="96.643165" style="fill: #1f77b4; stroke: #1f77b4; stroke-width: 1.5"/>
     <use xlink:href="#m663facf4a1" x="170.137243" y="88.620591" style="fill: #1f77b4; stroke: #1f77b4; stroke-width: 1.5"/>
     <use xlink:href="#m663facf4a1" x="170.137243" y="80.598017" style="fill: #1f77b4; stroke: #1f77b4; stroke-width: 1.5"/>
     <use xlink:href="#m663facf4a1" x="170.137243" y="72.575443" style="fill: #1f77b4; stroke: #1f77b4; stroke-width: 1.5"/>
     <use xlink:href="#m663facf4a1" x="153.298381" y="144.778608" style="fill: #1f77b4; stroke: #1f77b4; stroke-width: 1.5"/>
     <use xlink:href="#m663facf4a1" x="153.298381" y="136.756034" style="fill: #1f77b4; stroke: #1f77b4; stroke-width: 1.5"/>
     <use xlink:href="#m663facf4a1" x="153.298381" y="128.73346" style="fill: #1f77b4; stroke: #1f77b4; stroke-width: 1.5"/>
     <use xlink:href="#m663facf4a1" x="153.298381" y="120.710886" style="fill: #1f77b4; stroke: #1f77b4; stroke-width: 1.5"/>
     <use xlink:href="#m663facf4a1" x="153.298381" y="112.688312" style="fill: #1f77b4; stroke: #1f77b4; stroke-width: 1.5"/>
     <use xlink:href="#m663facf4a1" x="153.298381" y="104.665738" style="fill: #1f77b4; stroke: #1f77b4; stroke-width: 1.5"/>
     <use xlink:href="#m663facf4a1" x="153.298381" y="96.643165" style="fill: #1f77b4; stroke: #1f77b4; stroke-width: 1.5"/>
     <use xlink:href="#m663facf4a1" x="153.298381" y="88.620591" style="fill: #1f77b4; stroke: #1f77b4; stroke-width: 1.5"/>
     <use xlink:href="#m663facf4a1" x="153.298381" y="80.598017" style="fill: #1f77b4; stroke: #1f77b4; stroke-width: 1.5"/>
     <use xlink:href="#m663facf4a1" x="136.459519" y="136.756034" style="fill: #1f77b4; stroke: #1f77b4; stroke-width: 1.5"/>
     <use xlink:href="#m663facf4a1" x="136.459519" y="128.73346" style="fill: #1f77b4; stroke: #1f77b4; stroke-width: 1.5"/>
     <use xlink:href="#m663facf4a1" x="136.459519" y="120.710886" style="fill: #1f77b4; stroke: #1f77b4; stroke-width: 1.5"/>
     <use xlink:href="#m663facf4a1" x="136.459519" y="112.688312" style="fill: #1f77b4; stroke: #1f77b4; stroke-width: 1.5"/>
     <use xlink:href="#m663facf4a1" x="136.459519" y="104.665738" style="fill: #1f77b4; stroke: #1f77b4; stroke-width: 1.5"/>
     <use xlink:href="#m663facf4a1" x="136.459519" y="96.643165" style="fill: #1f77b4; stroke: #1f77b4; stroke-width: 1.5"/>
     <use xlink:href="#m663facf4a1" x="136.459519" y="88.620591" style="fill: #1f77b4; stroke: #1f77b4; stroke-width: 1.5"/>
     <use xlink:href="#m663facf4a1" x="119.620657" y="128.73346" style="fill: #1f77b4; stroke: #1f77b4; stroke-width: 1.5"/>
     <use xlink:href="#m663facf4a1" x="119.620657" y="120.710886" style="fill: #1f77b4; stroke: #1f77b4; stroke-width: 1.5"/>
     <use xlink:href="#m663facf4a1" x="119.620657" y="112.688312" style="fill: #1f77b4; stroke: #1f77b4; stroke-width: 1.5"/>
     <use xlink:href="#m663facf4a1" x="119.620657" y="104.665738" style="fill: #1f77b4; stroke: #1f77b4; stroke-width: 1.5"/>
     <use xlink:href="#m663facf4a1" x="119.620657" y="96.643165" style="fill: #1f77b4; stroke: #1f77b4; stroke-width: 1.5"/>
     <use xlink:href="#m663facf4a1" x="102.781795" y="120.710886" style="fill: #1f77b4; stroke: #1f77b4; stroke-width: 1.5"/>
     <use xlink:href="#m663facf4a1" x="102.781795" y="112.688312" style="fill: #1f77b4; stroke: #1f77b4; stroke-width: 1.5"/>
     <use xlink:href="#m663facf4a1" x="102.781795" y="104.665738" style="fill: #1f77b4; stroke: #1f77b4; stroke-width: 1.5"/>
     <use xlink:href="#m663facf4a1" x="85.942933" y="112.688312" style="fill: #1f77b4; stroke: #1f77b4; stroke-width: 1.5"/>
    </g>
   </g>
   <g id="matplotlib.axis_1">
    <g id="xtick_1">
     <g id="line2d_1">
      <defs>
       <path id="mf243fd15c4" d="M 0 5 
L 0 -5 
" style="stroke: #000000; stroke-width: 1.5"/>
      </defs>
      <g>
       <use xlink:href="#mf243fd15c4" x="85.942933" y="200.936625" style="stroke: #000000; stroke-width: 1.5"/>
      </g>
     </g>
     <g id="line2d_2">
      <g>
       <use xlink:href="#mf243fd15c4" x="85.942933" y="24.44" style="stroke: #000000; stroke-width: 1.5"/>
      </g>
     </g>
     <g id="text_1">
      <!-- 0 -->
      <g transform="translate(81.830752 221.688592) scale(0.18 -0.18)">
       <defs>
        <path id="LMRoman17-Regular-30" d="M 2688 2038 
C 2688 2430 2682 3099 2413 3613 
C 2176 4063 1798 4224 1466 4224 
C 1158 4224 768 4082 525 3620 
C 269 3137 243 2539 243 2038 
C 243 1671 250 1112 448 623 
C 723 -39 1216 -128 1466 -128 
C 1760 -128 2208 -7 2470 604 
C 2662 1048 2688 1568 2688 2038 
z
M 2278 2109 
C 2278 1691 2278 1176 2202 797 
C 2067 96 1690 -26 1466 -26 
C 1056 -26 813 328 723 816 
C 653 1196 653 1749 653 2109 
C 653 2604 653 3015 736 3407 
C 858 3954 1216 4121 1466 4121 
C 1728 4121 2067 3947 2189 3420 
C 2272 3054 2278 2623 2278 2109 
z
" transform="scale(0.015625)"/>
       </defs>
       <use xlink:href="#LMRoman17-Regular-30" transform="scale(0.996264)"/>
      </g>
     </g>
    </g>
    <g id="xtick_2">
     <g id="line2d_3">
      <g>
       <use xlink:href="#mf243fd15c4" x="254.331553" y="200.936625" style="stroke: #000000; stroke-width: 1.5"/>
      </g>
     </g>
     <g id="line2d_4">
      <g>
       <use xlink:href="#mf243fd15c4" x="254.331553" y="24.44" style="stroke: #000000; stroke-width: 1.5"/>
      </g>
     </g>
     <g id="text_2">
      <!-- $S^2_\mathrm{max}$ -->
      <g transform="translate(236.513673 224.526719) scale(0.18 -0.18)">
       <defs>
        <path id="LMMathItalic12-Regular-53" d="M 3456 1461 
C 3456 1728 3392 1963 3149 2198 
C 3014 2331 2899 2363 2310 2516 
C 1882 2630 1824 2649 1709 2751 
C 1600 2859 1517 3011 1517 3227 
C 1517 3761 2061 4307 2669 4307 
C 3296 4307 3590 3926 3590 3322 
C 3590 3157 3558 2986 3558 2960 
C 3558 2903 3610 2903 3629 2903 
C 3686 2903 3693 2922 3718 3024 
L 4064 4422 
C 4064 4480 4006 4480 4006 4480 
C 3981 4480 3974 4473 3898 4377 
L 3590 3996 
C 3379 4409 2957 4480 2688 4480 
C 1875 4480 1139 3742 1139 3024 
C 1139 2547 1427 2268 1741 2160 
C 1811 2134 2189 2033 2381 1988 
C 2707 1899 2790 1874 2925 1734 
C 2950 1702 3078 1556 3078 1258 
C 3078 667 2528 57 1888 57 
C 1363 57 781 279 781 991 
C 781 1112 806 1264 826 1328 
C 826 1347 832 1391 832 1391 
C 832 1417 819 1448 768 1448 
C 710 1448 704 1436 678 1328 
L 352 25 
L 326 -71 
C 326 -128 390 -128 390 -128 
C 416 -128 422 -122 499 -26 
L 794 356 
C 947 127 1280 -128 1875 -128 
C 2701 -128 3456 667 3456 1461 
z
" transform="scale(0.015625)"/>
        <path id="LMRoman17-Regular-32" d="M 2669 990 
L 2554 990 
C 2490 537 2438 460 2413 422 
C 2381 371 1920 371 1830 371 
L 602 371 
L 1824 1596 
C 2214 1966 2669 2400 2669 3033 
C 2669 3788 2067 4224 1395 4224 
C 691 4224 262 3603 262 3027 
C 262 2777 448 2745 525 2745 
C 589 2745 781 2783 781 3007 
C 781 3206 614 3264 525 3264 
C 486 3264 448 3257 422 3244 
C 544 3788 915 4057 1306 4057 
C 1862 4057 2227 3616 2227 3033 
C 2227 2477 1901 1998 1536 1583 
L 262 147 
L 262 0 
L 2515 0 
L 2669 990 
z
" transform="scale(0.015625)"/>
        <path id="LMRoman17-Regular-6d" d="M 4762 0 
L 4762 166 
C 4352 166 4326 192 4326 443 
L 4326 1954 
C 4326 2276 4269 2816 3507 2816 
C 3072 2816 2771 2520 2656 2173 
L 2650 2173 
C 2573 2700 2195 2816 1837 2816 
C 1331 2816 1069 2424 973 2166 
L 966 2166 
L 966 2816 
L 211 2752 
L 211 2585 
C 589 2585 646 2546 646 2237 
L 646 443 
C 646 198 621 166 211 166 
L 211 0 
C 365 12 646 12 813 12 
C 979 12 1267 12 1421 0 
L 1421 166 
C 1011 166 986 192 986 443 
L 986 1682 
C 986 2269 1344 2713 1792 2713 
C 2266 2713 2317 2289 2317 1980 
L 2317 443 
C 2317 198 2291 166 1882 166 
L 1882 0 
C 2035 12 2317 12 2483 12 
C 2650 12 2938 12 3091 0 
L 3091 166 
C 2682 166 2656 192 2656 443 
L 2656 1678 
C 2656 2269 3014 2713 3462 2713 
C 3936 2713 3987 2289 3987 1980 
L 3987 443 
C 3987 198 3962 166 3552 166 
L 3552 0 
C 3706 12 3987 12 4154 12 
C 4320 12 4608 12 4762 0 
z
" transform="scale(0.015625)"/>
        <path id="LMRoman17-Regular-61" d="M 2874 569 
L 2874 928 
L 2758 928 
L 2758 563 
C 2758 172 2586 121 2502 121 
C 2240 121 2240 454 2240 736 
L 2240 1657 
C 2240 2080 2240 2304 1971 2553 
C 1734 2764 1459 2828 1242 2828 
C 736 2828 371 2432 371 2009 
C 371 1772 563 1760 602 1760 
C 685 1760 832 1811 832 1990 
C 832 2150 710 2220 602 2220 
C 576 2220 544 2214 525 2208 
C 659 2611 1005 2726 1229 2726 
C 1549 2726 1901 2444 1901 1907 
L 1901 1625 
C 1523 1612 1069 1561 710 1369 
C 307 1145 192 825 192 582 
C 192 89 768 -52 1107 -52 
C 1459 -52 1786 147 1926 512 
C 1939 230 2118 -26 2400 -26 
C 2534 -26 2874 64 2874 569 
z
M 1901 889 
C 1901 332 1504 51 1152 51 
C 832 51 582 288 582 582 
C 582 774 666 1113 1037 1318 
C 1344 1491 1696 1516 1901 1529 
L 1901 889 
z
" transform="scale(0.015625)"/>
        <path id="LMRoman17-Regular-78" d="M 3091 0 
L 3091 166 
C 2771 166 2675 179 2522 384 
L 1664 1494 
L 2253 2234 
C 2464 2477 2707 2579 2989 2585 
L 2989 2752 
L 2541 2739 
C 2368 2739 2170 2739 2022 2752 
L 2022 2585 
C 2112 2585 2163 2521 2163 2432 
C 2163 2316 2099 2246 2067 2201 
L 1594 1599 
L 1030 2335 
C 973 2406 973 2419 973 2451 
C 973 2528 1037 2592 1146 2598 
L 1146 2752 
C 992 2739 717 2739 557 2739 
C 384 2739 179 2739 38 2752 
L 38 2585 
C 384 2585 461 2559 614 2366 
L 1350 1408 
C 1363 1395 1395 1356 1395 1337 
C 1395 1311 838 638 768 550 
C 480 199 179 173 6 166 
L 6 0 
L 454 12 
C 582 12 864 12 979 0 
L 979 166 
C 941 159 838 172 838 320 
C 838 435 890 506 947 584 
L 1478 1241 
L 2035 513 
C 2086 442 2163 345 2163 300 
C 2163 211 2086 159 1984 153 
L 1984 0 
C 2138 12 2413 12 2573 12 
C 2746 12 2950 12 3091 0 
z
" transform="scale(0.015625)"/>
       </defs>
       <use xlink:href="#LMMathItalic12-Regular-53" transform="scale(0.996264)"/>
       <use xlink:href="#LMRoman17-Regular-32" transform="translate(65.794439 36.153639) scale(0.757155)"/>
       <use xlink:href="#LMRoman17-Regular-6d" transform="translate(59.994488 -24.62935) scale(0.757155)"/>
       <use xlink:href="#LMRoman17-Regular-61" transform="translate(118.454903 -24.62935) scale(0.757155)"/>
       <use xlink:href="#LMRoman17-Regular-78" transform="translate(153.179772 -24.62935) scale(0.757155)"/>
      </g>
     </g>
    </g>
    <g id="xtick_3">
     <g id="line2d_5">
      <defs>
       <path id="m14f4e232f5" d="M 0 2.5 
L 0 -2.5 
" style="stroke: #808080"/>
      </defs>
      <g>
       <use xlink:href="#m14f4e232f5" x="119.620657" y="200.936625" style="fill: #808080; stroke: #808080"/>
      </g>
     </g>
     <g id="line2d_6">
      <g>
       <use xlink:href="#m14f4e232f5" x="119.620657" y="24.44" style="fill: #808080; stroke: #808080"/>
      </g>
     </g>
    </g>
    <g id="xtick_4">
     <g id="line2d_7">
      <g>
       <use xlink:href="#m14f4e232f5" x="153.298381" y="200.936625" style="fill: #808080; stroke: #808080"/>
      </g>
     </g>
     <g id="line2d_8">
      <g>
       <use xlink:href="#m14f4e232f5" x="153.298381" y="24.44" style="fill: #808080; stroke: #808080"/>
      </g>
     </g>
    </g>
    <g id="xtick_5">
     <g id="line2d_9">
      <g>
       <use xlink:href="#m14f4e232f5" x="186.976105" y="200.936625" style="fill: #808080; stroke: #808080"/>
      </g>
     </g>
     <g id="line2d_10">
      <g>
       <use xlink:href="#m14f4e232f5" x="186.976105" y="24.44" style="fill: #808080; stroke: #808080"/>
      </g>
     </g>
    </g>
    <g id="xtick_6">
     <g id="line2d_11">
      <g>
       <use xlink:href="#m14f4e232f5" x="220.653829" y="200.936625" style="fill: #808080; stroke: #808080"/>
      </g>
     </g>
     <g id="line2d_12">
      <g>
       <use xlink:href="#m14f4e232f5" x="220.653829" y="24.44" style="fill: #808080; stroke: #808080"/>
      </g>
     </g>
    </g>
    <g id="text_3">
     <!-- $S^2$ -->
     <g transform="translate(160.085322 222.573303) scale(0.2 -0.2)">
      <use xlink:href="#LMMathItalic12-Regular-53" transform="scale(0.996264)"/>
      <use xlink:href="#LMRoman17-Regular-32" transform="translate(65.794439 36.153639) scale(0.757155)"/>
     </g>
    </g>
   </g>
   <g id="matplotlib.axis_2">
    <g id="ytick_1">
     <g id="line2d_13">
      <defs>
       <path id="m8cc1dbf58c" d="M 5 0 
L -5 -0 
" style="stroke: #000000; stroke-width: 1.5"/>
      </defs>
      <g>
       <use xlink:href="#m8cc1dbf58c" x="77.523502" y="192.914051" style="stroke: #000000; stroke-width: 1.5"/>
      </g>
     </g>
     <g id="line2d_14">
      <g>
       <use xlink:href="#m8cc1dbf58c" x="262.750984" y="192.914051" style="stroke: #000000; stroke-width: 1.5"/>
      </g>
     </g>
     <g id="text_4">
      <!-- $-S^2_\mathrm{max}$ -->
      <g transform="translate(19.44 200.459098) scale(0.18 -0.18)">
       <defs>
        <path id="LMMathSymbols10-Regular-0" d="M 4442 1600 
C 4442 1728 4320 1728 4230 1728 
L 742 1728 
C 653 1728 531 1728 531 1600 
C 531 1472 653 1472 742 1472 
L 4230 1472 
C 4320 1472 4442 1472 4442 1600 
z
" transform="scale(0.015625)"/>
       </defs>
       <use xlink:href="#LMMathSymbols10-Regular-0" transform="scale(0.996264)"/>
       <use xlink:href="#LMMathItalic12-Regular-53" transform="translate(77.487468 0) scale(0.996264)"/>
       <use xlink:href="#LMRoman17-Regular-32" transform="translate(143.281907 36.153639) scale(0.757155)"/>
       <use xlink:href="#LMRoman17-Regular-6d" transform="translate(137.481955 -24.62935) scale(0.757155)"/>
       <use xlink:href="#LMRoman17-Regular-61" transform="translate(195.942371 -24.62935) scale(0.757155)"/>
       <use xlink:href="#LMRoman17-Regular-78" transform="translate(230.66724 -24.62935) scale(0.757155)"/>
      </g>
     </g>
    </g>
    <g id="ytick_2">
     <g id="line2d_15">
      <g>
       <use xlink:href="#m8cc1dbf58c" x="77.523502" y="112.688312" style="stroke: #000000; stroke-width: 1.5"/>
      </g>
     </g>
     <g id="line2d_16">
      <g>
       <use xlink:href="#m8cc1dbf58c" x="262.750984" y="112.688312" style="stroke: #000000; stroke-width: 1.5"/>
      </g>
     </g>
     <g id="text_5">
      <!-- 0 -->
      <g transform="translate(60.79914 118.814296) scale(0.18 -0.18)">
       <use xlink:href="#LMRoman17-Regular-30" transform="scale(0.996264)"/>
      </g>
     </g>
    </g>
    <g id="ytick_3">
     <g id="line2d_17">
      <g>
       <use xlink:href="#m8cc1dbf58c" x="77.523502" y="32.462574" style="stroke: #000000; stroke-width: 1.5"/>
      </g>
     </g>
     <g id="line2d_18">
      <g>
       <use xlink:href="#m8cc1dbf58c" x="262.750984" y="32.462574" style="stroke: #000000; stroke-width: 1.5"/>
      </g>
     </g>
     <g id="text_6">
      <!-- $S^2_\mathrm{max}$ -->
      <g transform="translate(33.387742 40.007621) scale(0.18 -0.18)">
       <use xlink:href="#LMMathItalic12-Regular-53" transform="scale(0.996264)"/>
       <use xlink:href="#LMRoman17-Regular-32" transform="translate(65.794439 36.153639) scale(0.757155)"/>
       <use xlink:href="#LMRoman17-Regular-6d" transform="translate(59.994488 -24.62935) scale(0.757155)"/>
       <use xlink:href="#LMRoman17-Regular-61" transform="translate(118.454903 -24.62935) scale(0.757155)"/>
       <use xlink:href="#LMRoman17-Regular-78" transform="translate(153.179772 -24.62935) scale(0.757155)"/>
      </g>
     </g>
    </g>
    <g id="ytick_4">
     <g id="line2d_19">
      <defs>
       <path id="mb5b632232e" d="M 2.5 0 
L -2.5 -0 
" style="stroke: #808080"/>
      </defs>
      <g>
       <use xlink:href="#mb5b632232e" x="77.523502" y="176.868903" style="fill: #808080; stroke: #808080"/>
      </g>
     </g>
     <g id="line2d_20">
      <g>
       <use xlink:href="#mb5b632232e" x="262.750984" y="176.868903" style="fill: #808080; stroke: #808080"/>
      </g>
     </g>
    </g>
    <g id="ytick_5">
     <g id="line2d_21">
      <g>
       <use xlink:href="#mb5b632232e" x="77.523502" y="160.823755" style="fill: #808080; stroke: #808080"/>
      </g>
     </g>
     <g id="line2d_22">
      <g>
       <use xlink:href="#mb5b632232e" x="262.750984" y="160.823755" style="fill: #808080; stroke: #808080"/>
      </g>
     </g>
    </g>
    <g id="ytick_6">
     <g id="line2d_23">
      <g>
       <use xlink:href="#mb5b632232e" x="77.523502" y="144.778608" style="fill: #808080; stroke: #808080"/>
      </g>
     </g>
     <g id="line2d_24">
      <g>
       <use xlink:href="#mb5b632232e" x="262.750984" y="144.778608" style="fill: #808080; stroke: #808080"/>
      </g>
     </g>
    </g>
    <g id="ytick_7">
     <g id="line2d_25">
      <g>
       <use xlink:href="#mb5b632232e" x="77.523502" y="128.73346" style="fill: #808080; stroke: #808080"/>
      </g>
     </g>
     <g id="line2d_26">
      <g>
       <use xlink:href="#mb5b632232e" x="262.750984" y="128.73346" style="fill: #808080; stroke: #808080"/>
      </g>
     </g>
    </g>
    <g id="ytick_8">
     <g id="line2d_27">
      <g>
       <use xlink:href="#mb5b632232e" x="77.523502" y="96.643165" style="fill: #808080; stroke: #808080"/>
      </g>
     </g>
     <g id="line2d_28">
      <g>
       <use xlink:href="#mb5b632232e" x="262.750984" y="96.643165" style="fill: #808080; stroke: #808080"/>
      </g>
     </g>
    </g>
    <g id="ytick_9">
     <g id="line2d_29">
      <g>
       <use xlink:href="#mb5b632232e" x="77.523502" y="80.598017" style="fill: #808080; stroke: #808080"/>
      </g>
     </g>
     <g id="line2d_30">
      <g>
       <use xlink:href="#mb5b632232e" x="262.750984" y="80.598017" style="fill: #808080; stroke: #808080"/>
      </g>
     </g>
    </g>
    <g id="ytick_10">
     <g id="line2d_31">
      <g>
       <use xlink:href="#mb5b632232e" x="77.523502" y="64.552869" style="fill: #808080; stroke: #808080"/>
      </g>
     </g>
     <g id="line2d_32">
      <g>
       <use xlink:href="#mb5b632232e" x="262.750984" y="64.552869" style="fill: #808080; stroke: #808080"/>
      </g>
     </g>
    </g>
    <g id="ytick_11">
     <g id="line2d_33">
      <g>
       <use xlink:href="#mb5b632232e" x="77.523502" y="48.507722" style="fill: #808080; stroke: #808080"/>
      </g>
     </g>
     <g id="line2d_34">
      <g>
       <use xlink:href="#mb5b632232e" x="262.750984" y="48.507722" style="fill: #808080; stroke: #808080"/>
      </g>
     </g>
    </g>
    <g id="text_7">
     <!-- $m_z$ -->
     <g transform="translate(52.564503 124.665006) rotate(-90) scale(0.2 -0.2)">
      <defs>
       <path id="LMMathItalic12-Regular-6d" d="M 5293 913 
C 5293 944 5267 970 5229 970 
C 5171 970 5165 951 5133 842 
C 4986 331 4749 63 4493 63 
C 4429 63 4326 70 4326 274 
C 4326 440 4403 644 4429 715 
C 4544 1021 4832 1775 4832 2145 
C 4832 2528 4608 2816 4122 2816 
C 3693 2816 3347 2573 3091 2196 
C 3072 2541 2861 2816 2381 2816 
C 1811 2816 1510 2413 1395 2254 
C 1376 2618 1114 2816 832 2816 
C 646 2816 499 2726 378 2483 
C 262 2254 173 1864 173 1838 
C 173 1813 198 1781 243 1781 
C 294 1781 301 1787 339 1934 
C 435 2311 557 2688 813 2688 
C 960 2688 1011 2586 1011 2394 
C 1011 2254 947 2004 902 1807 
L 723 1117 
L 595 593 
C 550 427 480 127 480 95 
C 480 6 550 -64 646 -64 
C 723 -64 813 -26 864 70 
C 877 102 934 325 966 453 
L 1107 1027 
L 1318 1870 
C 1331 1909 1491 2228 1728 2432 
C 1894 2586 2112 2688 2362 2688 
C 2618 2688 2707 2496 2707 2241 
C 2707 2202 2707 2075 2630 1775 
C 2547 1443 2547 1423 2470 1117 
L 2285 383 
C 2259 287 2221 121 2221 95 
C 2221 6 2291 -64 2387 -64 
C 2579 -64 2611 82 2669 312 
L 3053 1838 
C 3066 1890 3398 2688 4102 2688 
C 4358 2688 4448 2496 4448 2241 
C 4448 1883 4198 1187 4058 804 
C 4000 651 3968 568 3968 453 
C 3968 165 4166 -64 4474 -64 
C 5069 -64 5293 874 5293 913 
z
" transform="scale(0.015625)"/>
       <path id="LMMathItalic12-Regular-7a" d="M 2726 876 
C 2726 902 2720 942 2656 942 
C 2605 942 2598 915 2579 849 
C 2438 460 2061 336 1811 336 
C 1677 336 1549 364 1414 409 
C 1158 512 1088 512 1005 512 
C 941 512 870 512 813 486 
C 1088 809 1312 1015 1632 1313 
C 2016 1657 2182 1822 2272 1922 
C 2720 2371 2944 2713 2944 2764 
C 2944 2816 2880 2816 2880 2816 
C 2835 2816 2822 2790 2790 2745 
C 2630 2470 2477 2368 2310 2368 
C 2176 2368 2106 2403 1984 2547 
C 1850 2707 1741 2816 1555 2816 
C 1088 2816 806 2265 806 2127 
C 806 2107 813 2067 870 2067 
C 922 2067 928 2094 947 2140 
C 1056 2387 1363 2415 1485 2415 
C 1619 2415 1747 2387 1882 2342 
C 2125 2239 2227 2239 2291 2239 
C 2336 2239 2362 2239 2394 2246 
C 2182 1988 1837 1670 1549 1399 
C 1139 1028 1030 909 902 783 
C 512 380 275 32 275 -13 
C 275 -52 307 -64 346 -64 
C 384 -64 390 -58 435 19 
C 538 179 742 384 979 384 
C 1114 384 1178 356 1306 211 
C 1427 70 1536 -64 1741 -64 
C 2368 -64 2726 723 2726 876 
z
" transform="scale(0.015625)"/>
      </defs>
      <use xlink:href="#LMMathItalic12-Regular-6d" transform="scale(0.996264)"/>
      <use xlink:href="#LMMathItalic12-Regular-7a" transform="translate(85.327224 -14.943915) scale(0.757155)"/>
     </g>
    </g>
   </g>
   <g id="line2d_35">
    <path d="M 77.523502 112.688312 
L 262.750984 112.688312 
" clip-path="url(#p11d9d0f8df)" style="fill: none; stroke: #808080; stroke-width: 1.2; stroke-linecap: square"/>
   </g>
   <g id="patch_3">
    <path d="M 77.523502 200.936625 
L 77.523502 24.44 
" style="fill: none; stroke: #000000; stroke-width: 0.8; stroke-linejoin: miter; stroke-linecap: square"/>
   </g>
   <g id="patch_4">
    <path d="M 262.750984 200.936625 
L 262.750984 24.44 
" style="fill: none; stroke: #000000; stroke-width: 0.8; stroke-linejoin: miter; stroke-linecap: square"/>
   </g>
   <g id="patch_5">
    <path d="M 77.523502 200.936625 
L 262.750984 200.936625 
" style="fill: none; stroke: #000000; stroke-width: 0.8; stroke-linejoin: miter; stroke-linecap: square"/>
   </g>
   <g id="patch_6">
    <path d="M 77.523502 24.44 
L 262.750984 24.44 
" style="fill: none; stroke: #000000; stroke-width: 0.8; stroke-linejoin: miter; stroke-linecap: square"/>
   </g>
  </g>
 </g>
 <defs>
  <clipPath id="p11d9d0f8df">
   <rect x="77.523502" y="24.44" width="185.227482" height="176.496625"/>
  </clipPath>
 </defs>
</svg>
